<svg width="180" height="183" viewBox="0 0 180 183" fill="none" xmlns="http://www.w3.org/2000/svg">
<path d="M90 180C139.706 180 180 139.706 180 90C180 40.2944 139.706 0 90 0C40.2944 0 0 40.2944 0 90C0 139.706 40.2944 180 90 180Z" fill="#EAECF0"/>
<g filter="url(#filter0_d_48_6321)">
<mask id="mask0_48_6321" style="mask-type:alpha" maskUnits="userSpaceOnUse" x="0" y="0" width="180" height="180">
<path d="M90 180C139.706 180 180 139.706 180 90C180 40.2944 139.706 0 90 0C40.2944 0 0 40.2944 0 90C0 139.706 40.2944 180 90 180Z" fill="url(#paint0_linear_48_6321)"/>
</mask>
<g mask="url(#mask0_48_6321)">
<path d="M141.6 51.6H38.4004C35.0867 51.6 32.4004 54.2863 32.4004 57.6V183.6C32.4004 186.914 35.0867 189.6 38.4004 189.6H141.6C144.914 189.6 147.6 186.914 147.6 183.6V57.6C147.6 54.2863 144.914 51.6 141.6 51.6Z" fill="white"/>
</g>
</g>
<path d="M79.2004 63.6H48.0004C46.0122 63.6 44.4004 65.2118 44.4004 67.2C44.4004 69.1882 46.0122 70.8 48.0004 70.8H79.2004C81.1886 70.8 82.8004 69.1882 82.8004 67.2C82.8004 65.2118 81.1886 63.6 79.2004 63.6Z" fill="#EAECF0"/>
<path d="M79.2004 114H48.0004C46.0122 114 44.4004 115.612 44.4004 117.6C44.4004 119.588 46.0122 121.2 48.0004 121.2H79.2004C81.1886 121.2 82.8004 119.588 82.8004 117.6C82.8004 115.612 81.1886 114 79.2004 114Z" fill="#EAECF0"/>
<path d="M129.6 81.5996H50.3996C47.7486 81.5996 45.5996 83.7486 45.5996 86.3996V98.3996C45.5996 101.051 47.7486 103.2 50.3996 103.2H129.6C132.251 103.2 134.4 101.051 134.4 98.3996V86.3996C134.4 83.7486 132.251 81.5996 129.6 81.5996Z" stroke="#98A2B3" stroke-width="2"/>
<path d="M129.6 130.8H50.4004C47.0867 130.8 44.4004 133.486 44.4004 136.8V146.4C44.4004 149.714 47.0867 152.4 50.4004 152.4H129.6C132.914 152.4 135.6 149.714 135.6 146.4V136.8C135.6 133.486 132.914 130.8 129.6 130.8Z" fill="#EAECF0"/>
<path d="M63.6008 38.4C66.2517 38.4 68.4008 36.251 68.4008 33.6C68.4008 30.9491 66.2517 28.8 63.6008 28.8C60.9498 28.8 58.8008 30.9491 58.8008 33.6C58.8008 36.251 60.9498 38.4 63.6008 38.4Z" fill="white"/>
<path d="M90.0012 38.4003C92.6521 38.4003 94.8012 36.2513 94.8012 33.6003C94.8012 30.9493 92.6521 28.8003 90.0012 28.8003C87.3502 28.8003 85.2012 30.9493 85.2012 33.6003C85.2012 36.2513 87.3502 38.4003 90.0012 38.4003Z" fill="#98A2B3"/>
<path d="M116.402 38.4003C119.053 38.4003 121.202 36.2513 121.202 33.6003C121.202 30.9493 119.053 28.8003 116.402 28.8003C113.751 28.8003 111.602 30.9493 111.602 33.6003C111.602 36.2513 113.751 38.4003 116.402 38.4003Z" fill="white"/>
<path d="M103.199 105.6C106.513 105.6 109.199 102.914 109.199 99.6003C109.199 96.2866 106.513 93.6003 103.199 93.6003C99.8855 93.6003 97.1992 96.2866 97.1992 99.6003C97.1992 102.914 99.8855 105.6 103.199 105.6Z" fill="#EAECF0"/>
<path d="M107.888 125.245C106.928 125.245 106.032 125.245 105.216 125.193C104.211 125.125 103.244 124.781 102.421 124.199C101.599 123.617 100.953 122.82 100.555 121.894L95.4921 111.889C95.1208 111.456 94.9354 110.895 94.9763 110.326C95.0172 109.758 95.2811 109.229 95.7105 108.854C96.0623 108.571 96.5012 108.419 96.9525 108.423C97.2848 108.433 97.611 108.515 97.9087 108.662C98.2064 108.81 98.4685 109.021 98.6769 109.28L100.976 112.418L101.011 112.459V100.537C101.011 99.9454 101.246 99.3781 101.664 98.9599C102.082 98.5416 102.65 98.3066 103.241 98.3066C103.833 98.3066 104.4 98.5416 104.818 98.9599C105.236 99.3781 105.471 99.9454 105.471 100.537V108.337C105.445 108.05 105.48 107.761 105.572 107.487C105.664 107.214 105.812 106.963 106.006 106.751C106.2 106.538 106.437 106.368 106.701 106.252C106.964 106.136 107.25 106.076 107.538 106.076C107.826 106.076 108.111 106.136 108.375 106.252C108.638 106.368 108.875 106.538 109.069 106.751C109.264 106.963 109.412 107.214 109.504 107.487C109.596 107.761 109.63 108.05 109.604 108.337V109.963C109.578 109.676 109.612 109.387 109.704 109.113C109.797 108.84 109.944 108.589 110.139 108.377C110.333 108.164 110.57 107.994 110.834 107.878C111.097 107.762 111.382 107.702 111.671 107.702C111.959 107.702 112.244 107.762 112.507 107.878C112.771 107.994 113.008 108.164 113.202 108.377C113.397 108.589 113.544 108.84 113.637 109.113C113.729 109.387 113.763 109.676 113.737 109.963V111.216C113.711 110.929 113.745 110.639 113.837 110.366C113.929 110.093 114.077 109.842 114.272 109.63C114.466 109.417 114.703 109.247 114.966 109.131C115.23 109.014 115.515 108.954 115.803 108.954C116.091 108.954 116.377 109.014 116.64 109.131C116.904 109.247 117.141 109.417 117.335 109.63C117.529 109.842 117.677 110.093 117.769 110.366C117.861 110.639 117.896 110.929 117.87 111.216V118.82C117.829 121.159 116.772 125.102 113.053 125.102C112.783 125.114 110.496 125.246 107.893 125.246L107.888 125.245Z" fill="#98A2B3" stroke="white"/>
<defs>
<filter id="filter0_d_48_6321" x="26.4004" y="42.6" width="127.199" height="140.4" filterUnits="userSpaceOnUse" color-interpolation-filters="sRGB">
<feFlood flood-opacity="0" result="BackgroundImageFix"/>
<feColorMatrix in="SourceAlpha" type="matrix" values="0 0 0 0 0 0 0 0 0 0 0 0 0 0 0 0 0 0 127 0" result="hardAlpha"/>
<feOffset dy="-3"/>
<feGaussianBlur stdDeviation="3"/>
<feColorMatrix type="matrix" values="0 0 0 0 0.788235 0 0 0 0 0.803922 0 0 0 0 0.85098 0 0 0 0.349 0"/>
<feBlend mode="normal" in2="BackgroundImageFix" result="effect1_dropShadow_48_6321"/>
<feBlend mode="normal" in="SourceGraphic" in2="effect1_dropShadow_48_6321" result="shape"/>
</filter>
<linearGradient id="paint0_linear_48_6321" x1="90" y1="0" x2="90" y2="180" gradientUnits="userSpaceOnUse">
<stop stop-color="#E3ECFA"/>
<stop offset="1" stop-color="#DAE7FF"/>
</linearGradient>
</defs>
</svg>
