<svg width="16" height="16" viewBox="0 0 16 16" fill="none" xmlns="http://www.w3.org/2000/svg">
<path d="M11.203 5.51703C11.6007 5.51703 11.923 5.19467 11.923 4.79703C11.923 4.39938 11.6007 4.07703 11.203 4.07703C10.8054 4.07703 10.483 4.39938 10.483 4.79703C10.483 5.19467 10.8054 5.51703 11.203 5.51703Z" fill="black"/>
<path d="M7.99995 4.91895C7.39058 4.91895 6.7949 5.09964 6.28823 5.43819C5.78157 5.77673 5.38667 6.25792 5.15347 6.8209C4.92028 7.38388 4.85927 8.00336 4.97815 8.60102C5.09703 9.19867 5.39047 9.74765 5.82135 10.1785C6.25224 10.6094 6.80122 10.9029 7.39887 11.0217C7.99653 11.1406 8.61601 11.0796 9.17899 10.8464C9.74197 10.6132 10.2232 10.2183 10.5617 9.71166C10.9002 9.20499 11.0809 8.60931 11.0809 7.99995C11.0809 7.18281 10.7563 6.39915 10.1785 5.82135C9.60074 5.24355 8.81708 4.91895 7.99995 4.91895ZM7.99995 9.99995C7.60438 9.99995 7.2177 9.88265 6.88881 9.66288C6.55991 9.44312 6.30356 9.13076 6.15219 8.76531C6.00081 8.39986 5.96121 7.99773 6.03838 7.60976C6.11555 7.2218 6.30603 6.86544 6.58573 6.58573C6.86544 6.30603 7.2218 6.11554 7.60977 6.03837C7.99773 5.9612 8.39986 6.00081 8.76531 6.15219C9.13077 6.30356 9.44312 6.55991 9.66289 6.8888C9.88265 7.2177 9.99995 7.60438 9.99995 7.99995C9.99995 8.53038 9.78923 9.03909 9.41416 9.41416C9.03909 9.78923 8.53038 9.99995 7.99995 9.99995Z" fill="black"/>
<path d="M8 3.081C9.602 3.081 9.792 3.087 10.4245 3.116C10.8049 3.12052 11.1817 3.19037 11.5385 3.3225C11.7973 3.42235 12.0324 3.57527 12.2286 3.77144C12.4247 3.96761 12.5777 4.20267 12.6775 4.4615C12.8096 4.81826 12.8795 5.19508 12.884 5.5755C12.913 6.208 12.919 6.398 12.919 8.0005C12.919 9.603 12.913 9.792 12.884 10.4245C12.8795 10.8049 12.8096 11.1817 12.6775 11.5385C12.5777 11.7973 12.4247 12.0324 12.2286 12.2286C12.0324 12.4247 11.7973 12.5777 11.5385 12.6775C11.1817 12.8096 10.8049 12.8795 10.4245 12.884C9.792 12.913 9.602 12.919 8 12.919C6.398 12.919 6.208 12.913 5.5755 12.884C5.19508 12.8795 4.81826 12.8096 4.4615 12.6775C4.20267 12.5777 3.96761 12.4247 3.77144 12.2286C3.57527 12.0324 3.42235 11.7973 3.3225 11.5385C3.19037 11.1817 3.12052 10.8049 3.116 10.4245C3.087 9.792 3.081 9.602 3.081 8C3.081 6.398 3.087 6.208 3.116 5.5755C3.12052 5.19508 3.19037 4.81826 3.3225 4.4615C3.42235 4.20267 3.57527 3.96761 3.77144 3.77144C3.96761 3.57527 4.20267 3.42235 4.4615 3.3225C4.81826 3.19037 5.19508 3.12052 5.5755 3.116C6.208 3.087 6.398 3.081 8 3.081ZM8 2C6.3705 2 6.166 2.007 5.526 2.036C5.02839 2.04605 4.53608 2.14038 4.07 2.315C3.67136 2.46915 3.30933 2.70489 3.00711 3.00711C2.70489 3.30933 2.46915 3.67136 2.315 4.07C2.14033 4.53624 2.04599 5.02872 2.036 5.5265C2.007 6.1665 2 6.37 2 8C2 9.63 2.007 9.834 2.036 10.474C2.04605 10.9716 2.14038 11.4639 2.315 11.93C2.46915 12.3286 2.70489 12.6907 3.00711 12.9929C3.30933 13.2951 3.67136 13.5309 4.07 13.685C4.53624 13.8597 5.02872 13.954 5.5265 13.964C6.1665 13.993 6.3705 14 8 14C9.6295 14 9.834 13.993 10.474 13.964C10.9718 13.954 11.4643 13.8597 11.9305 13.685C12.3291 13.5309 12.6912 13.2951 12.9934 12.9929C13.2956 12.6907 13.5314 12.3286 13.6855 11.93C13.86 11.4637 13.9542 10.9713 13.964 10.4735C13.993 9.8335 14 9.63 14 8C14 6.37 13.993 6.166 13.964 5.526C13.954 5.02839 13.8596 4.53608 13.685 4.07C13.5309 3.67136 13.2951 3.30933 12.9929 3.00711C12.6907 2.70489 12.3286 2.46915 11.93 2.315C11.4637 2.1405 10.9713 2.04633 10.4735 2.0365C9.8335 2.0065 9.63 2 8 2Z" fill="black"/>
</svg>
