<svg version="1.2" xmlns="http://www.w3.org/2000/svg" viewBox="0 0 318 195" width="318" height="195">
	<title>logotype-svg</title>
	<style>
		.s0 { fill: #075a81 } 
		.s1 { fill: #8be8e5 } 
	</style>
	<path id="Layer" class="s0" d="m217.4 195h-2.6c-23.7-0.6-46.3-9.9-63.7-26q-0.4-0.4-0.9-0.8-0.7-0.7-1.5-1.5l-0.3-0.3q-0.9-0.8-1.8-1.7l-1.2-1.4-13.4-14.1q-0.7 0.7-1.4 1.4c-10.9 10.1-24.4 16.8-39 19.4-14.6 2.7-29.6 1.1-43.3-4.6-13.8-5.6-25.6-15-34.1-27.1-8.6-12.2-13.5-26.5-14.1-41.3-0.7-14.8 2.8-29.5 10.2-42.3 7.4-12.9 18.3-23.4 31.5-30.2 13.1-6.9 27.9-9.9 42.7-8.6 14.8 1.3 28.9 6.7 40.6 15.8 1.8-8.8 6.5-16.7 13.4-22.4 7-5.7 15.6-8.8 24.6-8.8h0.4c6.9 0.1 13.8 2 19.7 5.7 17.9-6.7 37.5-8 56.1-3.7 18.7 4.3 35.6 14 48.8 27.9 13.1 13.8 21.9 31.2 25.3 50 3.3 18.7 1.1 38.1-6.4 55.6-7.5 17.5-20 32.4-36 42.9-15.9 10.5-34.5 16.1-53.6 16.1z"/>
	<path id="Layer" class="s1" d="m268.7 48.8c-12-12.6-28.1-20.3-45.4-21.8-17.3-1.4-34.6 3.5-48.5 13.9v-1.8c0.1-1.6-0.1-3.2-0.7-4.6-0.6-1.5-1.4-2.9-2.5-4.1-1.1-1.1-2.4-2-3.9-2.7-1.5-0.6-3-0.9-4.6-0.9-1.6 0-3.2 0.3-4.7 0.9-1.4 0.6-2.8 1.5-3.9 2.7-1.1 1.1-2 2.4-2.5 3.9-0.6 1.5-0.9 3.1-0.8 4.7l-0.3 30.8c-0.1 2.6 0.8 5.1 2.4 7.2 1.5 2.1 3.7 3.6 6.2 4.3q1.8 0.5 3.6 0.6l30.8 0.3c1.6 0.1 3.2-0.2 4.8-0.7 1.5-0.5 2.9-1.4 4-2.5 1.2-1.1 2.2-2.4 2.8-3.9 0.6-1.5 1-3.1 1-4.7 0-1.6-0.3-3.2-0.9-4.7-0.7-1.5-1.6-2.8-2.8-3.9-1.1-1.1-2.5-2-4-2.6-1.5-0.5-3.1-0.8-4.7-0.7h-3.3c7.4-5 16.1-7.8 25-8.1 8.9-0.3 17.7 1.9 25.4 6.4 7.7 4.5 14 11.1 18.1 19.1 4.1 7.9 5.8 16.8 5.1 25.7-0.8 8.9-4.1 17.4-9.5 24.5-5.4 7.1-12.6 12.5-21 15.6-8.4 3.2-17.4 3.9-26.2 2-8.7-1.8-16.7-6-23.1-12.2l-69.4-72.9c-5.7-6.1-12.9-10.8-20.8-13.5-7.9-2.7-16.4-3.4-24.7-2.1-8.3 1.4-16.1 4.7-22.8 9.8-6.7 5.1-12 11.8-15.5 19.4-3.5 7.6-5.1 16-4.6 24.4 0.5 8.4 3.1 16.5 7.5 23.7 4.4 7.1 10.5 13.1 17.7 17.3 7.3 4.3 15.4 6.7 23.8 7q1.1 0 2.1 0c12.8 0 25.2-4.8 34.7-13.6 2-2.2 3.2-5 3.2-8 0-3-1.1-5.9-3.1-8.1-2-2.2-4.8-3.6-7.8-3.8-3-0.2-6 0.7-8.3 2.6-4 3.7-9 6.1-14.4 6.9-5.4 0.9-10.9 0.1-15.8-2.1-5-2.3-9.1-6-12-10.7-2.8-4.6-4.2-10-4-15.4 0.2-5.5 2-10.7 5.2-15.1 3.2-4.4 7.7-7.8 12.8-9.7 5.1-1.9 10.6-2.2 15.9-0.9 5.3 1.3 10.1 4.1 13.8 8.1l67.3 70.7q0.3 0.4 0.6 0.8 0.7 0.7 1.5 1.5l0.5 0.5 0.5 0.4q0.2 0.3 0.5 0.5c12.6 11.8 29.1 18.6 46.4 19h1.9c13.9 0 27.4-4.1 39-11.7 11.5-7.6 20.6-18.4 26-31.2 5.5-12.7 7.1-26.7 4.7-40.4-2.5-13.6-8.8-26.2-18.4-36.2z"/>
</svg>