<svg width="1116" height="195" viewBox="0 0 1116 195" fill="none" xmlns="http://www.w3.org/2000/svg">
<path d="M217.39 195H214.766C191.093 194.379 168.459 185.146 151.107 169.03C150.806 168.764 150.505 168.498 150.221 168.214C149.707 167.735 149.211 167.257 148.714 166.743L148.395 166.424C147.81 165.839 147.225 165.254 146.622 164.651L145.364 163.286L131.997 149.246C131.554 149.707 131.093 150.15 130.615 150.593C119.726 160.654 106.189 167.395 91.5987 170.023C77.0081 172.652 61.9704 171.058 48.2552 165.429C34.5399 159.8 22.7178 150.371 14.1801 138.25C5.64232 126.13 0.744204 111.824 0.0621064 97.0138C-0.619991 82.2042 2.94232 67.5078 10.3298 54.6541C17.7173 41.8005 28.6226 31.3244 41.7624 24.4587C54.9022 17.593 69.7298 14.6234 84.5001 15.8993C99.2705 17.1753 113.369 22.6436 125.137 31.6609C126.872 22.8759 131.606 14.9672 138.53 9.28849C145.454 3.60978 154.136 0.514265 163.091 0.531831H163.481C170.45 0.586197 177.272 2.54144 183.211 6.18683C201.142 -0.526068 220.653 -1.81109 239.309 2.49207C257.966 6.79522 274.942 16.4961 288.121 30.3846C301.247 44.2152 310.028 61.5908 313.38 80.3611C316.732 99.1314 314.506 118.472 306.979 135.991C299.452 153.509 286.953 168.436 271.029 178.924C255.106 189.413 236.457 195.002 217.39 195Z" fill="#075A81"/>
<path d="M437.03 145.789C434.313 146.921 431.517 147.851 428.663 148.572C425.776 149.377 422.797 149.806 419.8 149.849C413.713 149.849 408.939 148.625 405.476 146.179C402.013 143.733 400.282 139.632 400.282 133.876V76.1032H431.464C432.823 76.1581 434.178 75.9278 435.442 75.4271C436.706 74.9263 437.851 74.1663 438.803 73.1959C440.833 70.7558 441.831 67.6207 441.586 64.4564C441.601 62.1779 441.26 59.9112 440.576 57.7377C440.109 56.0907 439.43 54.5115 438.555 53.04H400.282V29.9945C400.282 24.9482 399.017 21.4441 396.488 19.4823C393.959 17.5205 389.988 16.5514 384.575 16.575C381.986 16.5657 379.4 16.7793 376.846 17.2132C374.907 17.5047 372.996 17.9674 371.138 18.5959V135.596C371.138 149.128 374.944 158.801 382.555 164.615C390.165 170.43 400.554 173.343 413.719 173.355C423.174 173.355 430.182 171.795 434.744 168.675C439.317 165.537 441.586 161.584 441.586 156.886C441.624 154.698 441.15 152.531 440.204 150.558C439.351 148.841 438.285 147.238 437.03 145.789Z" fill="#075A81"/>
<path d="M569.95 109.555C572.219 107.356 573.371 103.97 573.371 99.4146C573.528 89.9175 571.121 80.554 566.404 72.3096C561.773 64.3985 555.018 57.9438 546.904 53.6782C537.939 49.0638 527.966 46.7547 517.885 46.9596C510.154 46.925 502.478 48.2573 495.211 50.895C487.991 53.4529 481.415 57.5556 475.944 62.9168C470.473 68.278 466.237 74.7685 463.533 81.9355C460.24 90.5847 458.645 99.7876 458.835 109.04C458.835 123.069 461.624 134.887 467.202 144.495C472.554 153.902 480.641 161.457 490.39 166.158C501.218 171.167 513.048 173.635 524.975 173.373C532.445 173.466 539.896 172.614 547.152 170.838C552.766 169.578 558.039 167.116 562.61 163.623C564.329 162.389 565.739 160.774 566.73 158.904C567.72 157.034 568.264 154.96 568.319 152.845C568.355 150.275 567.6 147.756 566.156 145.63C564.699 143.49 562.853 141.644 560.714 140.187C556.266 143.161 551.451 145.545 546.39 147.278C540.09 149.568 533.433 150.72 526.73 150.682C515.763 150.682 506.77 147.975 499.75 142.563C493.947 137.882 489.944 131.336 488.422 124.038L560.448 113.685C563.981 113.381 567.318 111.931 569.95 109.555ZM486.543 103.244C487.057 92.6073 490.088 84.4705 495.566 78.6382C498.408 75.5858 501.865 73.1714 505.709 71.5548C509.554 69.9382 513.698 69.1562 517.867 69.2605C526.482 69.2605 533.154 71.7541 537.881 76.7414C542.55 81.5679 545.336 87.907 545.734 94.6105L486.543 103.244Z" fill="#075A81"/>
<path d="M694.484 60.2727C685.029 52.7564 671.852 48.9982 654.952 48.9982C646.094 48.8927 637.267 50.0447 628.733 52.4196C621.987 54.2052 615.542 56.9769 609.605 60.645C606.529 62.3973 603.887 64.8211 601.876 67.7359C600.146 70.7361 599.31 74.1681 599.465 77.6277V159.989C599.465 164.881 600.76 168.338 603.383 170.377C606.007 172.415 610.013 173.408 615.42 173.408C618.051 173.428 620.68 173.215 623.273 172.77C625.172 172.474 627.04 172.012 628.857 171.387V79.2055C632.462 77.1711 636.286 75.5534 640.256 74.3836C645.027 72.9832 649.98 72.302 654.952 72.3627C662.22 72.3627 668.094 74.1768 672.573 77.805C677.052 81.4332 679.291 87.1355 679.291 94.9118V159.989C679.291 164.881 680.585 168.338 683.209 170.377C685.833 172.415 689.839 173.408 695.246 173.408C697.918 173.424 700.587 173.211 703.223 172.77C705.088 172.507 706.918 172.043 708.683 171.387V93.8482C708.683 78.9691 703.95 67.7773 694.484 60.2727Z" fill="#075A81"/>
<path d="M769.364 19.7127C766.74 17.7627 762.645 16.7877 757.079 16.7877C754.489 16.7866 751.904 17 749.35 17.4259C746.903 17.8514 745.077 18.2236 743.89 18.5605V159.989C743.89 164.881 745.201 168.344 747.825 170.377C750.449 172.41 754.461 173.42 759.862 173.408C762.493 173.428 765.121 173.215 767.715 172.77C769.613 172.472 771.481 172.009 773.299 171.387V30.225C773.299 25.155 771.987 21.6509 769.364 19.7127Z" fill="#075A81"/>
<path d="M924.318 110.069C924.318 123.069 921.824 134.296 916.837 143.75C912.085 152.967 904.731 160.586 895.688 165.661C885.654 170.742 874.565 173.39 863.318 173.39C852.071 173.39 840.982 170.742 830.948 165.661C821.848 160.621 814.445 152.996 809.675 143.75C804.688 134.296 802.195 123.069 802.195 110.069C802.195 97.0687 804.73 85.8768 809.8 76.4932C814.677 67.3054 822.116 59.7308 831.214 54.6887C841.133 49.3668 852.26 46.704 863.513 46.9596C874.641 46.714 885.64 49.3782 895.422 54.6887C904.484 59.7874 911.874 67.4045 916.695 76.6173C921.981 86.9593 924.601 98.4575 924.318 110.069ZM863.318 70.2709C858.996 70.1115 854.697 70.9814 850.777 72.8091C846.856 74.6368 843.426 77.3699 840.769 80.7832C835.179 87.8032 832.39 97.565 832.402 110.069C832.414 122.572 835.12 132.37 840.521 139.46C845.91 146.386 853.509 149.849 863.318 149.849C873.127 149.849 880.774 146.339 886.257 139.319C891.741 132.31 894.483 122.56 894.483 110.069C894.483 97.5768 891.717 87.8623 886.186 80.925C880.691 73.8223 873.068 70.2709 863.318 70.2709Z" fill="#075A81"/>
<path d="M1111.84 52.2778C1108.92 50.3153 1105.46 49.3398 1101.94 49.4946C1097.31 49.423 1092.75 50.6512 1088.77 53.04C1086.41 68.7582 1083.5 84.5946 1080.03 100.549C1076.57 116.504 1073.32 131.584 1070.28 145.789H1068.95C1067.95 141.913 1066.3 135.956 1064.01 127.92C1061.72 119.884 1059.02 110.677 1055.91 100.301C1052.79 89.9128 1049.54 79.2291 1046.16 68.25C1045.67 66.8511 1044.9 65.5672 1043.9 64.4783C1042.9 63.3895 1041.68 62.5191 1040.32 61.9214C1036.97 60.4671 1033.34 59.771 1029.69 59.8828C1026.83 59.8397 1023.98 60.1796 1021.21 60.8932C1018.79 61.5611 1016.46 62.5007 1014.25 63.6941C1010.87 75.0041 1007.49 86.1959 1004.11 97.2696C1000.73 108.343 997.815 118.182 995.369 126.785C992.899 135.401 991.079 141.653 989.909 145.541H988.898C988.225 142.829 987.285 138.822 986.115 133.504C984.945 128.186 983.527 121.84 981.931 114.5C980.336 107.161 978.723 99.1309 977.11 90.4268C975.496 81.7227 973.865 72.6996 972.181 63.18C971.49 58.2873 969.895 54.7773 967.36 52.6678C964.479 50.4489 960.905 49.3244 957.273 49.4946C954.119 49.4447 950.998 50.137 948.161 51.5155C945.831 52.6149 943.69 54.0747 941.815 55.8409C942.996 62.4118 944.474 69.7982 946.246 78C948.019 86.2018 949.963 94.7346 952.079 103.598C954.194 112.462 956.351 120.953 958.549 129.072C960.729 137.174 962.857 144.389 964.878 150.735C966.397 155.681 968.172 160.545 970.196 165.307C970.887 166.738 971.861 168.014 973.058 169.059C974.255 170.104 975.652 170.896 977.163 171.387C980.85 172.774 984.764 173.46 988.703 173.408C992.08 173.496 995.451 173.072 998.701 172.15C1001.03 171.444 1003.21 170.327 1005.14 168.852C1007.33 163.268 1009.82 156.23 1012.62 147.686C1015.42 139.141 1018.31 129.959 1021.36 120.315C1024.41 110.671 1027.19 100.939 1029.71 91.3132C1032.24 100.768 1034.86 110.222 1037.58 119.677C1040.3 129.131 1043 137.912 1045.68 146.02C1048.37 154.139 1050.74 160.816 1052.77 166.051C1054.46 170.944 1060.2 173.39 1070 173.39C1073.56 173.435 1077.1 172.97 1080.53 172.008C1082.96 171.416 1085.24 170.336 1087.23 168.835C1088.6 165.626 1090.23 161.105 1092.18 155.273C1094.13 149.441 1096.15 142.864 1098.26 135.631C1100.37 128.399 1102.48 120.811 1104.6 112.958C1106.73 105.105 1108.56 97.7127 1110.17 90.7814C1111.78 83.85 1113.08 77.7696 1114.11 72.54C1114.92 68.8713 1115.42 65.1417 1115.61 61.3896C1115.62 57.1823 1114.37 54.145 1111.84 52.2778Z" fill="#075A81"/>
<path d="M268.692 48.7677C256.724 36.1971 240.56 28.4528 223.264 27.0022C205.967 25.5516 188.739 30.4953 174.844 40.8968V39.1241C174.913 37.5323 174.661 35.9429 174.102 34.451C173.542 32.9591 172.688 31.5955 171.589 30.4417C170.49 29.2879 169.17 28.3677 167.707 27.7362C166.244 27.1047 164.669 26.7749 163.076 26.7665C161.482 26.7582 159.904 27.0715 158.434 27.6876C156.965 28.3037 155.635 29.21 154.524 30.3522C153.413 31.4944 152.545 32.849 151.97 34.335C151.395 35.8209 151.125 37.4076 151.178 39L150.859 69.7746C150.845 72.3794 151.688 74.9167 153.257 76.9956C154.827 79.0745 157.036 80.5798 159.545 81.2796C160.69 81.6562 161.886 81.8536 163.091 81.8646L193.919 82.1837C195.527 82.2808 197.139 82.0491 198.655 81.5026C200.171 80.9561 201.56 80.1063 202.737 79.0051C203.914 77.9039 204.854 76.5744 205.5 75.0978C206.145 73.6211 206.483 72.0284 206.493 70.4167C206.503 68.8051 206.184 67.2084 205.556 65.7241C204.928 64.2398 204.004 62.8992 202.84 61.7839C201.677 60.6687 200.298 59.8023 198.789 59.2377C197.279 58.6731 195.67 58.4221 194.06 58.5H190.834C198.213 53.4897 206.861 50.6731 215.775 50.3768C224.689 50.0805 233.505 52.3166 241.201 56.8258C248.896 61.335 255.156 67.9328 259.255 75.8544C263.353 83.776 265.123 92.6971 264.359 101.583C263.595 110.47 260.328 118.958 254.937 126.063C249.546 133.169 242.252 138.601 233.9 141.731C225.548 144.86 216.48 145.559 207.747 143.745C199.014 141.931 190.974 137.68 184.559 131.483L115.227 58.6064C109.497 52.4695 102.344 47.8384 94.399 45.1221C86.4544 42.4058 77.9631 41.688 69.6752 43.032C61.3873 44.3761 53.558 47.7406 46.8789 52.8284C40.1998 57.9162 34.8766 64.5706 31.3795 72.2038C27.8824 79.837 26.319 88.214 26.8276 96.5947C27.3361 104.976 29.9009 113.102 34.2953 120.256C38.6897 127.411 44.7785 133.373 52.0237 137.616C59.269 141.858 67.4476 144.252 75.8372 144.584C76.5286 144.584 77.22 144.584 77.8936 144.584C90.7497 144.615 103.138 139.761 112.55 131.005C114.616 128.834 115.78 125.96 115.805 122.964C115.831 119.968 114.716 117.074 112.687 114.869C110.658 112.664 107.867 111.314 104.879 111.09C101.891 110.867 98.9298 111.788 96.5959 113.667C92.5984 117.365 87.5939 119.795 82.2156 120.648C76.8372 121.501 71.3266 120.741 66.3807 118.462C61.4347 116.183 57.2757 112.489 54.4296 107.846C51.5835 103.203 50.1783 97.8209 50.3916 92.3795C50.6049 86.938 52.4271 81.6821 55.6279 77.2764C58.8286 72.8707 63.2641 69.5132 68.3732 67.6286C73.4824 65.7439 79.0356 65.4169 84.3307 66.6887C89.6257 67.9605 94.4246 70.7742 98.1204 74.7737L165.378 145.523C165.573 145.771 165.768 146.002 165.998 146.25C166.495 146.764 166.991 147.26 167.505 147.757L168.019 148.306L168.462 148.714C168.615 148.876 168.781 149.024 168.959 149.157C181.567 161.019 198.115 167.801 215.422 168.196H217.319C231.162 168.193 244.701 164.13 256.258 156.51C267.817 148.891 276.887 138.05 282.346 125.329C287.806 112.607 289.416 98.5644 286.977 84.9376C284.537 71.3108 278.155 58.6984 268.621 48.6614L268.692 48.7677Z" fill="#8BE8E5"/>
</svg>
