<svg width="300" height="300" viewBox="0 0 300 300" fill="none" xmlns="http://www.w3.org/2000/svg">
<path d="M298.752 256.684C305.987 242.365 285.308 170.77 141.923 170.77C38.4274 170.77 -9.07413 229.372 1.42751 259.071" fill="url(#paint0_radial_1_22583)"/>
<mask id="mask0_1_22583" style="mask-type:luminance" maskUnits="userSpaceOnUse" x="0" y="170" width="300" height="90">
<path d="M298.752 256.684C305.987 242.365 285.308 170.77 141.923 170.77C38.4274 170.77 -9.07413 229.372 1.42751 259.071" fill="white"/>
</mask>
<g mask="url(#mask0_1_22583)">
<ellipse opacity="0.671968" cx="119.808" cy="233.996" rx="7.88551" ry="4.38001" fill="url(#paint1_linear_1_22583)"/>
<ellipse opacity="0.256348" cx="200.292" cy="204.233" rx="12.4416" ry="6.83282" fill="url(#paint2_linear_1_22583)"/>
<ellipse opacity="0.729957" cx="58.7033" cy="186.012" rx="12.4416" ry="6.83282" fill="url(#paint3_linear_1_22583)"/>
</g>
<path opacity="0.5" d="M116.885 186.647C116.885 186.647 147.396 200.994 159.5 206.5C169.088 210.861 218.456 224.813 224.338 220.847C230.219 216.881 243.204 205.997 238.917 198.54C234.63 191.083 212.085 177.694 201.302 175.738C190.52 173.781 159.688 182.674 159.688 182.674L133.39 187.191L116.885 186.647Z" fill="url(#paint4_linear_1_22583)"/>
<path d="M139.5 122.5L105.5 147.5L114.565 126.231L148.615 104.614L139.5 122.5Z" fill="#E2E7EC"/>
<path d="M114 126.67L148.615 105V164.099L116.885 186.346L114 126.67Z" fill="#D8DFE6"/>
<path d="M148.615 105L201.692 117.417V176.538L148.615 164.121V105Z" fill="#E9EFF1"/>
<path d="M114 126.667L168.231 139.341V198.462L116.885 186.671L114 126.667Z" fill="#E8EAEB"/>
<path d="M167.077 139.362L201.693 117.692V176.792L167.077 198.462V139.362Z" fill="#D8DFE6"/>
<mask id="mask1_1_22583" style="mask-type:luminance" maskUnits="userSpaceOnUse" x="167" y="117" width="35" height="82">
<path d="M167.077 139.362L201.693 117.692V176.792L167.077 198.462V139.362Z" fill="white"/>
</mask>
<g mask="url(#mask1_1_22583)">
<rect x="179.935" y="112.768" width="10.8791" height="90.6191" fill="#C7D0D9"/>
</g>
<path d="M182.643 156.923L216.693 135.306L201.127 117.692L167.077 139.309L182.643 156.923Z" fill="#E2E7EC"/>
<path opacity="0.5" d="M87.4466 188.137L141 215.5L146 201L93.4557 183.522L87.4466 188.137Z" fill="url(#paint5_linear_1_22583)"/>
<path d="M85.9846 143.154L104.451 144.61L100.35 184.777C100.35 184.777 99.991 185.179 99.1198 185.023C98.2485 184.867 97.3345 184.382 97.3345 184.382L94.5881 152.45C94.5881 152.45 92.9997 163.741 93.1106 166.918C93.1942 169.311 94.0125 172.231 94.4505 174.728C94.8274 176.878 95.6205 182.014 95.6205 182.014C95.6205 182.014 94.6835 182.442 94.1851 182.539C93.6867 182.636 93.0477 182.104 93.0477 182.104C93.0477 182.104 86.5732 169.536 86.4899 167.149C86.4065 164.762 85.9846 143.154 85.9846 143.154Z" fill="url(#paint6_linear_1_22583)"/>
<path d="M92.76 182.046C92.76 182.046 91.9375 183.527 90.9158 184.43C89.894 185.333 87.8778 186.411 87.4182 186.901C86.9585 187.391 87.4605 188.113 87.4605 188.113L92.402 187.94L96.3505 184.6L95.7988 181.416L92.76 182.046Z" fill="#677285"/>
<path d="M100.815 183.76L101.969 186.96C101.969 186.96 100.074 188.427 97.4568 188.835C94.8393 189.244 93.0358 188.616 93.0358 188.616C93.0358 188.616 92.5631 187.664 93.4539 187.257C93.863 187.07 94.7799 186.293 95.5849 185.298C95.9483 184.849 97.3173 183.882 97.3173 183.882L100.815 183.76Z" fill="#677285"/>
<path d="M109.087 122.213C109.087 122.213 110.6 124.515 111.528 123.899C112.456 123.283 118.25 117.344 118.25 117.344C118.25 117.344 119.974 116.018 120.292 116.333C120.611 116.648 119.718 117.344 119.718 117.344C119.718 117.344 121.598 117.529 122.186 117.529C122.773 117.529 124.01 118.467 123.201 118.783C122.393 119.099 119.258 119.177 119.258 119.177C119.258 119.177 114.498 128.178 112.018 128.816C109.537 129.455 106.12 125.845 106.12 125.845L109.087 122.213Z" fill="#FDE7E6"/>
<path d="M84.9043 122.377C84.9043 122.377 83.9119 124.409 83.0126 123.921C82.1133 123.434 77.0676 118.112 77.0676 118.112C77.0676 118.112 75.3872 117.083 74.9763 117.268C74.5654 117.454 75.5784 118.112 75.5784 118.112C75.5784 118.112 73.1062 118.313 72.6411 118.5C72.1761 118.687 71.6344 119.26 72.3375 119.521C73.0407 119.781 75.7324 119.967 75.7324 119.967C75.7324 119.967 79.4742 127.361 82.3092 128.225C85.1442 129.09 87.5594 125.683 87.5594 125.683L84.9043 122.377Z" fill="#FDE7E6"/>
<path d="M94.0836 116.154V112.521C94.0836 112.521 92.2 112.616 91.4344 111.355C90.6687 110.094 90.4619 106.514 90.4619 106.514L91.0388 104.855L96.7122 104.615L99.6927 107.155L98.305 109.606L98.0404 110.077L99.3632 115.648L94.0836 116.154Z" fill="#FDE7E6"/>
<mask id="mask2_1_22583" style="mask-type:luminance" maskUnits="userSpaceOnUse" x="90" y="104" width="10" height="13">
<path d="M94.0836 116.154V112.521C94.0836 112.521 92.2 112.616 91.4344 111.355C90.6687 110.094 90.4619 106.514 90.4619 106.514L91.0388 104.855L96.7122 104.615L99.6927 107.155L98.305 109.606L98.0404 110.077L99.3632 115.648L94.0836 116.154Z" fill="white"/>
</mask>
<g mask="url(#mask2_1_22583)">
<path d="M97.7735 109.068C96.0968 111.154 93.1969 112.611 92.8193 112.611C92.4417 112.611 94.9279 115.226 94.9279 115.226L96.9506 116.154L99.8216 115.545L100.846 112.611L99.0372 109.282C99.0372 109.282 99.4501 106.983 97.7735 109.068Z" fill="url(#paint7_linear_1_22583)"/>
</g>
<path d="M83.6982 123.836L86.4862 127.592L88.2643 125.714C88.2643 125.714 86.912 133.129 86.4862 136.685C86.0604 140.241 85.9813 143.783 85.9813 143.783C85.9813 143.783 90.4455 145.44 93.7734 145.719C97.1012 145.998 104.848 145.28 104.848 145.28L103.848 124.408L106.75 127.102L110.157 123.168C110.157 123.168 104.292 114.155 103.183 113.63C102.074 113.105 98.9908 113.63 98.9908 113.63C98.9908 113.63 96.803 116.219 95.9159 116.255C95.0287 116.292 93.0608 113.63 93.0608 113.63C93.0608 113.63 89.9168 113.128 89.0026 114.155C88.0884 115.182 83.6982 123.836 83.6982 123.836Z" fill="url(#paint8_linear_1_22583)"/>
<path d="M90.4618 106.555C90.4618 106.555 91.1304 104.868 92.0032 105.162C92.8291 105.44 93.5445 106.102 94.5721 106.413C95.5996 106.724 95.7132 105.328 96.4114 105.564C97.1097 105.799 96.6488 107.853 97.141 108.235C97.6331 108.618 97.6331 105.564 98.6823 106.386C99.7315 107.208 97.5877 109.522 97.5877 109.522C97.5877 109.522 97.8625 110.945 97.9506 111.041C98.0387 111.138 98.0287 110.006 98.0287 110.006C98.0287 110.006 99.0307 109.622 99.4577 107.887C99.8847 106.152 100.069 105.461 99.4577 104.201C98.8461 102.94 98.6717 101.953 97.141 101.359C95.6102 100.764 94.4487 100.996 93.3789 101.359C92.309 101.721 91.5336 102.44 91.0388 103.156C89.8849 104.855 90.4618 106.555 90.4618 106.555Z" fill="#4D364F"/>
<path fill-rule="evenodd" clip-rule="evenodd" d="M193.616 62.06C192.4 62.4317 167.229 77.492 167.229 77.492L174.575 78.0397L179.794 83.8085C179.794 83.8085 194.832 61.6884 193.616 62.06Z" fill="#E8EAEB"/>
<mask id="mask3_1_22583" style="mask-type:luminance" maskUnits="userSpaceOnUse" x="167" y="62" width="27" height="22">
<path fill-rule="evenodd" clip-rule="evenodd" d="M193.616 62.06C192.4 62.4317 167.229 77.492 167.229 77.492L174.575 78.0397L179.794 83.8085C179.794 83.8085 194.832 61.6884 193.616 62.06Z" fill="white"/>
</mask>
<g mask="url(#mask3_1_22583)">
<path fill-rule="evenodd" clip-rule="evenodd" d="M174.575 78.0398L193.616 62.0601L179.794 83.8086L174.575 78.0398Z" fill="#D8DFE6"/>
</g>
<path fill-rule="evenodd" clip-rule="evenodd" d="M189.836 79.5109L181.009 78.5883L193.626 62.215L189.836 79.5109Z" fill="#E8EAEB"/>
<path fill-rule="evenodd" clip-rule="evenodd" d="M173.585 90.42C174.136 89.2529 174.691 88.0449 175.251 86.7959L176.163 87.2045C175.601 88.4596 175.043 89.6738 174.489 90.8472L173.585 90.42ZM169.994 97.5405C170.603 96.416 171.217 95.2383 171.837 94.0073L172.73 94.4567C172.106 95.6967 171.487 96.8834 170.873 98.017L169.994 97.5405ZM168.033 101.004C167.322 102.201 166.619 103.324 165.922 104.371L166.755 104.925C167.461 103.863 168.174 102.726 168.893 101.514L168.033 101.004ZM161.043 110.602C161.886 109.727 162.742 108.728 163.61 107.606L164.401 108.219C163.511 109.368 162.632 110.394 161.763 111.296L161.043 110.602ZM158.106 113.185C156.937 114.023 155.799 114.602 154.692 114.926L154.973 115.886C156.194 115.529 157.433 114.898 158.689 113.998L158.106 113.185ZM147.64 113.291C148.739 114.178 149.857 114.758 150.995 115.038L150.756 116.009C149.47 115.693 148.221 115.044 147.012 114.069L147.64 113.291ZM144.944 110.451C144.882 110.37 144.82 110.288 144.758 110.204C143.953 109.121 143.368 108.093 142.995 107.121L142.062 107.48C142.469 108.541 143.099 109.648 143.955 110.801C144.02 110.888 144.084 110.973 144.149 111.058L144.944 110.451ZM144.705 100.391C143.624 101.283 142.93 102.308 142.646 103.45L141.676 103.209C142.014 101.846 142.831 100.642 144.068 99.6203L144.705 100.391ZM148.046 98.5125C149.171 98.0731 150.436 97.7148 151.808 97.4443L151.615 96.4632C150.187 96.7447 148.865 97.1191 147.682 97.581L148.046 98.5125ZM159.637 96.8718C158.307 96.8245 156.981 96.8464 155.69 96.9373L155.62 95.9398C156.946 95.8464 158.307 95.8238 159.673 95.8724L159.637 96.8718ZM163.618 97.2227C164.958 97.4135 166.255 97.675 167.48 98.0026L167.738 97.0366C166.474 96.6984 165.138 96.429 163.759 96.2327L163.618 97.2227ZM174.513 101.298C173.598 100.554 172.483 99.8855 171.195 99.305L171.606 98.3934C172.969 99.0078 174.158 99.72 175.144 100.522L174.513 101.298ZM176.897 104.302C177.138 104.862 177.292 105.446 177.358 106.053C177.426 106.696 177.45 107.342 177.429 107.991L178.429 108.024C178.451 107.328 178.426 106.636 178.352 105.947C178.276 105.239 178.096 104.558 177.815 103.906L176.897 104.302ZM175.294 115.442C175.938 114.228 176.436 113.026 176.789 111.838L177.748 112.123C177.375 113.377 176.851 114.639 176.178 115.91L175.294 115.442ZM173.177 118.785C172.438 119.793 171.601 120.808 170.668 121.832L171.407 122.505C172.363 121.456 173.222 120.414 173.983 119.377L173.177 118.785ZM164.924 127.243C165.986 126.364 166.98 125.49 167.906 124.622L168.59 125.352C167.648 126.234 166.639 127.121 165.562 128.013L164.924 127.243ZM161.773 129.719C160.746 130.488 159.667 131.261 158.538 132.038L159.105 132.861C160.245 132.077 161.334 131.297 162.373 130.519L161.773 129.719ZM153.104 135.568C153.814 135.13 154.509 134.694 155.188 134.259L155.728 135.101C155.043 135.54 154.343 135.979 153.628 136.419L153.104 135.568Z" fill="#C7D0D9"/>
<defs>
<radialGradient id="paint0_radial_1_22583" cx="0" cy="0" r="1" gradientUnits="userSpaceOnUse" gradientTransform="translate(130.111 201.392) rotate(-90) scale(51.3403 536.198)">
<stop stop-color="#EBEDF0" stop-opacity="0.24"/>
<stop offset="0.536775" stop-color="#EBEDF0" stop-opacity="0.845525"/>
<stop offset="1" stop-color="#E0E4E7" stop-opacity="0.01"/>
</radialGradient>
<linearGradient id="paint1_linear_1_22583" x1="113.461" y1="232.835" x2="115.864" y2="237.972" gradientUnits="userSpaceOnUse">
<stop stop-color="#E1E7EA"/>
<stop offset="1" stop-color="#D0D6DC"/>
</linearGradient>
<linearGradient id="paint2_linear_1_22583" x1="189.845" y1="203.594" x2="194.241" y2="212.763" gradientUnits="userSpaceOnUse">
<stop stop-color="#E1E7EA"/>
<stop offset="1" stop-color="#D0D6DC"/>
</linearGradient>
<linearGradient id="paint3_linear_1_22583" x1="50.7703" y1="186.123" x2="53.2577" y2="196.032" gradientUnits="userSpaceOnUse">
<stop stop-color="#FBFBFB"/>
<stop offset="1" stop-color="#D9DFE3"/>
</linearGradient>
<linearGradient id="paint4_linear_1_22583" x1="112.401" y1="191.622" x2="121.277" y2="231.424" gradientUnits="userSpaceOnUse">
<stop stop-color="#C4CDD1"/>
<stop offset="1" stop-color="#C6CFD3" stop-opacity="0.01"/>
</linearGradient>
<linearGradient id="paint5_linear_1_22583" x1="85.5883" y1="195.628" x2="95.8841" y2="222.498" gradientUnits="userSpaceOnUse">
<stop stop-color="#C4CDD1"/>
<stop offset="1" stop-color="#C6CFD3" stop-opacity="0.01"/>
</linearGradient>
<linearGradient id="paint6_linear_1_22583" x1="105.786" y1="184.85" x2="104.318" y2="142.831" gradientUnits="userSpaceOnUse">
<stop stop-color="#A1A7B8"/>
<stop offset="1" stop-color="#7B8195"/>
</linearGradient>
<linearGradient id="paint7_linear_1_22583" x1="98.568" y1="113.714" x2="98.568" y2="110.194" gradientUnits="userSpaceOnUse">
<stop stop-color="#FBD8D6"/>
<stop offset="1" stop-color="#EAC0BE" stop-opacity="0.7"/>
</linearGradient>
<linearGradient id="paint8_linear_1_22583" x1="70.3132" y1="128.175" x2="98.1311" y2="157.52" gradientUnits="userSpaceOnUse">
<stop stop-color="#E5E9F0"/>
<stop offset="1" stop-color="#D2DAE8"/>
</linearGradient>
</defs>
</svg>
