<svg width="671" height="416" viewBox="0 0 671 416" fill="none" xmlns="http://www.w3.org/2000/svg">
<path d="M463.237 416H457.647C407.206 414.676 358.98 394.978 322.009 360.597C321.367 360.03 320.725 359.462 320.12 358.857C319.025 357.836 317.967 356.815 316.91 355.719L316.23 355.038C314.984 353.79 313.737 352.542 312.453 351.256L309.771 348.344L281.291 318.392C280.347 319.376 279.365 320.321 278.345 321.267C255.144 342.729 226.302 357.11 195.213 362.717C164.125 368.324 132.084 364.923 102.861 352.915C73.6378 340.907 48.4483 320.792 30.2569 294.936C12.0655 269.08 1.62899 238.559 0.175637 206.965C-1.27771 175.372 6.31253 144.02 22.0532 116.599C37.7938 89.1783 61.0298 66.8296 89.0269 52.183C117.024 37.5364 148.617 31.2013 180.088 33.9232C211.56 36.6452 241.6 48.3109 266.674 67.5476C270.37 48.8065 280.458 31.9347 295.211 19.8203C309.963 7.70585 328.463 1.10216 347.543 1.13964H348.374C363.222 1.25562 377.758 5.42676 390.413 13.2035C428.619 -1.11719 470.19 -3.85852 509.942 5.32142C549.693 14.5014 585.865 35.1962 613.946 64.8247C641.912 94.3298 660.624 131.397 667.765 171.44C674.907 211.483 670.165 252.743 654.126 290.116C638.088 327.488 611.456 359.331 577.528 381.706C543.6 404.08 503.864 416.004 463.237 416Z" fill="#D4F4F2"/>
</svg>
