<svg width="12" height="10" viewBox="0 0 12 10" fill="none" xmlns="http://www.w3.org/2000/svg">
<path d="M3.96 9.47003C4.80457 9.47535 5.64179 9.31291 6.4231 8.99216C7.20441 8.67141 7.91425 8.19871 8.51147 7.6015C9.10868 7.00429 9.58137 6.29444 9.90213 5.51313C10.2229 4.73182 10.3853 3.8946 10.38 3.05003V2.75503C10.8178 2.43428 11.1967 2.04012 11.5 1.59003C11.0878 1.77033 10.6516 1.88991 10.205 1.94503C10.6785 1.66292 11.0337 1.21887 11.205 0.695033C10.7638 0.959753 10.2799 1.14585 9.775 1.24503C9.43496 0.882716 8.985 0.642561 8.49473 0.561726C8.00446 0.480891 7.50122 0.563883 7.06287 0.79786C6.62452 1.03184 6.27549 1.40376 6.0698 1.85607C5.86411 2.30839 5.81322 2.81588 5.925 3.30003C5.02801 3.25601 4.15036 3.02354 3.34918 2.61779C2.548 2.21203 1.84127 1.64207 1.275 0.945033C0.989461 1.44062 0.902913 2.0262 1.03288 2.58319C1.16285 3.14019 1.49962 3.62699 1.975 3.94503C1.62431 3.93151 1.28173 3.83559 0.975 3.66503V3.69003C0.971884 4.20795 1.14636 4.71129 1.46935 5.11617C1.79234 5.52104 2.24434 5.803 2.75 5.91503C2.42382 6.00276 2.08215 6.01643 1.75 5.95503C1.89639 6.39673 2.17584 6.78232 2.55002 7.05893C2.9242 7.33553 3.3748 7.48961 3.84 7.50003C3.04461 8.1403 2.05605 8.49272 1.035 8.50003C0.855977 8.49485 0.677374 8.47983 0.5 8.45503C1.53348 9.11348 2.7346 9.46063 3.96 9.45503" fill="#1C1B1F"/>
</svg>
