<svg width="30" height="28" viewBox="0 0 30 28" fill="none" xmlns="http://www.w3.org/2000/svg">
<path d="M24.7666 8.2V5.33333H21.9V3.33333H24.7666V0.433334H26.7666V3.33333H29.6666V5.33333H26.7666V8.2H24.7666ZM2.1333 27.3333C1.59997 27.3333 1.1333 27.1333 0.733301 26.7333C0.333301 26.3333 0.133301 25.8667 0.133301 25.3333V8.23334C0.133301 7.72222 0.333301 7.26111 0.733301 6.85C1.1333 6.43889 1.59997 6.23334 2.1333 6.23334H7.0333L9.46663 3.33333H18.8V5.33333H10.4L7.96664 8.23334H2.1333V25.3333H24.8V11.3333H26.8V25.3333C26.8 25.8667 26.5944 26.3333 26.1833 26.7333C25.7722 27.1333 25.3111 27.3333 24.8 27.3333H2.1333ZM13.4666 22.4667C15.0666 22.4667 16.4111 21.9222 17.5 20.8333C18.5889 19.7444 19.1333 18.3889 19.1333 16.7667C19.1333 15.1667 18.5889 13.8278 17.5 12.75C16.4111 11.6722 15.0666 11.1333 13.4666 11.1333C11.8444 11.1333 10.4944 11.6722 9.41664 12.75C8.33886 13.8278 7.79997 15.1667 7.79997 16.7667C7.79997 18.3889 8.33886 19.7444 9.41664 20.8333C10.4944 21.9222 11.8444 22.4667 13.4666 22.4667ZM13.4666 20.4667C12.4 20.4667 11.5222 20.1167 10.8333 19.4167C10.1444 18.7167 9.79997 17.8333 9.79997 16.7667C9.79997 15.7222 10.1444 14.8556 10.8333 14.1667C11.5222 13.4778 12.4 13.1333 13.4666 13.1333C14.5111 13.1333 15.3833 13.4778 16.0833 14.1667C16.7833 14.8556 17.1333 15.7222 17.1333 16.7667C17.1333 17.8333 16.7833 18.7167 16.0833 19.4167C15.3833 20.1167 14.5111 20.4667 13.4666 20.4667Z" fill="#79747E"/>
</svg>
