<svg width="64" height="64" viewBox="0 0 64 64" fill="none" xmlns="http://www.w3.org/2000/svg">
<mask id="mask0_7477_6863" style="mask-type:alpha" maskUnits="userSpaceOnUse" x="0" y="0" width="64" height="64">
<rect width="64" height="64" fill="#D9D9D9"/>
</mask>
<g mask="url(#mask0_7477_6863)">
<path d="M32.0089 56C28.6901 56 25.5699 55.3702 22.6483 54.1107C19.7266 52.8512 17.1852 51.1418 15.0239 48.9826C12.8627 46.8234 11.1518 44.2844 9.89107 41.3655C8.63036 38.4465 8 35.3277 8 32.0089C8 28.6901 8.62976 25.5699 9.88927 22.6483C11.1488 19.7266 12.8582 17.1852 15.0174 15.0239C17.1766 12.8627 19.7156 11.1518 22.6345 9.89107C25.5535 8.63036 28.6723 8 31.9911 8C35.3099 8 38.4301 8.62976 41.3517 9.88927C44.2734 11.1488 46.8148 12.8582 48.9761 15.0174C51.1373 17.1766 52.8482 19.7156 54.1089 22.6345C55.3696 25.5535 56 28.6723 56 31.9911C56 35.3099 55.3702 38.4301 54.1107 41.3517C52.8512 44.2734 51.1418 46.8148 48.9826 48.9761C46.8234 51.1373 44.2844 52.8482 41.3655 54.1089C38.4465 55.3696 35.3277 56 32.0089 56ZM32 53.3333C37.9111 53.3333 42.9444 51.2556 47.1 47.1C51.2556 42.9444 53.3333 37.9111 53.3333 32C53.3333 26.0889 51.2556 21.0556 47.1 16.9C42.9444 12.7444 37.9111 10.6667 32 10.6667C26.0889 10.6667 21.0556 12.7444 16.9 16.9C12.7444 21.0556 10.6667 26.0889 10.6667 32C10.6667 37.9111 12.7444 42.9444 16.9 47.1C21.0556 51.2556 26.0889 53.3333 32 53.3333ZM36.5128 28.4L37.8974 27.6C37.747 28.4957 37.9641 29.2821 38.5487 29.959C39.1334 30.6359 39.8906 30.9743 40.8205 30.9743C41.6468 30.9743 42.349 30.6852 42.9273 30.1069C43.5057 29.5285 43.7949 28.8262 43.7949 28C43.7949 27.4017 43.6308 26.8538 43.3026 26.3564C42.9744 25.859 42.5265 25.5009 41.959 25.2821L44.1539 24.0257L43.1282 22.2051L35.4872 26.5641L36.5128 28.4ZM27.4872 28.4L28.5128 26.5641L20.8718 22.2051L19.8461 24.0257L22.041 25.2821C21.4735 25.5009 21.0256 25.859 20.6974 26.3564C20.3692 26.8538 20.2051 27.4017 20.2051 28C20.2051 28.8262 20.4943 29.5285 21.0727 30.1069C21.651 30.6852 22.3532 30.9743 23.1795 30.9743C24.1094 30.9743 24.8666 30.6359 25.4513 29.959C26.0359 29.2821 26.253 28.4957 26.1026 27.6L27.4872 28.4ZM32.0113 34.6667C29.2926 34.6667 26.8957 35.5239 24.8205 37.2385C22.7453 38.953 21.253 41.1043 20.3436 43.6923H43.6564C42.747 41.1043 41.2585 38.953 39.1908 37.2385C37.1231 35.5239 34.7299 34.6667 32.0113 34.6667Z" fill="#1C1B1F"/>
</g>
</svg>
