<svg width="28" height="28" viewBox="0 0 28 28" fill="none" xmlns="http://www.w3.org/2000/svg">
<path d="M9.19984 20.6667L13.9998 15.8667L18.7998 20.6667L20.6665 18.8001L15.8665 14.0001L20.6665 9.20008L18.7998 7.33341L13.9998 12.1334L9.19984 7.33341L7.33317 9.20008L12.1332 14.0001L7.33317 18.8001L9.19984 20.6667ZM13.9998 27.3334C12.1554 27.3334 10.4221 26.9832 8.79984 26.2827C7.17762 25.5832 5.7665 24.6334 4.5665 23.4334C3.3665 22.2334 2.41673 20.8223 1.71717 19.2001C1.01673 17.5779 0.666504 15.8445 0.666504 14.0001C0.666504 12.1556 1.01673 10.4223 1.71717 8.80008C2.41673 7.17786 3.3665 5.76675 4.5665 4.56675C5.7665 3.36675 7.17762 2.41653 8.79984 1.71608C10.4221 1.01653 12.1554 0.666748 13.9998 0.666748C15.8443 0.666748 17.5776 1.01653 19.1998 1.71608C20.8221 2.41653 22.2332 3.36675 23.4332 4.56675C24.6332 5.76675 25.5829 7.17786 26.2825 8.80008C26.9829 10.4223 27.3332 12.1556 27.3332 14.0001C27.3332 15.8445 26.9829 17.5779 26.2825 19.2001C25.5829 20.8223 24.6332 22.2334 23.4332 23.4334C22.2332 24.6334 20.8221 25.5832 19.1998 26.2827C17.5776 26.9832 15.8443 27.3334 13.9998 27.3334ZM13.9998 24.6667C16.9776 24.6667 19.4998 23.6334 21.5665 21.5667C23.6332 19.5001 24.6665 16.9779 24.6665 14.0001C24.6665 11.0223 23.6332 8.50008 21.5665 6.43341C19.4998 4.36675 16.9776 3.33341 13.9998 3.33341C11.0221 3.33341 8.49984 4.36675 6.43317 6.43341C4.3665 8.50008 3.33317 11.0223 3.33317 14.0001C3.33317 16.9779 4.3665 19.5001 6.43317 21.5667C8.49984 23.6334 11.0221 24.6667 13.9998 24.6667Z" fill="#60757C"/>
</svg>
