<svg width="16" height="18" viewBox="0 0 16 18" fill="none" xmlns="http://www.w3.org/2000/svg">
<path d="M2.16667 17.3334C1.70833 17.3334 1.31583 17.1704 0.989167 16.8442C0.663055 16.5176 0.5 16.1251 0.5 15.6667V4.00008C0.5 3.54175 0.663055 3.14953 0.989167 2.82341C1.31583 2.49675 1.70833 2.33341 2.16667 2.33341H3V0.666748H4.66667V2.33341H11.3333V0.666748H13V2.33341H13.8333C14.2917 2.33341 14.6842 2.49675 15.0108 2.82341C15.3369 3.14953 15.5 3.54175 15.5 4.00008V15.6667C15.5 16.1251 15.3369 16.5176 15.0108 16.8442C14.6842 17.1704 14.2917 17.3334 13.8333 17.3334H2.16667ZM2.16667 15.6667H13.8333V7.33342H2.16667V15.6667ZM2.16667 5.66675H13.8333V4.00008H2.16667V5.66675ZM8 10.6667C7.76389 10.6667 7.56611 10.5867 7.40667 10.4267C7.24667 10.2673 7.16667 10.0695 7.16667 9.83342C7.16667 9.5973 7.24667 9.39925 7.40667 9.23925C7.56611 9.0798 7.76389 9.00008 8 9.00008C8.23611 9.00008 8.43417 9.0798 8.59417 9.23925C8.75361 9.39925 8.83333 9.5973 8.83333 9.83342C8.83333 10.0695 8.75361 10.2673 8.59417 10.4267C8.43417 10.5867 8.23611 10.6667 8 10.6667ZM4.66667 10.6667C4.43056 10.6667 4.2325 10.5867 4.0725 10.4267C3.91306 10.2673 3.83333 10.0695 3.83333 9.83342C3.83333 9.5973 3.91306 9.39925 4.0725 9.23925C4.2325 9.0798 4.43056 9.00008 4.66667 9.00008C4.90278 9.00008 5.10083 9.0798 5.26083 9.23925C5.42028 9.39925 5.5 9.5973 5.5 9.83342C5.5 10.0695 5.42028 10.2673 5.26083 10.4267C5.10083 10.5867 4.90278 10.6667 4.66667 10.6667ZM11.3333 10.6667C11.0972 10.6667 10.8994 10.5867 10.74 10.4267C10.58 10.2673 10.5 10.0695 10.5 9.83342C10.5 9.5973 10.58 9.39925 10.74 9.23925C10.8994 9.0798 11.0972 9.00008 11.3333 9.00008C11.5694 9.00008 11.7672 9.0798 11.9267 9.23925C12.0867 9.39925 12.1667 9.5973 12.1667 9.83342C12.1667 10.0695 12.0867 10.2673 11.9267 10.4267C11.7672 10.5867 11.5694 10.6667 11.3333 10.6667ZM8 14.0001C7.76389 14.0001 7.56611 13.9201 7.40667 13.7601C7.24667 13.6006 7.16667 13.4029 7.16667 13.1667C7.16667 12.9306 7.24667 12.7329 7.40667 12.5734C7.56611 12.4134 7.76389 12.3334 8 12.3334C8.23611 12.3334 8.43417 12.4134 8.59417 12.5734C8.75361 12.7329 8.83333 12.9306 8.83333 13.1667C8.83333 13.4029 8.75361 13.6006 8.59417 13.7601C8.43417 13.9201 8.23611 14.0001 8 14.0001ZM4.66667 14.0001C4.43056 14.0001 4.2325 13.9201 4.0725 13.7601C3.91306 13.6006 3.83333 13.4029 3.83333 13.1667C3.83333 12.9306 3.91306 12.7329 4.0725 12.5734C4.2325 12.4134 4.43056 12.3334 4.66667 12.3334C4.90278 12.3334 5.10083 12.4134 5.26083 12.5734C5.42028 12.7329 5.5 12.9306 5.5 13.1667C5.5 13.4029 5.42028 13.6006 5.26083 13.7601C5.10083 13.9201 4.90278 14.0001 4.66667 14.0001ZM11.3333 14.0001C11.0972 14.0001 10.8994 13.9201 10.74 13.7601C10.58 13.6006 10.5 13.4029 10.5 13.1667C10.5 12.9306 10.58 12.7329 10.74 12.5734C10.8994 12.4134 11.0972 12.3334 11.3333 12.3334C11.5694 12.3334 11.7672 12.4134 11.9267 12.5734C12.0867 12.7329 12.1667 12.9306 12.1667 13.1667C12.1667 13.4029 12.0867 13.6006 11.9267 13.7601C11.7672 13.9201 11.5694 14.0001 11.3333 14.0001Z" fill="#313B3F"/>
</svg>
