<svg width="24" height="22" viewBox="0 0 24 22" fill="none" xmlns="http://www.w3.org/2000/svg">
<path d="M11.9999 21.4708L10.8041 20.3917C8.74297 18.5056 7.04158 16.8771 5.69992 15.5063C4.35825 14.1354 3.28881 12.9104 2.49159 11.8313C1.69436 10.7521 1.13534 9.77501 0.814502 8.90001C0.493668 8.02501 0.333252 7.14029 0.333252 6.24584C0.333252 4.49584 0.921446 3.03265 2.09784 1.85626C3.27422 0.679869 4.7277 0.0916748 6.45825 0.0916748C7.56659 0.0916748 8.59228 0.354175 9.53533 0.879175C10.4784 1.40417 11.2999 2.16251 11.9999 3.15417C12.8166 2.10417 13.6819 1.33126 14.5958 0.835425C15.5096 0.339591 16.4916 0.0916748 17.5416 0.0916748C19.2721 0.0916748 20.7256 0.679869 21.902 1.85626C23.0784 3.03265 23.6666 4.49584 23.6666 6.24584C23.6666 7.14029 23.5062 8.02501 23.1853 8.90001C22.8645 9.77501 22.3055 10.7521 21.5083 11.8313C20.711 12.9104 19.6416 14.1354 18.2999 15.5063C16.9583 16.8771 15.2569 18.5056 13.1958 20.3917L11.9999 21.4708ZM11.9999 19.1667C13.9638 17.3583 15.5826 15.8076 16.8562 14.5146C18.1298 13.2215 19.1409 12.0889 19.8895 11.1167C20.6381 10.1445 21.1631 9.27917 21.4645 8.52084C21.7659 7.76251 21.9166 7.00417 21.9166 6.24584C21.9166 4.96251 21.5083 3.90765 20.6916 3.08126C19.8749 2.25487 18.8249 1.84167 17.5416 1.84167C16.5499 1.84167 15.6263 2.14792 14.7708 2.76042C13.9152 3.37292 13.2249 4.23334 12.6999 5.34167H11.2708C10.7652 4.25279 10.0846 3.39723 9.22908 2.77501C8.37353 2.15279 7.44992 1.84167 6.45825 1.84167C5.17492 1.84167 4.12492 2.25487 3.30825 3.08126C2.49159 3.90765 2.08325 4.96251 2.08325 6.24584C2.08325 7.00417 2.23395 7.76737 2.53534 8.53542C2.83672 9.30348 3.36172 10.1785 4.11034 11.1604C4.85895 12.1424 5.87492 13.275 7.15825 14.5583C8.44158 15.8417 10.0555 17.3778 11.9999 19.1667Z" fill="black"/>
</svg>
