<svg width="64" height="64" viewBox="0 0 64 64" fill="none" xmlns="http://www.w3.org/2000/svg">
<mask id="mask0_7477_6871" style="mask-type:alpha" maskUnits="userSpaceOnUse" x="0" y="0" width="64" height="64">
<rect width="64" height="64" fill="#D9D9D9"/>
</mask>
<g mask="url(#mask0_7477_6871)">
<path d="M32.0667 55.1333C27.2735 50.3299 23.3239 46.2889 20.2179 43.0103C17.1119 39.7316 14.6538 36.8957 12.8436 34.5025C11.0333 32.1094 9.77349 30.0034 9.06407 28.1846C8.35469 26.3658 8 24.5265 8 22.6667C8 18.9495 9.29293 15.798 11.8788 13.2121C14.4646 10.6263 17.6161 9.33333 21.3333 9.33333C23.0352 9.33333 24.6803 9.62306 26.2687 10.2025C27.8571 10.782 29.2991 11.6239 30.5949 12.7282L26.2051 28H34.359L32.3487 49.5128L40.5128 22.6667H32.4103L36.3743 10.7897C37.3208 10.3043 38.3146 9.94015 39.3557 9.69739C40.3967 9.45468 41.4662 9.33333 42.5641 9.33333C46.2813 9.33333 49.4328 10.6263 52.0187 13.2121C54.6045 15.798 55.8975 18.9495 55.8975 22.6667C55.8975 24.5607 55.5146 26.4478 54.7487 28.3282C53.9829 30.2086 52.6752 32.3735 50.8257 34.8231C48.9761 37.2727 46.5265 40.1171 43.4769 43.3564C40.4274 46.5957 36.624 50.5214 32.0667 55.1333ZM29.8461 49.0923L31.5538 30.6667H22.6769L27.5231 13.7487C26.5726 13.2564 25.5731 12.8419 24.5244 12.5051C23.4757 12.1684 22.412 12 21.3333 12C18.3873 12 15.873 13.0413 13.7905 15.1238C11.7079 17.2063 10.6667 19.7206 10.6667 22.6667C10.6667 24.1128 10.9735 25.6102 11.5872 27.159C12.2008 28.7077 13.2521 30.4966 14.741 32.5257C16.2299 34.5547 18.206 36.8983 20.6692 39.5564C23.1324 42.2145 26.1914 45.3932 29.8461 49.0923ZM35.4565 47.8923C42.0308 41.1265 46.6367 35.9214 49.2743 32.2769C51.912 28.6325 53.2308 25.4291 53.2308 22.6667C53.2308 19.7206 52.1895 17.2063 50.1069 15.1238C48.0244 13.0413 45.5101 12 42.5641 12C41.8701 12 41.1932 12.0761 40.5333 12.2282C39.8735 12.3803 39.2137 12.5624 38.5539 12.7743L36.1847 20H43.9693L35.4565 47.8923Z" fill="#1C1B1F"/>
</g>
</svg>
