<svg width="64" height="64" viewBox="0 0 64 64" fill="none" xmlns="http://www.w3.org/2000/svg">
<mask id="mask0_7477_6878" style="mask-type:alpha" maskUnits="userSpaceOnUse" x="0" y="0" width="64" height="64">
<rect width="64" height="64" fill="#D9D9D9"/>
</mask>
<g mask="url(#mask0_7477_6878)">
<path d="M42.2055 50.1025C42.7046 50.1025 43.1285 49.9282 43.4773 49.5795C43.826 49.2308 44.0003 48.8068 44.0003 48.3077C44.0003 47.8086 43.826 47.3846 43.4773 47.0359C43.1285 46.6872 42.7046 46.5128 42.2055 46.5128C41.7063 46.5128 41.2824 46.6872 40.9337 47.0359C40.5849 47.3846 40.4106 47.8086 40.4106 48.3077C40.4106 48.8068 40.5849 49.2308 40.9337 49.5795C41.2824 49.9282 41.7063 50.1025 42.2055 50.1025ZM48.0003 50.1025C48.4995 50.1025 48.9234 49.9282 49.2721 49.5795C49.6208 49.2308 49.7952 48.8068 49.7952 48.3077C49.7952 47.8086 49.6208 47.3846 49.2721 47.0359C48.9234 46.6872 48.4995 46.5128 48.0003 46.5128C47.5012 46.5128 47.0772 46.6872 46.7285 47.0359C46.3798 47.3846 46.2055 47.8086 46.2055 48.3077C46.2055 48.8068 46.3798 49.2308 46.7285 49.5795C47.0772 49.9282 47.5012 50.1025 48.0003 50.1025ZM53.7952 50.1025C54.2943 50.1025 54.7183 49.9282 55.067 49.5795C55.4157 49.2308 55.5901 48.8068 55.5901 48.3077C55.5901 47.8086 55.4157 47.3846 55.067 47.0359C54.7183 46.6872 54.2943 46.5128 53.7952 46.5128C53.296 46.5128 52.8721 46.6872 52.5234 47.0359C52.1747 47.3846 52.0003 47.8086 52.0003 48.3077C52.0003 48.8068 52.1747 49.2308 52.5234 49.5795C52.8721 49.9282 53.296 50.1025 53.7952 50.1025ZM14.9747 53.3333C13.7815 53.3333 12.7653 52.9137 11.9259 52.0744C11.0866 51.2351 10.667 50.2188 10.667 49.0257V14.9743C10.667 13.7812 11.0866 12.7649 11.9259 11.9256C12.7653 11.0863 13.7815 10.6667 14.9747 10.6667H49.026C50.2192 10.6667 51.2354 11.0863 52.0747 11.9256C52.914 12.7649 53.3337 13.7812 53.3337 14.9743V30.841C52.8653 30.6803 52.4174 30.5496 51.9901 30.4487C51.5627 30.3479 51.1217 30.2479 50.667 30.1487V14.9743C50.667 14.5641 50.4961 14.188 50.1542 13.8461C49.8123 13.5043 49.4362 13.3333 49.026 13.3333H14.9747C14.5644 13.3333 14.1884 13.5043 13.8465 13.8461C13.5046 14.188 13.3337 14.5641 13.3337 14.9743V49.0257C13.3337 49.4359 13.5046 49.812 13.8465 50.1539C14.1884 50.4957 14.5644 50.6667 14.9747 50.6667H30.0824C30.1473 51.1658 30.2302 51.6291 30.3311 52.0564C30.432 52.4838 30.5627 52.9094 30.7234 53.3333H14.9747ZM13.3337 50.6667V13.3333V30.1487V29.9487V50.6667ZM20.0003 43.3846H30.5593C30.6584 42.9299 30.7926 42.4889 30.9619 42.0615C31.1311 41.6342 31.308 41.1863 31.4927 40.7179H20.0003V43.3846ZM20.0003 33.3333H37.5491C38.4243 32.718 39.2866 32.1966 40.1362 31.7692C40.9858 31.3419 41.8978 31.0068 42.8721 30.7641V30.6667H20.0003V33.3333ZM20.0003 23.2821H44.0003V20.6154H20.0003V23.2821ZM48.0003 58.9744C45.0294 58.9744 42.5089 57.9394 40.4388 55.8693C38.3687 53.7992 37.3337 51.2786 37.3337 48.3077C37.3337 45.3367 38.3687 42.8162 40.4388 40.7461C42.5089 38.6761 45.0294 37.641 48.0003 37.641C50.9713 37.641 53.4918 38.6761 55.5619 40.7461C57.632 42.8162 58.667 45.3367 58.667 48.3077C58.667 51.2786 57.632 53.7992 55.5619 55.8693C53.4918 57.9394 50.9713 58.9744 48.0003 58.9744Z" fill="#1C1B1F"/>
</g>
</svg>
