<svg width="16" height="16" viewBox="0 0 16 16" fill="none" xmlns="http://www.w3.org/2000/svg">
<path d="M7.99976 15.5C6.96226 15.5 5.98726 15.303 5.07476 14.909C4.16226 14.5155 3.36851 13.9813 2.69351 13.3063C2.01851 12.6313 1.48426 11.8375 1.09076 10.925C0.696756 10.0125 0.499756 9.0375 0.499756 8C0.499756 6.9625 0.696756 5.9875 1.09076 5.075C1.48426 4.1625 2.01851 3.36875 2.69351 2.69375C3.36851 2.01875 4.16226 1.48425 5.07476 1.09025C5.98726 0.69675 6.96226 0.5 7.99976 0.5C9.03726 0.5 10.0123 0.69675 10.9248 1.09025C11.8373 1.48425 12.631 2.01875 13.306 2.69375C13.981 3.36875 14.5153 4.1625 14.9088 5.075C15.3028 5.9875 15.4998 6.9625 15.4998 8C15.4998 9.0375 15.3028 10.0125 14.9088 10.925C14.5153 11.8375 13.981 12.6313 13.306 13.3063C12.631 13.9813 11.8373 14.5155 10.9248 14.909C10.0123 15.303 9.03726 15.5 7.99976 15.5ZM7.24976 13.9625V12.5C6.83726 12.5 6.48426 12.3533 6.19076 12.0598C5.89676 11.7658 5.74976 11.4125 5.74976 11V10.25L2.14976 6.65C2.11226 6.875 2.07776 7.1 2.04626 7.325C2.01526 7.55 1.99976 7.775 1.99976 8C1.99976 9.5125 2.49676 10.8375 3.49076 11.975C4.48426 13.1125 5.73726 13.775 7.24976 13.9625ZM12.4248 12.05C12.6748 11.775 12.8998 11.478 13.0998 11.159C13.2998 10.8405 13.4655 10.5093 13.597 10.1653C13.728 9.82175 13.828 9.46875 13.897 9.10625C13.9655 8.74375 13.9998 8.375 13.9998 8C13.9998 6.775 13.6593 5.65625 12.9783 4.64375C12.2968 3.63125 11.3873 2.9 10.2498 2.45V2.75C10.2498 3.1625 10.103 3.5155 9.80951 3.809C9.51551 4.103 9.16226 4.25 8.74976 4.25H7.24976V5.75C7.24976 5.9625 7.17801 6.1405 7.03451 6.284C6.89051 6.428 6.71226 6.5 6.49976 6.5H4.99976V8H9.49976C9.71226 8 9.89051 8.07175 10.0345 8.21525C10.178 8.35925 10.2498 8.5375 10.2498 8.75V11H10.9998C11.3248 11 11.6185 11.0967 11.881 11.2902C12.1435 11.4842 12.3248 11.7375 12.4248 12.05Z" fill="black"/>
</svg>
