<svg width="15" height="17" viewBox="0 0 15 17" fill="none" xmlns="http://www.w3.org/2000/svg">
<path d="M6.63895 13.242L3.93549 10.5351L5.03972 9.42952L6.63895 11.0308L9.83741 7.82827L10.9416 8.9339L6.63895 13.242ZM2.10779 16.0251C1.68895 16.0251 1.33026 15.8759 1.03174 15.5776C0.733724 15.2787 0.584717 14.9195 0.584717 14.5001V3.82515C0.584717 3.40577 0.733724 3.04689 1.03174 2.7485C1.33026 2.4496 1.68895 2.30015 2.10779 2.30015H2.86933V0.775146H4.39241V2.30015H10.4847V0.775146H12.0078V2.30015H12.7693C13.1882 2.30015 13.5469 2.4496 13.8454 2.7485C14.1434 3.04689 14.2924 3.40577 14.2924 3.82515V14.5001C14.2924 14.9195 14.1434 15.2787 13.8454 15.5776C13.5469 15.8759 13.1882 16.0251 12.7693 16.0251H2.10779ZM2.10779 14.5001H12.7693V6.87515H2.10779V14.5001ZM2.10779 5.35015H12.7693V3.82515H2.10779V5.35015Z" fill="white"/>
</svg>
