<svg width="20" height="26" viewBox="0 0 20 26" fill="none" xmlns="http://www.w3.org/2000/svg">
<path d="M2.41675 25.8333C1.95008 25.8333 1.54175 25.6583 1.19175 25.3083C0.841748 24.9583 0.666748 24.55 0.666748 24.0833V9.23746C0.666748 8.77079 0.841748 8.36246 1.19175 8.01246C1.54175 7.66246 1.95008 7.48746 2.41675 7.48746H7.34591V9.23746H2.41675V24.0833H17.5834V9.23746H12.5959V7.48746H17.5834C18.0501 7.48746 18.4584 7.66246 18.8084 8.01246C19.1584 8.36246 19.3334 8.77079 19.3334 9.23746V24.0833C19.3334 24.55 19.1584 24.9583 18.8084 25.3083C18.4584 25.6583 18.0501 25.8333 17.5834 25.8333H2.41675ZM9.09591 16.8791V3.54996L6.52925 6.11663L5.27508 4.86246L9.97091 0.166626L14.6667 4.86246L13.4126 6.11663L10.8459 3.54996V16.8791H9.09591Z" fill="black"/>
</svg>
