<svg width="64" height="64" viewBox="0 0 64 64" fill="none" xmlns="http://www.w3.org/2000/svg">
<mask id="mask0_7477_6856" style="mask-type:alpha" maskUnits="userSpaceOnUse" x="0" y="0" width="64" height="64">
<rect width="64" height="64" fill="#D9D9D9"/>
</mask>
<g mask="url(#mask0_7477_6856)">
<path d="M17.4872 42.6667H19.8461V42C19.8461 38.6393 21.0316 35.7735 23.4026 33.4026C25.7735 31.0316 28.6393 29.8461 32 29.8461C35.3607 29.8461 38.2265 31.0316 40.5974 33.4026C42.9684 35.7735 44.1539 38.6393 44.1539 42V42.6667H46.5128V42C46.5128 37.9616 45.1047 34.5332 42.2885 31.7148C39.4724 28.8964 36.0468 27.4872 32.0117 27.4872C27.9766 27.4872 24.547 28.8964 21.7231 31.7148C18.8992 34.5332 17.4872 37.9616 17.4872 42V42.6667ZM19.6513 23.6923C21.1658 23.3573 22.729 22.7316 24.341 21.8154C25.953 20.8991 27.2906 19.8615 28.3539 18.7025L26.5179 17.1949C25.629 18.1248 24.5068 18.9744 23.1513 19.7436C21.7957 20.5128 20.5196 21.0427 19.3231 21.3333L19.6513 23.6923ZM44.3487 23.6923L44.6769 21.3333C43.4462 21.0085 42.1616 20.4701 40.8231 19.7179C39.4846 18.9658 38.371 18.1248 37.4821 17.1949L35.6461 18.7025C36.7094 19.8273 38.047 20.8564 39.659 21.7897C41.271 22.7231 42.8342 23.3573 44.3487 23.6923ZM32.0089 56C28.6901 56 25.5699 55.3702 22.6483 54.1107C19.7266 52.8512 17.1852 51.1418 15.0239 48.9826C12.8627 46.8234 11.1518 44.2844 9.89107 41.3655C8.63036 38.4465 8 35.3277 8 32.0089C8 28.6901 8.62976 25.5699 9.88927 22.6483C11.1488 19.7266 12.8582 17.1852 15.0174 15.0239C17.1766 12.8627 19.7156 11.1518 22.6345 9.89107C25.5535 8.63036 28.6723 8 31.9911 8C35.3099 8 38.4301 8.62976 41.3517 9.88927C44.2734 11.1488 46.8148 12.8582 48.9761 15.0174C51.1373 17.1766 52.8482 19.7156 54.1089 22.6345C55.3696 25.5535 56 28.6723 56 31.9911C56 35.3099 55.3702 38.4301 54.1107 41.3517C52.8512 44.2734 51.1418 46.8148 48.9826 48.9761C46.8234 51.1373 44.2844 52.8482 41.3655 54.1089C38.4465 55.3696 35.3277 56 32.0089 56ZM32 53.3333C37.9556 53.3333 43 51.2667 47.1333 47.1333C51.2667 43 53.3333 37.9556 53.3333 32C53.3333 26.0444 51.2667 21 47.1333 16.8667C43 12.7333 37.9556 10.6667 32 10.6667C26.0444 10.6667 21 12.7333 16.8667 16.8667C12.7333 21 10.6667 26.0444 10.6667 32C10.6667 37.9556 12.7333 43 16.8667 47.1333C21 51.2667 26.0444 53.3333 32 53.3333Z" fill="#1C1B1F"/>
</g>
</svg>
