<svg width="43" height="43" viewBox="0 0 43 43" fill="none" xmlns="http://www.w3.org/2000/svg">
<path d="M31.2923 9.69079C29.4108 8.46362 28.052 6.50064 27.6284 4.21175C27.5368 3.71662 27.4867 3.2077 27.4867 2.6875H21.4799L21.4699 26.7597C21.3684 29.456 19.1509 31.6195 16.4309 31.6195C15.586 31.6195 14.79 31.4077 14.0893 31.0391C12.4823 30.193 11.3818 28.5083 11.3818 26.5704C11.3818 23.7864 13.6468 21.5213 16.4309 21.5213C16.9511 21.5213 17.4487 21.6065 17.9213 21.7545V15.6223C17.4337 15.5559 16.9373 15.5145 16.4309 15.5145C10.3351 15.5145 5.375 20.4746 5.375 26.5704C5.375 30.3108 7.24397 33.6213 10.0944 35.6219C11.8907 36.8829 14.0743 37.625 16.4309 37.625C22.5266 37.625 27.4867 32.6662 27.4867 26.5691V14.3626C29.842 16.0536 32.7288 17.0501 35.8438 17.0501V11.0433C34.1666 11.0433 32.6035 10.5444 31.2936 9.68954L31.2923 9.69079Z" fill="#313B3F"/>
</svg>
