<svg width="16" height="16" viewBox="0 0 16 16" fill="none" xmlns="http://www.w3.org/2000/svg">
<path d="M9.6875 15.05C9.4 15.3375 9.04375 15.4813 8.61875 15.4813C8.19375 15.4813 7.8375 15.3375 7.55 15.05L0.95 8.45C0.8125 8.3125 0.70325 8.15 0.62225 7.9625C0.54075 7.775 0.5 7.575 0.5 7.3625V2C0.5 1.5875 0.647 1.23425 0.941 0.94025C1.2345 0.64675 1.5875 0.5 2 0.5H7.3625C7.575 0.5 7.775 0.5405 7.9625 0.6215C8.15 0.703 8.3125 0.8125 8.45 0.95L15.05 7.56875C15.3375 7.85625 15.4813 8.20925 15.4813 8.62775C15.4813 9.04675 15.3375 9.4 15.05 9.6875L9.6875 15.05ZM8.61875 14L13.9813 8.6375L7.3625 2H2V7.3625L8.61875 14ZM3.875 5C4.1875 5 4.453 4.8905 4.6715 4.6715C4.8905 4.453 5 4.1875 5 3.875C5 3.5625 4.8905 3.297 4.6715 3.0785C4.453 2.8595 4.1875 2.75 3.875 2.75C3.5625 2.75 3.297 2.8595 3.0785 3.0785C2.8595 3.297 2.75 3.5625 2.75 3.875C2.75 4.1875 2.8595 4.453 3.0785 4.6715C3.297 4.8905 3.5625 5 3.875 5Z" fill="black"/>
</svg>
