<svg width="82" height="50" viewBox="0 0 82 50" fill="none" xmlns="http://www.w3.org/2000/svg">
<mask id="path-1-inside-1_7463_7701" fill="white">
<path d="M56.6102 50H55.9271C49.7629 49.8409 43.8694 47.4733 39.3513 43.341C39.2729 43.2728 39.1944 43.2046 39.1205 43.1319C38.9867 43.0092 38.8574 42.8864 38.7282 42.7546L38.6451 42.6728C38.4928 42.5228 38.3404 42.3728 38.1835 42.2183L37.8558 41.8683L34.3754 38.2683C34.26 38.3865 34.14 38.5001 34.0153 38.6138C31.18 41.1934 27.6554 42.9219 23.8562 43.5958C20.057 44.2697 16.1414 43.861 12.5702 42.4177C8.99896 40.9744 5.92066 38.5567 3.69757 35.449C1.47447 32.3413 0.199072 28.673 0.0214638 24.8756C-0.156144 21.0783 0.771427 17.3101 2.69502 14.0143C4.61862 10.7185 7.45819 8.03241 10.8796 6.272C14.301 4.51159 18.1619 3.75016 22.0078 4.07731C25.8538 4.40447 29.5249 5.8066 32.589 8.1187C33.0408 5.86617 34.2736 3.8383 36.0764 2.38224C37.8793 0.926184 40.14 0.132471 42.4717 0.136976H42.5732C44.3878 0.150915 46.1641 0.652255 47.7107 1.58696C52.3797 -0.134277 57.4599 -0.463765 62.3178 0.639594C67.1756 1.74295 71.5961 4.23032 75.0277 7.79143C78.4453 11.3377 80.7319 15.7929 81.6047 20.6058C82.4774 25.4186 81.8979 30.3778 79.9379 34.8697C77.9779 39.3615 74.7234 43.1889 70.5772 45.8781C66.431 48.5674 61.575 50.0004 56.6102 50Z"/>
</mask>
<path d="M56.6102 50H55.9271C49.7629 49.8409 43.8694 47.4733 39.3513 43.341C39.2729 43.2728 39.1944 43.2046 39.1205 43.1319C38.9867 43.0092 38.8574 42.8864 38.7282 42.7546L38.6451 42.6728C38.4928 42.5228 38.3404 42.3728 38.1835 42.2183L37.8558 41.8683L34.3754 38.2683C34.26 38.3865 34.14 38.5001 34.0153 38.6138C31.18 41.1934 27.6554 42.9219 23.8562 43.5958C20.057 44.2697 16.1414 43.861 12.5702 42.4177C8.99896 40.9744 5.92066 38.5567 3.69757 35.449C1.47447 32.3413 0.199072 28.673 0.0214638 24.8756C-0.156144 21.0783 0.771427 17.3101 2.69502 14.0143C4.61862 10.7185 7.45819 8.03241 10.8796 6.272C14.301 4.51159 18.1619 3.75016 22.0078 4.07731C25.8538 4.40447 29.5249 5.8066 32.589 8.1187C33.0408 5.86617 34.2736 3.8383 36.0764 2.38224C37.8793 0.926184 40.14 0.132471 42.4717 0.136976H42.5732C44.3878 0.150915 46.1641 0.652255 47.7107 1.58696C52.3797 -0.134277 57.4599 -0.463765 62.3178 0.639594C67.1756 1.74295 71.5961 4.23032 75.0277 7.79143C78.4453 11.3377 80.7319 15.7929 81.6047 20.6058C82.4774 25.4186 81.8979 30.3778 79.9379 34.8697C77.9779 39.3615 74.7234 43.1889 70.5772 45.8781C66.431 48.5674 61.575 50.0004 56.6102 50Z" fill="white"/>
<path d="M56.6102 50L56.6103 49H56.6102V50ZM55.9271 50L55.9013 50.9997L55.9142 51H55.9271V50ZM39.3513 43.341L40.0262 42.6031L40.0168 42.5945L40.0072 42.5861L39.3513 43.341ZM39.1205 43.1319L39.8222 42.4194L39.8095 42.4069L39.7963 42.3948L39.1205 43.1319ZM38.7282 42.7546L39.4422 42.0545L39.4361 42.0483L39.4298 42.0421L38.7282 42.7546ZM38.6451 42.6728L37.9435 43.3853L38.6451 42.6728ZM38.1835 42.2183L37.4536 42.9018L37.4674 42.9166L37.4819 42.9308L38.1835 42.2183ZM37.8558 41.8683L38.5857 41.1848L38.5803 41.1789L38.5747 41.1732L37.8558 41.8683ZM34.3754 38.2683L35.0943 37.5733L34.3789 36.8333L33.6599 37.5697L34.3754 38.2683ZM34.0153 38.6138L34.6883 39.3534L34.6891 39.3527L34.0153 38.6138ZM32.589 8.1187L31.9867 8.91694L33.2566 9.87521L33.5695 8.31534L32.589 8.1187ZM42.4717 0.136976L42.4698 1.13698H42.4717V0.136976ZM42.5732 0.136976L42.5809 -0.863024H42.5732V0.136976ZM47.7107 1.58696L47.1935 2.4428L47.6052 2.69164L48.0566 2.52523L47.7107 1.58696ZM75.0277 7.79143L74.3076 8.48532L74.3076 8.48535L75.0277 7.79143ZM56.6102 49H55.9271V51H56.6102V49ZM55.9529 49.0003C50.0277 48.8474 44.3651 46.5715 40.0262 42.6031L38.6764 44.0789C43.3737 48.375 49.4982 50.8344 55.9013 50.9997L55.9529 49.0003ZM40.0072 42.5861C39.9248 42.5145 39.8701 42.4666 39.8222 42.4194L38.4189 43.8444C38.5187 43.9427 38.621 44.0311 38.6954 44.0959L40.0072 42.5861ZM39.7963 42.3948C39.6709 42.2798 39.5553 42.1698 39.4422 42.0545L38.0141 43.4547C38.1596 43.6031 38.3025 43.7386 38.4448 43.869L39.7963 42.3948ZM39.4298 42.0421L39.3467 41.9603L37.9435 43.3853L38.0265 43.4672L39.4298 42.0421ZM39.3467 41.9603C39.343 41.9566 39.3362 41.9499 39.3325 41.9462C39.3242 41.9381 39.3336 41.9474 39.3253 41.9392C39.3246 41.9384 39.3225 41.9364 39.3218 41.9357C39.3159 41.9299 39.3241 41.938 39.3182 41.9322C39.3107 41.9248 39.2971 41.9114 39.2896 41.904C39.2738 41.8885 39.2982 41.9125 39.2825 41.897C39.28 41.8946 39.2814 41.8959 39.2789 41.8935C39.2751 41.8897 39.2809 41.8955 39.2771 41.8917C39.2709 41.8856 39.2815 41.896 39.2753 41.89C39.2633 41.8782 39.2802 41.8947 39.2682 41.8829C39.2507 41.8657 39.2785 41.8931 39.261 41.8759C39.2513 41.8663 39.2636 41.8784 39.2539 41.8688C39.2472 41.8623 39.2534 41.8684 39.2467 41.8618C39.2454 41.8605 39.2409 41.8561 39.2396 41.8548C39.2212 41.8367 39.2544 41.8693 39.236 41.8512C39.235 41.8503 39.2334 41.8487 39.2324 41.8477C39.2285 41.8439 39.1218 41.7388 39.1177 41.7347C39.0998 41.7171 39.1212 41.7382 39.1033 41.7205C39.0808 41.6984 39.1114 41.7285 39.0889 41.7064C39.0852 41.7027 39.0854 41.7029 39.0817 41.6993C39.0765 41.6942 39.0796 41.6972 39.0744 41.6922C39.0547 41.6727 39.0798 41.6974 39.06 41.6779C39.0195 41.638 39.0427 41.6609 39.0021 41.6209C38.9985 41.6174 38.9911 41.6101 38.9875 41.6066C38.9815 41.6006 38.979 41.5982 38.973 41.5922C38.9701 41.5894 38.9685 41.5879 38.9657 41.5851C38.9646 41.584 38.9631 41.5825 38.962 41.5815C38.9602 41.5797 38.962 41.5815 38.9602 41.5797C38.9599 41.5794 38.9596 41.5791 38.9593 41.5788C38.959 41.5785 38.9587 41.5782 38.9584 41.5779C38.9581 41.5776 38.9578 41.5773 38.9575 41.577C38.9572 41.5767 38.9569 41.5764 38.9566 41.5761C38.9558 41.5753 38.9555 41.5751 38.9547 41.5743C38.9517 41.5713 38.9541 41.5737 38.9511 41.5707C38.9498 41.5695 38.945 41.5647 38.9438 41.5635C38.874 41.4948 38.9551 41.5746 38.8851 41.5057L37.4819 42.9308C37.4823 42.9313 37.4888 42.9376 37.4892 42.938C37.4904 42.9392 37.4954 42.9441 37.4966 42.9453C37.5012 42.9498 37.4993 42.948 37.5039 42.9525C37.5268 42.975 37.4884 42.9372 37.5112 42.9597C37.5341 42.9823 37.5177 42.9661 37.5405 42.9886C37.5667 43.0144 37.5727 43.0202 37.5988 43.0459C37.6039 43.051 37.6227 43.0695 37.6278 43.0745C37.6381 43.0847 37.6464 43.0928 37.6567 43.103C37.6739 43.12 37.6539 43.1002 37.6712 43.1172C37.6798 43.1257 37.6698 43.1158 37.6784 43.1243C37.7043 43.1498 37.6561 43.1023 37.682 43.1279C37.6839 43.1297 37.6837 43.1296 37.6856 43.1314C37.6868 43.1326 37.6916 43.1373 37.6928 43.1385C37.6956 43.1413 37.6935 43.1393 37.6964 43.1421C37.6999 43.1455 37.6947 43.1404 37.6982 43.1438C37.6983 43.144 37.6999 43.1455 37.7 43.1456C37.7074 43.1529 37.6961 43.1418 37.7036 43.1491C37.7127 43.1581 37.6981 43.1437 37.7072 43.1527C37.7094 43.1548 37.7086 43.1541 37.7108 43.1562C37.7193 43.1647 37.7058 43.1513 37.7144 43.1598C37.7259 43.1711 37.8179 43.2617 37.8291 43.2728C37.8366 43.2801 37.8503 43.2936 37.8577 43.3009C37.8673 43.3103 37.8518 43.2951 37.8613 43.3045C37.8757 43.3186 37.8505 43.2938 37.8649 43.308C37.8751 43.318 37.8619 43.305 37.872 43.315C37.8734 43.3163 37.8743 43.3172 37.8756 43.3185C37.8774 43.3203 37.8774 43.3203 37.8792 43.3221C37.8797 43.3226 37.8858 43.3285 37.8863 43.3291C37.8995 43.3421 37.8803 43.3231 37.8935 43.3361C37.9041 43.3466 37.89 43.3327 37.9006 43.3432C37.9169 43.3592 37.8986 43.3411 37.9149 43.3572C37.9346 43.3766 37.9238 43.366 37.9435 43.3853L39.3467 41.9603ZM38.9134 41.5348L38.5857 41.1848L37.1258 42.5518L37.4536 42.9018L38.9134 41.5348ZM38.5747 41.1732L35.0943 37.5733L33.6564 38.9634L37.1368 42.5633L38.5747 41.1732ZM33.6599 37.5697C33.5624 37.6695 33.4575 37.7691 33.3416 37.8748L34.6891 39.3527C34.8224 39.2312 34.9575 39.1035 35.0909 38.967L33.6599 37.5697ZM33.3424 37.8741C30.6476 40.3258 27.2961 41.97 23.6815 42.6112L24.0308 44.5804C28.0146 43.8738 31.7123 42.0611 34.6883 39.3534L33.3424 37.8741ZM23.6815 42.6112C20.0669 43.2523 16.3417 42.8633 12.9449 41.4906L12.1955 43.3449C15.9412 44.8586 20.0471 45.2871 24.0308 44.5804L23.6815 42.6112ZM12.9449 41.4906C9.54817 40.1178 6.62258 37.8192 4.51089 34.8672L2.88424 36.0308C5.21875 39.2942 8.44974 41.8311 12.1955 43.3449L12.9449 41.4906ZM4.51089 34.8672C2.39931 31.9154 1.18893 28.4327 1.02037 24.8289L-0.977444 24.9224C-0.790783 28.9132 0.549623 32.7672 2.88424 36.0308L4.51089 34.8672ZM1.02037 24.8289C0.851819 21.2252 1.73198 17.6481 3.55868 14.5184L1.83136 13.5102C-0.189128 16.972 -1.16411 20.9315 -0.977444 24.9224L1.02037 24.8289ZM3.55868 14.5184C5.38547 11.3885 8.0835 8.83527 11.3371 7.1612L10.4221 5.3828C6.83289 7.22954 3.85176 10.0486 1.83136 13.5102L3.55868 14.5184ZM11.3371 7.1612C14.5909 5.48705 18.2637 4.76243 21.9231 5.07371L22.0926 3.08091C18.06 2.73788 14.0111 3.53612 10.4221 5.3828L11.3371 7.1612ZM21.9231 5.07371C25.5824 5.38499 29.0738 6.719 31.9867 8.91694L33.1913 7.32045C29.9759 4.89419 26.1252 3.42394 22.0926 3.08091L21.9231 5.07371ZM33.5695 8.31534C33.9749 6.29393 35.0818 4.47095 36.7048 3.1602L35.4481 1.60429C33.4654 3.20566 32.1067 5.4384 31.6085 7.92205L33.5695 8.31534ZM36.7048 3.1602C38.328 1.8492 40.3659 1.13291 42.4698 1.13697L42.4736 -0.863022C39.9142 -0.867967 37.4306 0.00317056 35.4481 1.60429L36.7048 3.1602ZM42.4717 1.13698H42.5732V-0.863024H42.4717V1.13698ZM42.5656 1.13695C44.2012 1.14951 45.8014 1.60146 47.1935 2.4428L48.228 0.731116C46.5269 -0.296955 44.5744 -0.847681 42.5809 -0.862995L42.5656 1.13695ZM48.0566 2.52523C52.5438 0.871012 57.4269 0.554211 62.0963 1.61476L62.5393 -0.33557C57.4929 -1.48174 52.2156 -1.13957 47.3648 0.648687L48.0566 2.52523ZM62.0963 1.61476C66.7656 2.67528 71.0123 5.06564 74.3076 8.48532L75.7478 7.09753C72.1798 3.395 67.5857 0.81062 62.5393 -0.33557L62.0963 1.61476ZM74.3076 8.48535C77.5894 11.8906 79.7834 16.1669 80.6207 20.7842L82.5886 20.4273C81.6804 15.419 79.3012 10.7848 75.7478 7.09751L74.3076 8.48535ZM80.6207 20.7842C81.458 25.4014 80.9022 30.1593 79.0214 34.4697L80.8545 35.2696C82.8936 30.5963 83.4968 25.4358 82.5886 20.4273L80.6207 20.7842ZM79.0214 34.4697C77.1405 38.7803 74.0163 42.4556 70.0331 45.0391L71.1214 46.7171C75.4306 43.9221 78.8154 39.9427 80.8545 35.2696L79.0214 34.4697ZM70.0331 45.0391C66.0497 47.6228 61.3829 49.0004 56.6103 49L56.6101 51C61.7671 51.0005 66.8123 49.512 71.1214 46.7171L70.0331 45.0391Z" fill="#31B7BC" mask="url(#path-1-inside-1_7463_7701)"/>
</svg>
