<svg width="621" height="401" viewBox="0 0 621 401" fill="none" xmlns="http://www.w3.org/2000/svg">
<path d="M416.957 360.696H416.971L416.985 360.696C460.06 360.596 501.384 343.74 531.906 313.748C562.435 283.749 579.67 243.045 579.771 200.529L579.771 200.5L579.771 200.471C579.67 157.955 562.435 117.251 531.906 87.2523C501.384 57.2603 460.06 40.4037 416.985 40.3044L416.971 40.3044H416.957H133.071C129.128 40.3044 125.388 38.7632 122.663 36.0853C119.945 33.4143 118.457 29.8369 118.457 26.1522C118.457 22.4674 119.945 18.89 122.663 16.2191C125.388 13.5412 129.128 12 133.071 12H416.957C523.018 12 609 96.7882 609 200.5C609 304.212 523.018 389 416.957 389H26.6143C18.4935 389 12 382.32 12 374.848C12 367.376 18.4935 360.696 26.6143 360.696H416.957Z" fill="#31B7BC" stroke="#F2FFFE" stroke-width="24"/>
</svg>
