<svg width="748" height="400" viewBox="0 0 748 400" fill="none" xmlns="http://www.w3.org/2000/svg">
<path d="M203.969 359.826H203.955L203.941 359.826C160.888 359.727 119.581 342.915 89.0676 312.996C58.5463 283.068 41.3107 242.456 41.2093 200.029L41.2092 200L41.2093 199.971C41.3107 157.544 58.5463 116.932 89.0676 87.0044C119.581 57.0847 160.888 40.2729 203.941 40.1739L203.955 40.1739H203.969H487.751C491.7 40.1739 495.44 38.6336 498.162 35.965C500.876 33.3041 502.356 29.7461 502.356 26.0869C502.356 22.4278 500.876 18.8697 498.162 16.209C495.44 13.5403 491.7 12 487.751 12H203.969C97.9239 12 12 96.5877 12 200C12 303.412 97.9239 388 203.969 388H721.395C729.535 388 736 381.325 736 373.913C736 366.501 729.535 359.826 721.395 359.826H203.969Z" fill="#31B7BC" stroke="#F2FFFE" stroke-width="24"/>
</svg>
