<svg width="351" height="348" viewBox="0 0 351 348" fill="none" xmlns="http://www.w3.org/2000/svg">
<path fill-rule="evenodd" clip-rule="evenodd" d="M173.82 26.718C256.356 26.718 323.269 93.7389 323.269 176.408C323.269 259.077 256.356 326.098 173.82 326.098C91.284 326.098 24.3708 259.077 24.3708 176.408C24.3708 93.7389 91.284 26.718 173.82 26.718Z" fill="#AFD0DD"/>
<path d="M316.497 206.336C332.998 128.444 283.333 51.9011 205.566 35.3731C127.799 18.845 51.38 68.5904 34.8785 146.482C18.3771 224.374 68.0424 300.917 145.809 317.445C223.576 333.973 299.995 284.228 316.497 206.336Z" fill="#DFEDF2"/>
<path fill-rule="evenodd" clip-rule="evenodd" d="M221.75 70.6154C222.278 69.4542 222.269 68.8811 222.89 67.8433C226.839 61.2271 237.291 64.5655 242.302 63.3222L243.746 67.6442C246.137 67.1848 247.341 66.0713 246.676 63.5776C245.463 59.0611 235.125 63.1983 232.587 59.0641C234.367 54.9234 243.059 57.916 246.461 58.79C248.935 59.4231 251.329 60.0477 253.606 60.737C256.038 61.471 258.984 63.0067 260.145 63.366C260.205 60.8439 259.502 56.4508 260.329 54.806C260.609 54.7183 260.898 54.6679 261.18 54.6452C251.595 47.8237 241.217 42.1433 230.272 37.75C229.756 38.1901 229.075 38.5355 228.292 38.7726C225.242 39.6771 223.857 37.9426 220.336 39.9697C218.563 40.986 216.247 43.0362 214.022 43.1845C214.511 42.6198 216.749 39.3195 216.97 38.6044C218.954 32.0668 209.846 38.5997 210.125 31.2472C204.539 29.8724 198.843 28.8227 193.075 28.1022C192.978 28.7899 193.233 29.714 193.9 31.031C195.302 33.7942 196.362 35.77 194.628 38.0973C193.207 40.0034 190.691 40.843 193.863 43.7665C196.204 45.9316 198.089 44.7731 201.642 43.9019C202.805 45.7506 203.096 47.5553 205.115 47.7787C207.52 48.035 208.832 47.7732 210.174 49.491C209.891 51.2911 208.861 52.066 208.648 54.4256C208.011 61.8698 209.664 61.3764 202.146 68.3183C204.23 69.6119 209.415 66.9585 211.566 70.7593C213.674 74.4783 208.923 76.135 206.191 78.015C201.87 80.9755 203.675 82.9577 206.695 85.9014C208.588 87.7468 211.334 91.2864 214.704 90.2334C215.839 88.5078 214.724 88.0074 217.228 86.7525C218.367 88.5541 220.122 89.3581 220.351 92.4831C220.507 94.5656 219.623 96.7197 219.373 98.6694C219.088 100.823 219.387 103.135 219.161 105.315C218.571 111.128 216.256 116.693 220.977 124.948C222.057 126.841 223.207 128.274 224.722 129.654C226.254 131.042 227.505 131.395 228.799 133.842C231.124 138.258 232.696 138.998 238.224 140.294C245.624 142.028 249.276 149.995 254.048 146.648C258.241 143.702 253.367 140.159 262.779 138.695C266.751 138.071 266.294 137.296 266.166 133.796C266.074 131.177 267.768 130.217 270.484 130.405C273.199 130.593 275.427 129.451 277.728 129.652C282.095 130.052 280.161 136.161 283.765 140.519C285.702 142.864 290.153 147.571 292.059 148.708C295.02 150.489 299.366 152.279 297.81 158.449C296.778 162.543 295.058 166.54 298.593 170.638C307.822 181.367 311.596 176.448 314.033 188.863C314.923 193.398 318.487 198.104 321.476 198.886C322.044 198.264 322.283 197.807 322.76 197.245C325.113 180.199 324.548 162.46 320.644 144.67C313.33 111.333 295.451 83.0595 271.297 62.5785L260.086 67.6128C260.639 69.1247 261.61 69.3298 262.989 69.6675C260.934 72.3137 260.163 76.233 254.04 74.0095C246.413 71.2402 248.929 75.51 243.903 76.5083C243.935 74.868 243.764 73.4942 243.024 71.9056C241.125 71.277 238.002 72.4457 236.402 73.3587C232.939 75.2946 226.305 81.0888 225.542 85.0456L221.245 86.3935C221.969 84.4577 224.074 83.1724 222.554 79.6905C221.451 77.1623 219.651 75.976 219.355 72.6044C220.757 71.6825 221.077 72.0697 221.714 70.6887L221.75 70.6154ZM25.2035 177.735C25.084 163.871 26.9018 150.274 30.4406 137.267C33.3116 136.676 36.6684 136.397 39.7243 134.746C43.958 132.458 51.1935 126.846 52.3523 123.743C48.0726 126.772 46.696 129.061 39.7711 129.548C38.9761 129.017 38.2831 128.058 37.4304 127.383C36.4547 129.061 36.7656 131.488 34.8176 132.242C33.7827 132.639 32.7602 132.498 31.9734 132.004C32.5389 130.181 33.1472 128.375 33.7831 126.576C36.6446 125.347 40.558 124.632 42.5985 123.348C52.1225 117.403 47.1375 115.256 48.8012 113.742C51.8365 112.056 52.854 115.505 53.7585 118.259C57.9067 117.663 62.8495 113.612 66.6698 115.505C65.5132 110.649 60.7696 103.419 67.9057 102.467C67.2475 100.834 67.5595 100.413 68.3494 98.959C68.8853 97.9528 68.5127 98.8709 68.776 97.9899L65.7639 98.6509C65.2499 97.3786 64.5563 96.6553 65.8185 95.9863C68.7706 94.3977 71.6639 96.7029 74.8248 96.2444C78.8956 95.6517 81.0314 92.0077 84.6399 90.4972C89.6792 88.3721 91.829 91.1541 95.9568 91.5942C99.8041 92.0044 105.645 87.7043 108.011 90.1643C105.856 93.6034 99.3576 91.3967 101.81 95.4974L105.219 95.3374C105.252 98.2833 104.822 98.8219 105.804 102.108C100.648 103.88 96.5748 102.735 91.4837 103.97C91.7078 101.543 92.8462 101.202 92.1245 98.3284L87.9445 100.683C87.9445 100.683 87.7954 100.598 87.7499 100.569C85.424 99.1846 82.5703 99.4972 80.4261 101.379C82.3452 104.12 82.633 104.005 83.565 107.955C84.8588 108.56 86.7073 108.364 86.1353 110.632C85.7628 112.086 84.5875 112.853 83.6863 113.979C82.5315 115.434 83.1635 116.472 80.7081 116.697C79.2232 116.827 77.4786 116.308 76.8224 115.577C76.4708 116.947 76.445 117.959 76.0312 119.344C74.9124 123.104 73.0807 126.708 75.6269 130.226C78.511 129.933 87.9811 126.3 91.3496 125.181C103.01 121.303 93.8519 117.38 93.1633 116.264C91.0483 112.808 92.8758 105.677 99.1289 105.22C102.082 105.003 103.587 107.286 105.538 107.198C109.699 107.016 108.864 104.638 109.246 102.216C112.146 101.161 112.748 103.551 114.783 104.855C117.834 106.812 124.341 105.254 128.063 107.351C130.921 108.958 130.499 109.116 132.311 112.142C134.192 111.86 135.032 111.166 136.705 112.014C137.833 112.577 138.872 113.329 138.902 115.308C137.59 116.642 133.731 117.724 131.3 117.944C128.243 118.222 127.675 116.165 126.515 113.675C124.566 114.364 123.197 115.619 121.635 116.406C119.109 117.679 117.345 116.001 116.672 118.344C115.828 121.274 115.411 125.024 114.514 127.834C117.117 127.328 117.569 124.393 121.481 123.731L122.633 126.484L127.906 124.948C128.079 126.987 127.125 128.882 126.224 129.89C124.131 132.244 123.643 131.267 121.763 130.19C114.155 131.546 118.34 136.651 117.755 142.307C117.451 145.261 115.177 145.421 115.484 148.189C116.006 152.948 114.611 150.393 113.033 153.548C114.273 155.811 116.237 154.949 115.537 159.846C115.208 162.153 114.287 164.197 114.871 166.8C115.854 171.106 119.619 174.827 121.244 179.736C119.243 179.653 117.904 178.783 116.783 177.893C111.598 173.765 109.848 174.71 104.875 178.742L105.035 180.719C96.1907 183.875 92.9875 189.373 95.5591 199.132C96.6661 203.345 99.7196 205.667 103.483 205.874C107.722 206.107 112.317 204.275 110.149 198.675C115.917 196.481 114.206 199.862 117.385 203.176C119.956 205.853 122.614 205.544 126.525 203.327C127.523 206.035 127.194 205.963 129.364 206.872C130.913 207.512 131.439 207.946 133.468 208.454C140.661 210.26 137.197 206.421 142.092 206.078C143.816 207.098 143.382 208.212 146.329 207.135C144.372 198.391 143.066 198.861 158.308 194.719C171.469 191.138 167.764 192.212 173.915 194.26C175.575 194.811 176.721 194.742 178.679 194.391C186.788 192.938 191.215 196.344 198.364 195.455C203.838 194.776 215.122 189.242 219.495 192.347C221.056 193.455 220.556 199.68 221.617 202.609C222.648 205.467 224.895 208.214 226.558 210.502C235.986 223.447 223.275 222.12 223.399 236.062C223.428 239.884 222.55 241.828 221.984 245.193C220.973 251.229 229.446 261.784 223.003 264.23C221.838 263.558 220.067 260.183 217.61 262.421C215.165 264.656 218.916 269.086 220.854 270.608C224.166 273.213 224.636 274.404 221.963 278.218L223.161 278.386C223.499 278.678 223.741 279.304 223.704 279.848C223.599 281.57 219.522 281.602 216.976 284.683C218.006 290.389 220.048 294.462 222.623 299.124C223.596 300.884 224.79 304.006 226.341 304.711C228.832 305.837 232.229 302.178 233.244 305.849C230.964 307.591 225.117 310.076 221.489 309.356C219.171 308.898 215.832 305.514 213.842 303.103L201.515 285.985C199.367 281.961 200.237 277.602 198.91 273.163C197.694 269.104 195.945 266.247 193.594 263.261C189.555 258.111 184.965 251.343 181.052 246.531C177.146 247.518 174.544 248.207 171.869 246.481C170.959 245.897 169.793 244.807 168.809 244.069C166.672 242.473 164.865 240.896 162.393 239.74C161.115 239.145 159.955 238.916 158.653 238.392C149.792 234.809 152.501 220.52 146.999 214.292C143.306 210.124 142.11 213 139.788 212.882C138.652 212.818 137.035 212.166 135.828 211.896C131.455 210.934 127.421 211.754 123.494 210.029C119.668 208.346 119.329 209.179 114.761 209.828C107.844 210.823 101.155 214.708 94.9055 214.943C88.1262 215.202 84.3064 211.35 80.4493 209.23C78.5802 208.202 67.7144 203.988 65.688 204.563C64.9617 210.707 74.238 211.899 76.761 215.906C68.737 217.628 68.2939 211.505 63.965 206.64C59.7174 201.849 54.2732 203.971 48.8938 201.454C44.3719 199.336 41.4123 192.328 39.1558 187.871C36.2239 182.059 32.4264 179.26 29.5472 174.521L29.4029 175.35C29.2985 176.836 29.5804 178.656 29.244 180.036C27.2832 180.375 25.8645 179.38 25.086 177.734L25.2035 177.735ZM35.234 122.664C36.8111 122.122 37.0695 120.981 38.4027 120.1C39.531 119.356 42.5427 119.466 44.8064 118.486C48.6862 116.785 46.3088 116.771 47.7193 114.162C48.6661 112.412 51.1835 112.291 51.0309 110.168C47.8072 108.498 47.7157 111.588 46.8511 113.059C44.7486 116.617 43.0155 112.345 41.3542 114.644C40.6525 115.608 41.3548 116.133 39.4092 116.482C38.4426 116.655 37.9419 116.752 37.6001 116.918C36.776 118.811 35.985 120.735 35.2465 122.661L35.234 122.664ZM43.5511 112.646C47.3262 113.203 46.8993 103.705 43.5268 111.227C42.8432 112.749 43.5511 112.646 43.5511 112.646ZM51.8829 101.684C52.848 102.753 53.5032 102.766 54.8984 101.989C56.8029 100.918 56.3192 100.854 58.0496 101.546L57.7734 99.6334C54.6835 99.8802 52.0842 98.974 51.8829 101.684ZM138.939 186.059C140.872 186.602 143.652 185.717 145.042 184.144C146.797 182.152 144.082 183.218 147.65 179.561C147.704 179.51 147.778 179.428 147.829 179.365L148.184 178.96C145.614 179.615 143.18 179.64 140.794 180.895C138.242 182.226 137.532 183.153 138.952 186.056L138.939 186.059ZM117.722 189.787C121.076 188.959 120.384 188.419 121.832 186.873C125.142 183.35 129.905 186.983 132.397 186.148C134.048 185.59 136.871 184.84 136.218 183.049C135.451 180.983 133.611 182.171 131.685 182.724C129.144 183.452 128.674 182.026 125.563 183.244C122.558 184.414 117.533 186.784 117.735 189.784L117.722 189.787ZM160.012 62.3932C160.567 61.4744 160.38 60.5615 161.081 59.5974C162.524 57.6083 167.958 57.2259 166.97 52.3073C165.477 52.5174 165.009 52.8815 163.494 52.7565C160.12 52.4779 160.159 54.0242 158.74 55.6424C157.579 56.9554 157.056 56.3516 155.531 57.1306C153.902 57.9715 151.559 60.315 153.948 61.3327C154.84 61.7119 158.75 62.2912 160.012 62.3932ZM186.969 65.86C187.382 64.2928 189.463 60.9352 189.071 59.7408C188.467 57.9394 187.666 59.9968 188.122 56.3686C188.321 54.8354 188.245 54.2509 188.178 52.6975C192.549 52.64 197.482 59.071 205.652 58.3106C205.809 60.9288 206.593 61.4101 205.061 63.1705C204.166 64.2033 202.535 65.3321 201.189 65.7974C197.272 67.1533 196.564 62.7353 194.411 61.2476C190.521 62.1275 194.195 64.9016 192.215 66.5776C190.798 67.7901 188.038 66.4487 186.982 65.8573L186.969 65.86ZM67.3754 86.9681C64.3291 88.0678 61.0026 89.5556 59.1061 91.3177C59.8901 94.1772 62.7501 93.5366 65.321 92.4105C68.8785 90.8459 69.491 91.3779 70.6579 94.7937C75.8668 93.9773 80.9337 93.5841 79.9879 89.0353L76.7236 89.9737C75.8286 89.0463 76.6333 89.5623 75.6723 89.1067C76.6141 84.1829 80.3359 83.9019 81.9902 78.7172C82.6628 76.6095 82.2456 74.1137 83.1156 72.1326C84.137 69.8308 86.2191 70.2233 86.5769 66.7996C80.3123 68.6317 80.2758 72.3899 75.2475 75.7539C70.4116 78.9843 65.3619 80.2884 67.3602 86.9584L67.3754 86.9681ZM89.2584 78.0108C92.2642 78.867 94.8572 73.6199 102.824 77.8825C111.852 82.6965 113.657 77.8444 115.262 77.427C116.793 80.9588 117.977 83.1426 120.414 84.62C121.53 85.303 126.422 87.5616 128.306 87.9452C132.153 88.7084 135.02 86.8509 135.08 83.5579C135.139 80.0821 132.392 76.1244 133.365 72.9448C133.791 71.5577 137.118 69.8345 139.395 67.0741C141.247 64.8122 142.655 62.7261 144.705 60.4731C146.155 58.8744 150.394 55.9579 150.735 54.3019C151.209 52.0026 146.498 49.3777 146.902 45.6303C148.206 44.56 150.513 44.7856 152.274 43.9547C154.296 43.0015 153.697 42.1138 154.114 39.9707C154.818 36.3404 159.981 36.2659 157.116 32.308C153.989 32.0273 150.493 37.799 149.006 39.4059C146.681 41.8892 146.3 39.9736 141.035 44.0429C140.7 44.2994 140.128 44.7254 139.796 44.8767C138.681 45.3828 138.496 45.1358 138.29 45.0895C137.418 43.1378 137.993 41.6528 138.21 39.7888C138.487 37.363 139.325 35.7154 138.897 34.4765C137.668 30.8391 133.029 36.5091 129.792 37.3369C127.668 37.8815 125.637 37.4255 124.011 38.8146C121.979 40.5542 123.738 42.5071 121.827 43.3707C118.479 44.8765 114.331 39.9457 112.395 46.525C111.148 50.7711 109.192 51.0698 104.151 52.8293C102.236 53.4978 100.795 54.4804 99.6323 55.6633L90.4224 67.3801C89.2871 69.341 87.9465 73.9342 88.4353 76.5188L89.2612 78.0233L89.2584 78.0108ZM71.5809 104.352L68.17 102.958L69.7442 107.16C74.8043 106.141 75.7705 107.928 77.7771 109.879C82.2817 106.447 72.8986 104.769 71.5809 104.352Z" fill="#AFD0DD"/>
</svg>
