<svg width="44" height="44" viewBox="0 0 44 44" fill="none" xmlns="http://www.w3.org/2000/svg">
<path d="M22 30.8833C24.5278 30.8833 26.6945 30.0257 28.5 28.3104C30.3056 26.5951 31.2083 24.4917 31.2083 22C31.2083 19.4361 30.3146 17.2604 28.5271 15.4729C26.7396 13.6854 24.5639 12.7917 22 12.7917C19.5083 12.7917 17.4049 13.6945 15.6896 15.5C13.9743 17.3056 13.1167 19.4722 13.1167 22C13.1167 24.4917 13.9743 26.5951 15.6896 28.3104C17.4049 30.0257 19.5083 30.8833 22 30.8833ZM22 24.1667C21.3861 24.1667 20.8715 23.959 20.4563 23.5438C20.041 23.1285 19.8333 22.6139 19.8333 22C19.8333 21.3861 20.041 20.8715 20.4563 20.4563C20.8715 20.041 21.3861 19.8333 22 19.8333C22.6139 19.8333 23.1285 20.041 23.5438 20.4563C23.959 20.8715 24.1667 21.3861 24.1667 22C24.1667 22.6139 23.959 23.1285 23.5438 23.5438C23.1285 23.959 22.6139 24.1667 22 24.1667ZM22 43.6667C19.0389 43.6667 16.2403 43.0979 13.6042 41.9604C10.9681 40.8229 8.66598 39.2701 6.69793 37.3021C4.72987 35.334 3.17709 33.032 2.03959 30.3958C0.902093 27.7597 0.333344 24.9611 0.333344 22C0.333344 19.0028 0.902093 16.1861 2.03959 13.55C3.17709 10.9139 4.72987 8.62084 6.69793 6.67084C8.66598 4.72084 10.9681 3.17709 13.6042 2.03959C16.2403 0.902093 19.0389 0.333344 22 0.333344C24.9972 0.333344 27.8139 0.902093 30.45 2.03959C33.0861 3.17709 35.3792 4.72084 37.3292 6.67084C39.2792 8.62084 40.8229 10.9139 41.9604 13.55C43.0979 16.1861 43.6667 19.0028 43.6667 22C43.6667 24.9611 43.0979 27.7597 41.9604 30.3958C40.8229 33.032 39.2792 35.334 37.3292 37.3021C35.3792 39.2701 33.0861 40.8229 30.45 41.9604C27.8139 43.0979 24.9972 43.6667 22 43.6667ZM22 40.4167C27.1278 40.4167 31.4792 38.6201 35.0542 35.0271C38.6292 31.434 40.4167 27.0917 40.4167 22C40.4167 16.8722 38.6292 12.5208 35.0542 8.94584C31.4792 5.37084 27.1278 3.58334 22 3.58334C16.9083 3.58334 12.566 5.37084 8.97293 8.94584C5.37987 12.5208 3.58334 16.8722 3.58334 22C3.58334 27.0917 5.37987 31.434 8.97293 35.0271C12.566 38.6201 16.9083 40.4167 22 40.4167Z" fill="black"/>
</svg>
