<svg width="33" height="44" viewBox="0 0 33 44" fill="none" xmlns="http://www.w3.org/2000/svg">
<path d="M11.3333 43.6667C10.1417 43.6667 9.12189 43.2427 8.274 42.3948C7.42467 41.5455 7 40.525 7 39.3333V37.1667C7 35.4695 7.3705 33.8986 8.1115 32.4542C8.85106 31.0097 9.81667 29.8 11.0083 28.825L9.70833 19.8333H4.83333C3.64167 19.8333 2.62117 19.4087 1.77183 18.5593C0.923944 17.7115 0.5 16.6917 0.5 15.5V6.83334C0.5 5.64168 0.923944 4.62118 1.77183 3.77184C2.62117 2.92395 3.64167 2.50001 4.83333 2.50001H15.6667V0.333344H24.3333V2.50001H33L28.9917 28.825C30.1833 29.8 31.1497 31.0097 31.8907 32.4542C32.6302 33.8986 33 35.4695 33 37.1667V39.3333C33 40.525 32.5761 41.5455 31.7282 42.3948C30.8788 43.2427 29.8583 43.6667 28.6667 43.6667H11.3333ZM9.05833 15.5L7.65 6.83334H4.83333V15.5H9.05833ZM20 37.1667C20.6139 37.1667 21.1288 36.9587 21.5448 36.5427C21.9594 36.1281 22.1667 35.6139 22.1667 35C22.1667 34.3861 21.9594 33.8719 21.5448 33.4573C21.1288 33.0413 20.6139 32.8333 20 32.8333C19.3861 32.8333 18.8719 33.0413 18.4573 33.4573C18.0413 33.8719 17.8333 34.3861 17.8333 35C17.8333 35.6139 18.0413 36.1281 18.4573 36.5427C18.8719 36.9587 19.3861 37.1667 20 37.1667ZM15.0167 26.3333H24.9833L27.9083 6.83334H12.0917L15.0167 26.3333ZM11.3333 39.3333H28.6667V37.1667C28.6667 35.3611 28.0347 33.8264 26.7708 32.5625C25.5069 31.2986 23.9722 30.6667 22.1667 30.6667H17.8333C16.0278 30.6667 14.4931 31.2986 13.2292 32.5625C11.9653 33.8264 11.3333 35.3611 11.3333 37.1667V39.3333Z" fill="black"/>
</svg>
