<svg width="48" height="45" viewBox="0 0 48 45" fill="none" xmlns="http://www.w3.org/2000/svg">
<path d="M0.333374 44.6667L11.1667 14.3333L30.6667 33.8333L0.333374 44.6667ZM7.48337 37.5167L22.7584 32.1L12.9 22.2417L7.48337 37.5167ZM27.525 24.1917L25.25 21.9167L37.3834 9.78333C38.5389 8.62778 39.9292 8.05 41.5542 8.05C43.1792 8.05 44.5695 8.62778 45.725 9.78333L47.025 11.0833L44.75 13.3583L43.45 12.0583C42.9445 11.5528 42.3125 11.3 41.5542 11.3C40.7959 11.3 40.1639 11.5528 39.6584 12.0583L27.525 24.1917ZM18.8584 15.525L16.5834 13.25L17.8834 11.95C18.3889 11.4444 18.6417 10.8306 18.6417 10.1083C18.6417 9.38611 18.3889 8.77222 17.8834 8.26667L16.475 6.85833L18.75 4.58333L20.1584 5.99167C21.3139 7.14722 21.8917 8.51945 21.8917 10.1083C21.8917 11.6972 21.3139 13.0694 20.1584 14.225L18.8584 15.525ZM23.1917 19.8583L20.9167 17.5833L28.7167 9.78333C29.2223 9.27778 29.475 8.64583 29.475 7.8875C29.475 7.12917 29.2223 6.49722 28.7167 5.99167L25.25 2.525L27.525 0.25L30.9917 3.71667C32.1473 4.87222 32.725 6.2625 32.725 7.8875C32.725 9.5125 32.1473 10.9028 30.9917 12.0583L23.1917 19.8583ZM31.8584 28.525L29.5834 26.25L33.05 22.7833C34.2056 21.6278 35.5959 21.05 37.2209 21.05C38.8459 21.05 40.2362 21.6278 41.3917 22.7833L44.8584 26.25L42.5834 28.525L39.1167 25.0583C38.6112 24.5528 37.9792 24.3 37.2209 24.3C36.4625 24.3 35.8306 24.5528 35.325 25.0583L31.8584 28.525Z" fill="black"/>
</svg>
