<svg width="48" height="40" viewBox="0 0 48 40" fill="none" xmlns="http://www.w3.org/2000/svg">
<path d="M8.45413 39.5C8.02079 39.5 7.64163 39.3375 7.31663 39.0125C6.99163 38.6875 6.82913 38.3083 6.82913 37.875V35.6H6.12496C4.46385 35.6 3.05551 35.0222 1.89996 33.8667C0.744404 32.7111 0.166626 31.3028 0.166626 29.6417V16.425C0.166626 14.5833 0.726348 13.184 1.84579 12.2271C2.96524 11.2701 4.28329 10.7917 5.79996 10.7917V6.13333C5.79996 4.47222 6.32357 3.11806 7.37079 2.07083C8.41801 1.02361 9.77218 0.5 11.4333 0.5H36.6208C38.2819 0.5 39.627 1.02361 40.6562 2.07083C41.6854 3.11806 42.2 4.47222 42.2 6.13333V10.7917C43.7166 10.7917 45.0347 11.2701 46.1541 12.2271C47.2736 13.184 47.8333 14.5833 47.8333 16.425V29.6417C47.8333 31.3028 47.2555 32.7111 46.1 33.8667C44.9444 35.0222 43.5361 35.6 41.875 35.6H41.1708V37.875C41.1708 38.3083 41.0083 38.6875 40.6833 39.0125C40.3583 39.3375 39.9791 39.5 39.5458 39.5C39.1125 39.5 38.7333 39.3375 38.4083 39.0125C38.0833 38.6875 37.9208 38.3083 37.9208 37.875V35.6H10.0791V37.875C10.0791 38.3083 9.91663 38.6875 9.59163 39.0125C9.26663 39.3375 8.88746 39.5 8.45413 39.5ZM6.12496 32.35H41.875C42.5972 32.35 43.2291 32.0792 43.7708 31.5375C44.3125 30.9958 44.5833 30.3639 44.5833 29.6417V16.425C44.5833 15.7028 44.3666 15.125 43.9333 14.6917C43.5 14.2583 42.9222 14.0417 42.2 14.0417C41.4777 14.0417 40.9 14.2583 40.4666 14.6917C40.0333 15.125 39.8166 15.7028 39.8166 16.425V25.9583H8.18329V16.425C8.18329 15.7028 7.96663 15.125 7.53329 14.6917C7.09996 14.2583 6.52218 14.0417 5.79996 14.0417C5.07774 14.0417 4.49996 14.2583 4.06663 14.6917C3.63329 15.125 3.41663 15.7028 3.41663 16.425V29.6417C3.41663 30.3639 3.68746 30.9958 4.22913 31.5375C4.77079 32.0792 5.40274 32.35 6.12496 32.35ZM11.4333 22.7083H36.5666V16.425C36.5666 15.3056 36.8194 14.3757 37.325 13.6354C37.8305 12.8951 38.3722 12.3083 38.95 11.875V6.13333C38.95 5.41111 38.7333 4.83333 38.3 4.4C37.8666 3.96667 37.2888 3.75 36.5666 3.75H11.4333C10.7111 3.75 10.1333 3.96667 9.69996 4.4C9.26663 4.83333 9.04996 5.41111 9.04996 6.13333V11.875C9.62774 12.3083 10.1694 12.8951 10.675 13.6354C11.1805 14.3757 11.4333 15.3056 11.4333 16.425V22.7083Z" fill="black"/>
</svg>
