<svg width="44" height="36" viewBox="0 0 44 36" fill="none" xmlns="http://www.w3.org/2000/svg">
<path d="M1.95831 35.3333C1.19998 35.3333 0.694423 34.9722 0.441645 34.25C0.188867 33.5278 0.369423 32.9139 0.983312 32.4083L20.375 17.1875V14.2083C20.375 13.775 20.5284 13.3958 20.8354 13.0708C21.1423 12.7458 21.5125 12.5833 21.9458 12.5833C23.1736 12.6194 24.2118 12.2132 25.0604 11.3646C25.909 10.516 26.3333 9.47778 26.3333 8.25001C26.3333 7.05834 25.909 6.0382 25.0604 5.18959C24.2118 4.34098 23.1916 3.91667 22 3.91667C20.8083 3.91667 19.7882 4.34098 18.9396 5.18959C18.0909 6.0382 17.6666 7.05834 17.6666 8.25001H14.4166C14.4166 6.15556 15.1569 4.36806 16.6375 2.88751C18.118 1.40695 19.9055 0.666672 22 0.666672C24.0944 0.666672 25.8819 1.38889 27.3625 2.83334C28.843 4.27778 29.5833 6.04723 29.5833 8.14167C29.5833 9.91112 29.0236 11.4819 27.9041 12.8542C26.7847 14.2264 25.3583 15.1653 23.625 15.6708V17.1875L43.0166 32.4083C43.6305 32.9139 43.8111 33.5278 43.5583 34.25C43.3055 34.9722 42.8 35.3333 42.0416 35.3333H1.95831ZM6.83331 32.0833H37.1666L22 20.0042L6.83331 32.0833Z" fill="black"/>
</svg>
