<svg width="40" height="40" viewBox="0 0 40 40" fill="none" xmlns="http://www.w3.org/2000/svg">
<path d="M25.6333 18.8083C24.9472 18.8083 24.3694 18.5736 23.9 18.1042C23.4306 17.6347 23.1958 17.0569 23.1958 16.3708C23.1958 15.6847 23.4306 15.1069 23.9 14.6375C24.3694 14.1681 24.9472 13.9333 25.6333 13.9333C26.3194 13.9333 26.8972 14.1681 27.3667 14.6375C27.8361 15.1069 28.0708 15.6847 28.0708 16.3708C28.0708 17.0569 27.8361 17.6347 27.3667 18.1042C26.8972 18.5736 26.3194 18.8083 25.6333 18.8083ZM14.3125 18.8083C13.6264 18.8083 13.0486 18.5736 12.5792 18.1042C12.1097 17.6347 11.875 17.0569 11.875 16.3708C11.875 15.6847 12.1097 15.1069 12.5792 14.6375C13.0486 14.1681 13.6264 13.9333 14.3125 13.9333C14.9986 13.9333 15.5764 14.1681 16.0458 14.6375C16.5153 15.1069 16.75 15.6847 16.75 16.3708C16.75 17.0569 16.5153 17.6347 16.0458 18.1042C15.5764 18.5736 14.9986 18.8083 14.3125 18.8083ZM20 30.5083C17.9778 30.5083 16.1361 29.9667 14.475 28.8833C12.8139 27.8 11.5139 26.3736 10.575 24.6042H29.425C28.4861 26.3736 27.1861 27.8 25.525 28.8833C23.8639 29.9667 22.0222 30.5083 20 30.5083ZM20 39.5C17.3278 39.5 14.809 38.9854 12.4438 37.9563C10.0785 36.9271 8.01111 35.5278 6.24167 33.7583C4.47222 31.9889 3.07292 29.9215 2.04375 27.5563C1.01458 25.191 0.5 22.6722 0.5 20C0.5 17.3278 1.01458 14.809 2.04375 12.4438C3.07292 10.0785 4.47222 8.01111 6.24167 6.24167C8.01111 4.47222 10.0785 3.07292 12.4438 2.04375C14.809 1.01458 17.3278 0.5 20 0.5C22.6722 0.5 25.191 1.01458 27.5563 2.04375C29.9215 3.07292 31.9889 4.47222 33.7583 6.24167C35.5278 8.01111 36.9271 10.0785 37.9563 12.4438C38.9854 14.809 39.5 17.3278 39.5 20C39.5 22.6722 38.9854 25.191 37.9563 27.5563C36.9271 29.9215 35.5278 31.9889 33.7583 33.7583C31.9889 35.5278 29.9215 36.9271 27.5563 37.9563C25.191 38.9854 22.6722 39.5 20 39.5ZM20 36.25C24.4417 36.25 28.2604 34.6701 31.4563 31.5104C34.6521 28.3507 36.25 24.55 36.25 20.1083C36.25 15.6667 34.6792 11.7847 31.5375 8.4625C28.3958 5.14028 24.5139 3.47917 19.8917 3.47917H18.9167C18.6639 3.47917 18.3389 3.49722 17.9417 3.53333C17.8694 3.82222 17.8062 4.16528 17.7521 4.5625C17.6979 4.95972 17.6708 5.30278 17.6708 5.59167C17.6708 6.49444 17.9687 7.24375 18.5646 7.83958C19.1604 8.43542 19.9097 8.73333 20.8125 8.73333C21.2458 8.73333 21.6069 8.70625 21.8958 8.65208C22.1847 8.59792 22.4556 8.57083 22.7083 8.57083C23.0694 8.57083 23.3764 8.66111 23.6292 8.84167C23.8819 9.02222 24.0083 9.29306 24.0083 9.65417C24.0083 10.2319 23.7375 10.6743 23.1958 10.9813C22.6542 11.2882 21.8597 11.4417 20.8125 11.4417C19.1514 11.4417 17.7611 10.8819 16.6417 9.7625C15.5222 8.64306 14.9625 7.25278 14.9625 5.59167C14.9625 5.41111 14.9715 5.17639 14.9896 4.8875C15.0076 4.59861 15.0528 4.36389 15.125 4.18333C11.8389 5.375 9.12153 7.36111 6.97292 10.1417C4.82431 12.9222 3.75 16.1722 3.75 19.8917C3.75 24.3333 5.34792 28.1701 8.54375 31.4021C11.7396 34.634 15.5583 36.25 20 36.25Z" fill="black"/>
</svg>
