<svg width="44" height="48" viewBox="0 0 44 48" fill="none" xmlns="http://www.w3.org/2000/svg">
<path d="M6.34581 37C4.6847 37 3.26734 36.4132 2.09373 35.2396C0.920118 34.066 0.333313 32.6486 0.333313 30.9875C0.333313 29.3264 0.920118 27.909 2.09373 26.7354C3.26734 25.5618 4.6847 24.975 6.34581 24.975C7.71803 24.975 8.96387 25.3542 10.0833 26.1125C11.2028 26.8708 11.9069 27.9 12.1958 29.2H25.1958C25.4847 26.6 26.5139 24.3521 28.2833 22.4563C30.0528 20.5604 32.2375 19.3778 34.8375 18.9083L31.425 3.41667H22.8666V0.166672H30.7208C31.6958 0.166672 32.5715 0.455561 33.3479 1.03334C34.1243 1.61112 34.6208 2.36945 34.8375 3.30834L38.8458 21.5083H37.6541C35.0541 21.5083 32.8333 22.4382 30.9916 24.2979C29.15 26.1576 28.2291 28.3875 28.2291 30.9875V32.45H12.1958C11.9069 33.8222 11.2028 34.9236 10.0833 35.7542C8.96387 36.5847 7.71803 37 6.34581 37ZM6.34581 33.75C7.10415 33.75 7.75415 33.4792 8.29581 32.9375C8.83748 32.3958 9.10831 31.7458 9.10831 30.9875C9.10831 30.2292 8.83748 29.5792 8.29581 29.0375C7.75415 28.4958 7.10415 28.225 6.34581 28.225C5.58748 28.225 4.93748 28.4958 4.39581 29.0375C3.85415 29.5792 3.58331 30.2292 3.58331 30.9875C3.58331 31.7458 3.85415 32.3958 4.39581 32.9375C4.93748 33.4792 5.58748 33.75 6.34581 33.75ZM37.6541 37C35.993 37 34.5757 36.4132 33.4021 35.2396C32.2285 34.066 31.6416 32.6486 31.6416 30.9875C31.6416 29.3264 32.2285 27.909 33.4021 26.7354C34.5757 25.5618 35.993 24.975 37.6541 24.975C39.3153 24.975 40.7326 25.5618 41.9062 26.7354C43.0798 27.909 43.6666 29.3264 43.6666 30.9875C43.6666 32.6486 43.0798 34.066 41.9062 35.2396C40.7326 36.4132 39.3153 37 37.6541 37ZM37.6541 33.75C38.4125 33.75 39.0625 33.4792 39.6041 32.9375C40.1458 32.3958 40.4166 31.7458 40.4166 30.9875C40.4166 30.2292 40.1458 29.5792 39.6041 29.0375C39.0625 28.4958 38.4125 28.225 37.6541 28.225C36.8958 28.225 36.2458 28.4958 35.7041 29.0375C35.1625 29.5792 34.8916 30.2292 34.8916 30.9875C34.8916 31.7458 35.1625 32.3958 35.7041 32.9375C36.2458 33.4792 36.8958 33.75 37.6541 33.75ZM24.3291 47.8333L11.925 41.4958H20.05V37.2167L32.4541 43.6083H24.3291V47.8333Z" fill="black"/>
</svg>
