<svg width="44" height="44" viewBox="0 0 44 44" fill="none" xmlns="http://www.w3.org/2000/svg">
<path d="M25.7908 43.4502L23.5158 41.1752L31.2075 33.4835L10.5158 12.7919L2.82413 20.4835L0.549133 18.2085L3.58247 15.0669L0.549133 12.0335L5.1533 7.42937L2.8783 5.15437L5.1533 2.87937L7.48247 5.1002L12.0325 0.550201L15.0658 3.58354L18.2075 0.550201L20.4825 2.8252L12.7908 10.5169L33.4825 31.2085L41.1741 23.5169L43.4491 25.7919L40.4158 28.9335L43.4491 31.9669L38.7908 36.6252L41.0658 38.9002L38.7908 41.1752L36.5158 38.9002L31.9658 43.4502L28.9325 40.4169L25.7908 43.4502Z" fill="black"/>
</svg>
