<svg width="52" height="38" viewBox="0 0 52 38" fill="none" xmlns="http://www.w3.org/2000/svg">
<path d="M3.0875 37.3333C2.22083 37.3333 1.48958 37.0174 0.89375 36.3854C0.297917 35.7535 0 34.9861 0 34.0833H7.6375C6.77083 34.0833 6.0125 33.7583 5.3625 33.1083C4.7125 32.4583 4.3875 31.7 4.3875 30.8333V3.75C4.3875 2.88333 4.7125 2.125 5.3625 1.475C6.0125 0.825 6.77083 0.5 7.6375 0.5H44.3625C45.2292 0.5 45.9875 0.825 46.6375 1.475C47.2875 2.125 47.6125 2.88333 47.6125 3.75V30.8333C47.6125 31.7 47.2875 32.4583 46.6375 33.1083C45.9875 33.7583 45.2292 34.0833 44.3625 34.0833H52C52 34.9861 51.684 35.7535 51.0521 36.3854C50.4201 37.0174 49.6528 37.3333 48.75 37.3333H3.0875ZM26 36.1417C26.5056 36.1417 26.9389 35.9611 27.3 35.6C27.6611 35.2389 27.8417 34.8056 27.8417 34.3C27.8417 33.7944 27.6611 33.3611 27.3 33C26.9389 32.6389 26.5056 32.4583 26 32.4583C25.4944 32.4583 25.0611 32.6389 24.7 33C24.3389 33.3611 24.1583 33.7944 24.1583 34.3C24.1583 34.8056 24.3389 35.2389 24.7 35.6C25.0611 35.9611 25.4944 36.1417 26 36.1417ZM7.6375 30.8333H44.3625V3.75H7.6375V30.8333Z" fill="black"/>
</svg>
