<svg width="40" height="48" viewBox="0 0 40 48" fill="none" xmlns="http://www.w3.org/2000/svg">
<path d="M10.25 30.3333C10.8639 30.3333 11.3788 30.1253 11.7948 29.7093C12.2094 29.2948 12.4167 28.7806 12.4167 28.1667C12.4167 27.5528 12.2094 27.0378 11.7948 26.6218C11.3788 26.2073 10.8639 26 10.25 26C9.63611 26 9.12117 26.2073 8.70517 26.6218C8.29061 27.0378 8.08333 27.5528 8.08333 28.1667C8.08333 28.7806 8.29061 29.2948 8.70517 29.7093C9.12117 30.1253 9.63611 30.3333 10.25 30.3333ZM16.75 30.3333C17.3639 30.3333 17.8788 30.1253 18.2948 29.7093C18.7094 29.2948 18.9167 28.7806 18.9167 28.1667C18.9167 27.5528 18.7094 27.0378 18.2948 26.6218C17.8788 26.2073 17.3639 26 16.75 26C16.1361 26 15.6219 26.2073 15.2073 26.6218C14.7913 27.0378 14.5833 27.5528 14.5833 28.1667C14.5833 28.7806 14.7913 29.2948 15.2073 29.7093C15.6219 30.1253 16.1361 30.3333 16.75 30.3333ZM23.25 30.3333C23.8639 30.3333 24.3788 30.1253 24.7948 29.7093C25.2094 29.2948 25.4167 28.7806 25.4167 28.1667C25.4167 27.5528 25.2094 27.0378 24.7948 26.6218C24.3788 26.2073 23.8639 26 23.25 26C22.6361 26 22.1219 26.2073 21.7073 26.6218C21.2913 27.0378 21.0833 27.5528 21.0833 28.1667C21.0833 28.7806 21.2913 29.2948 21.7073 29.7093C22.1219 30.1253 22.6361 30.3333 23.25 30.3333ZM29.75 30.3333C30.3639 30.3333 30.8781 30.1253 31.2927 29.7093C31.7087 29.2948 31.9167 28.7806 31.9167 28.1667C31.9167 27.5528 31.7087 27.0378 31.2927 26.6218C30.8781 26.2073 30.3639 26 29.75 26C29.1361 26 28.6212 26.2073 28.2052 26.6218C27.7906 27.0378 27.5833 27.5528 27.5833 28.1667C27.5833 28.7806 27.7906 29.2948 28.2052 29.7093C28.6212 30.1253 29.1361 30.3333 29.75 30.3333ZM20 47.6667C17.2917 47.6667 14.7552 47.1524 12.3907 46.124C10.0247 45.0941 7.96633 43.7031 6.21567 41.951C4.46356 40.2003 3.07256 38.142 2.04267 35.776C1.01422 33.4114 0.5 30.875 0.5 28.1667C0.5 23.1111 2.16111 18.7503 5.48333 15.0843C8.80556 11.4198 12.9222 9.31667 17.8333 8.775V2.16667C17.8333 1.55278 18.0413 1.03783 18.4573 0.621833C18.8719 0.207278 19.3861 0 20 0C20.6139 0 21.1288 0.207278 21.5448 0.621833C21.9594 1.03783 22.1667 1.55278 22.1667 2.16667V8.775C27.0778 9.31667 31.1944 11.4198 34.5167 15.0843C37.8389 18.7503 39.5 23.1111 39.5 28.1667C39.5 30.875 38.9858 33.4114 37.9573 35.776C36.9274 38.142 35.5372 40.2003 33.7865 41.951C32.0344 43.7031 29.9761 45.0941 27.6115 46.124C25.2455 47.1524 22.7083 47.6667 20 47.6667ZM20 43.3333C24.1889 43.3333 27.7639 41.8528 30.725 38.8917C33.6861 35.9306 35.1667 32.3556 35.1667 28.1667C35.1667 23.9778 33.6861 20.4028 30.725 17.4417C27.7639 14.4806 24.1889 13 20 13C15.8111 13 12.2361 14.4806 9.275 17.4417C6.31389 20.4028 4.83333 23.9778 4.83333 28.1667C4.83333 32.3556 6.31389 35.9306 9.275 38.8917C12.2361 41.8528 15.8111 43.3333 20 43.3333Z" fill="black"/>
</svg>
