<svg width="44" height="42" viewBox="0 0 44 42" fill="none" xmlns="http://www.w3.org/2000/svg">
<path d="M5.20834 19.7292C3.83612 19.7292 2.68057 19.2597 1.74168 18.3208C0.802788 17.3819 0.333344 16.2264 0.333344 14.8542C0.333344 13.4819 0.802788 12.3264 1.74168 11.3875C2.68057 10.4486 3.83612 9.97916 5.20834 9.97916C6.58057 9.97916 7.73612 10.4486 8.67501 11.3875C9.6139 12.3264 10.0833 13.4819 10.0833 14.8542C10.0833 16.2264 9.6139 17.3819 8.67501 18.3208C7.73612 19.2597 6.58057 19.7292 5.20834 19.7292ZM15.2292 10.5208C13.857 10.5208 12.7014 10.0514 11.7625 9.1125C10.8236 8.17361 10.3542 7.01805 10.3542 5.64583C10.3542 4.27361 10.8236 3.11805 11.7625 2.17916C12.7014 1.24027 13.857 0.770828 15.2292 0.770828C16.6014 0.770828 17.757 1.24027 18.6958 2.17916C19.6347 3.11805 20.1042 4.27361 20.1042 5.64583C20.1042 7.01805 19.6347 8.17361 18.6958 9.1125C17.757 10.0514 16.6014 10.5208 15.2292 10.5208ZM28.7708 10.5208C27.3986 10.5208 26.2431 10.0514 25.3042 9.1125C24.3653 8.17361 23.8958 7.01805 23.8958 5.64583C23.8958 4.27361 24.3653 3.11805 25.3042 2.17916C26.2431 1.24027 27.3986 0.770828 28.7708 0.770828C30.1431 0.770828 31.2986 1.24027 32.2375 2.17916C33.1764 3.11805 33.6458 4.27361 33.6458 5.64583C33.6458 7.01805 33.1764 8.17361 32.2375 9.1125C31.2986 10.0514 30.1431 10.5208 28.7708 10.5208ZM38.7917 19.7292C37.4195 19.7292 36.2639 19.2597 35.325 18.3208C34.3861 17.3819 33.9167 16.2264 33.9167 14.8542C33.9167 13.4819 34.3861 12.3264 35.325 11.3875C36.2639 10.4486 37.4195 9.97916 38.7917 9.97916C40.1639 9.97916 41.3195 10.4486 42.2583 11.3875C43.1972 12.3264 43.6667 13.4819 43.6667 14.8542C43.6667 16.2264 43.1972 17.3819 42.2583 18.3208C41.3195 19.2597 40.1639 19.7292 38.7917 19.7292ZM10.4083 41.9375C8.89168 41.9375 7.64584 41.3687 6.67084 40.2312C5.69584 39.0937 5.20834 37.7486 5.20834 36.1958C5.20834 34.6792 5.66876 33.334 6.58959 32.1604C7.51043 30.9868 8.49445 29.8583 9.54168 28.775C10.3361 27.9805 11.0764 27.141 11.7625 26.2562C12.4486 25.3715 13.0986 24.4597 13.7125 23.5208C14.7597 21.9319 15.9333 20.4514 17.2333 19.0792C18.5333 17.7069 20.1222 17.0208 22 17.0208C23.8778 17.0208 25.4757 17.7069 26.7938 19.0792C28.1118 20.4514 29.2945 21.95 30.3417 23.575C30.9556 24.5139 31.5965 25.4167 32.2646 26.2833C32.9326 27.15 33.6639 27.9805 34.4583 28.775C35.5056 29.8583 36.4896 30.9868 37.4104 32.1604C38.3313 33.334 38.7917 34.6792 38.7917 36.1958C38.7917 37.7486 38.3042 39.0937 37.3292 40.2312C36.3542 41.3687 35.1083 41.9375 33.5917 41.9375C31.6417 41.9375 29.7097 41.775 27.7958 41.45C25.882 41.125 23.95 40.9625 22 40.9625C20.05 40.9625 18.1181 41.125 16.2042 41.45C14.2903 41.775 12.3583 41.9375 10.4083 41.9375Z" fill="black"/>
</svg>
