<svg width="32" height="48" viewBox="0 0 32 48" fill="none" xmlns="http://www.w3.org/2000/svg">
<path d="M4.08331 47.8333C3.21665 47.8333 2.45831 47.5083 1.80831 46.8583C1.15831 46.2083 0.833313 45.45 0.833313 44.5833V3.41667C0.833313 2.55001 1.15831 1.79167 1.80831 1.14167C2.45831 0.491672 3.21665 0.166672 4.08331 0.166672H27.9166C28.7833 0.166672 29.5416 0.491672 30.1916 1.14167C30.8416 1.79167 31.1666 2.55001 31.1666 3.41667V44.5833C31.1666 45.45 30.8416 46.2083 30.1916 46.8583C29.5416 47.5083 28.7833 47.8333 27.9166 47.8333H4.08331ZM4.08331 39.7083V44.5833H27.9166V39.7083H4.08331ZM16 43.7708C16.4694 43.7708 16.8576 43.6174 17.1646 43.3104C17.4715 43.0035 17.625 42.6153 17.625 42.1458C17.625 41.6764 17.4715 41.2882 17.1646 40.9813C16.8576 40.6743 16.4694 40.5208 16 40.5208C15.5305 40.5208 15.1423 40.6743 14.8354 40.9813C14.5285 41.2882 14.375 41.6764 14.375 42.1458C14.375 42.6153 14.5285 43.0035 14.8354 43.3104C15.1423 43.6174 15.5305 43.7708 16 43.7708ZM4.08331 36.4583H27.9166V8.29167H4.08331V36.4583ZM4.08331 5.04167H27.9166V3.41667H4.08331V5.04167Z" fill="black"/>
</svg>
