<svg width="44" height="40" viewBox="0 0 44 40" fill="none" xmlns="http://www.w3.org/2000/svg">
<path d="M22 31.5917C24.6 31.5917 26.7848 30.7069 28.5542 28.9375C30.3236 27.1681 31.2084 24.9653 31.2084 22.3292C31.2084 19.7292 30.3236 17.5535 28.5542 15.8021C26.7848 14.0507 24.6 13.175 22 13.175C19.3639 13.175 17.1702 14.0507 15.4188 15.8021C13.6674 17.5535 12.7917 19.7292 12.7917 22.3292C12.7917 24.9653 13.6674 27.1681 15.4188 28.9375C17.1702 30.7069 19.3639 31.5917 22 31.5917ZM22 28.3417C20.2667 28.3417 18.8403 27.7729 17.7209 26.6354C16.6014 25.4979 16.0417 24.0625 16.0417 22.3292C16.0417 20.6319 16.6014 19.2236 17.7209 18.1042C18.8403 16.9847 20.2667 16.425 22 16.425C23.6973 16.425 25.1146 16.9847 26.2521 18.1042C27.3896 19.2236 27.9584 20.6319 27.9584 22.3292C27.9584 24.0625 27.3896 25.4979 26.2521 26.6354C25.1146 27.7729 23.6973 28.3417 22 28.3417ZM3.58337 39.5C2.71671 39.5 1.95837 39.175 1.30837 38.525C0.658374 37.875 0.333374 37.1167 0.333374 36.25V8.4625C0.333374 7.63195 0.658374 6.88264 1.30837 6.21458C1.95837 5.54653 2.71671 5.2125 3.58337 5.2125H11.5459L15.5 0.5H28.5L32.4542 5.2125H40.4167C41.2473 5.2125 41.9966 5.54653 42.6646 6.21458C43.3327 6.88264 43.6667 7.63195 43.6667 8.4625V36.25C43.6667 37.1167 43.3327 37.875 42.6646 38.525C41.9966 39.175 41.2473 39.5 40.4167 39.5H3.58337ZM40.4167 36.25V8.4625H30.9375L26.9834 3.75H17.0167L13.0625 8.4625H3.58337V36.25H40.4167Z" fill="black"/>
</svg>
