<svg width="44" height="44" viewBox="0 0 44 44" fill="none" xmlns="http://www.w3.org/2000/svg">
<path d="M22 43.6665C19.4 43.3776 16.809 42.6283 14.2271 41.4185C11.6451 40.2088 9.325 38.5296 7.26666 36.381C5.20833 34.2324 3.53819 31.5783 2.25625 28.4185C0.974304 25.2588 0.333332 21.5845 0.333332 17.3956V15.3373H2.39167C4.30555 15.3373 6.34583 15.7074 8.5125 16.4477C10.6792 17.188 12.5931 18.1359 14.2542 19.2915C14.5431 16.0415 15.4097 12.6921 16.8542 9.24353C18.2986 5.79492 20.0139 2.84284 22 0.387283C23.9861 2.84284 25.7014 5.79492 27.1458 9.24353C28.5903 12.6921 29.4569 16.0415 29.7458 19.2915C31.4069 18.2081 33.3208 17.2783 35.4875 16.5019C37.6542 15.7255 39.6944 15.3373 41.6083 15.3373H43.6667V17.3956C43.6667 21.5845 43.0257 25.2588 41.7437 28.4185C40.4618 31.5783 38.7917 34.2324 36.7333 36.381C34.675 38.5296 32.3549 40.2088 29.7729 41.4185C27.191 42.6283 24.6 43.3776 22 43.6665ZM22.4333 40.3623C22.0361 33.6456 20.0951 28.554 16.6104 25.0873C13.1257 21.6206 8.80139 19.472 3.6375 18.6414C4.10694 25.6109 6.13819 30.8109 9.73125 34.2415C13.3243 37.672 17.5583 39.7123 22.4333 40.3623ZM21.9458 27.0915C22.4514 26.1526 23.1465 25.1414 24.0312 24.0581C24.916 22.9748 25.7736 22.072 26.6042 21.3498C26.7847 18.8942 26.4236 16.4026 25.5208 13.8748C24.6181 11.347 23.4444 8.72895 22 6.02062C20.5556 8.72895 19.3819 11.347 18.4792 13.8748C17.5764 16.4026 17.2153 18.8942 17.3958 21.3498C18.2264 22.072 19.066 22.9748 19.9146 24.0581C20.7632 25.1414 21.4403 26.1526 21.9458 27.0915ZM25.6833 39.4415C27.3806 38.8276 29.0687 38.0151 30.7479 37.004C32.4271 35.9928 33.9437 34.6748 35.2979 33.0498C36.6521 31.4248 37.7896 29.4296 38.7104 27.0644C39.6312 24.6991 40.1819 21.8914 40.3625 18.6414C36.5347 19.2553 33.1583 20.6185 30.2333 22.731C27.3083 24.8435 25.1597 27.4526 23.7875 30.5581C24.2208 31.9303 24.6 33.3116 24.925 34.7019C25.25 36.0921 25.5028 37.672 25.6833 39.4415Z" fill="black"/>
</svg>
