<svg width="44" height="36" viewBox="0 0 44 36" fill="none" xmlns="http://www.w3.org/2000/svg">
<path d="M26.7667 32.0833C30.5945 32.0833 33.8264 30.684 36.4625 27.8854C39.0986 25.0868 40.4167 21.7556 40.4167 17.8917C40.4167 13.9194 38.9993 10.5972 36.1646 7.92501C33.3299 5.25278 29.9264 3.91667 25.9542 3.91667C23.932 3.91667 22.0361 4.16042 20.2667 4.64792C18.4973 5.13542 16.6375 5.90278 14.6875 6.95001L21.2417 9.3875C23.0834 10.0736 24.3382 11.0576 25.0063 12.3396C25.6743 13.6215 26.0084 15.075 26.0084 16.7C26.0084 18.8667 25.2862 20.6813 23.8417 22.1438C22.3973 23.6063 20.6278 24.3375 18.5334 24.3375H3.90837C3.72782 25.1681 3.62851 26.2785 3.61046 27.6688C3.5924 29.059 3.58337 30.5306 3.58337 32.0833H26.7667ZM4.28754 21.0875H18.2084C19.5445 21.0875 20.6368 20.6632 21.4855 19.8146C22.3341 18.966 22.7584 17.9278 22.7584 16.7C22.7584 15.6528 22.5146 14.7681 22.0271 14.0458C21.5396 13.3236 20.8264 12.8 19.8875 12.475L11.5459 9.00834C9.74032 10.5972 8.24171 12.3847 7.05004 14.3708C5.85837 16.3569 4.93754 18.5958 4.28754 21.0875ZM26.7667 35.3333H3.58337C2.71671 35.3333 1.95837 35.0083 1.30837 34.3583C0.658374 33.7083 0.333374 32.95 0.333374 32.0833V28.0208C0.333374 24.1208 0.983374 20.5007 2.28337 17.1604C3.58337 13.8201 5.3799 10.9313 7.67296 8.49376C9.96601 6.05626 12.6743 4.14237 15.798 2.75209C18.9216 1.36181 22.307 0.666672 25.9542 0.666672C28.3736 0.666672 30.6577 1.10903 32.8063 1.99376C34.9549 2.87848 36.8327 4.09723 38.4396 5.65001C40.0466 7.20278 41.3195 9.02639 42.2584 11.1208C43.1973 13.2153 43.6667 15.4722 43.6667 17.8917C43.6667 20.275 43.2243 22.5319 42.3396 24.6625C41.4549 26.7931 40.2452 28.6438 38.7105 30.2146C37.1757 31.7854 35.3882 33.0313 33.348 33.9521C31.3077 34.8729 29.1139 35.3333 26.7667 35.3333Z" fill="black"/>
</svg>
