<svg width="46" height="32" viewBox="0 0 46 32" fill="none" xmlns="http://www.w3.org/2000/svg">
<path d="M4.96315 31.1667C3.59093 31.1667 2.51662 30.7063 1.74023 29.7854C0.963846 28.8646 0.683985 27.5917 0.900651 25.9667L3.50065 7.82084C3.78954 5.90696 4.68329 4.2639 6.1819 2.89168C7.68051 1.51945 9.38676 0.833344 11.3007 0.833344H34.7548C36.6687 0.833344 38.375 1.51945 39.8736 2.89168C41.3722 4.2639 42.2659 5.90696 42.5548 7.82084L45.1006 25.9667C45.3173 27.5917 45.0375 28.8646 44.2611 29.7854C43.4847 30.7063 42.4104 31.1667 41.0381 31.1667C40.2076 31.1667 39.5034 31.0313 38.9256 30.7604C38.3479 30.4896 37.8604 30.1556 37.4631 29.7583L31.8298 24.125H14.1715L8.53815 29.7583C8.14093 30.1556 7.65343 30.4896 7.07565 30.7604C6.49787 31.0313 5.79371 31.1667 4.96315 31.1667ZM5.93815 27.7L12.7632 20.875H33.2381L40.0631 27.7C40.2437 27.8806 40.5687 28.0431 41.0381 28.1875C41.3631 28.1875 41.6069 28.025 41.7694 27.7C41.9319 27.375 41.977 27.05 41.9048 26.725L39.3048 8.36251C39.1243 7.09862 38.5916 6.06946 37.7069 5.27501C36.8222 4.48057 35.8381 4.08334 34.7548 4.08334H11.2465C10.1632 4.08334 9.17912 4.48057 8.2944 5.27501C7.40968 6.06946 6.87704 7.09862 6.69648 8.36251L4.09648 26.725C4.02426 27.05 4.0694 27.375 4.2319 27.7C4.3944 28.025 4.63815 28.1875 4.96315 28.1875C5.21593 28.1875 5.54093 28.025 5.93815 27.7ZM34.9173 18.1667C35.4951 18.1667 36.0007 17.95 36.434 17.5167C36.8673 17.0833 37.084 16.5778 37.084 16C37.084 15.4222 36.8673 14.9167 36.434 14.4833C36.0007 14.05 35.4951 13.8333 34.9173 13.8333C34.3395 13.8333 33.834 14.05 33.4006 14.4833C32.9673 14.9167 32.7506 15.4222 32.7506 16C32.7506 16.5778 32.9673 17.0833 33.4006 17.5167C33.834 17.95 34.3395 18.1667 34.9173 18.1667ZM30.3131 11.125C30.8909 11.125 31.3965 10.9083 31.8298 10.475C32.2632 10.0417 32.4798 9.53612 32.4798 8.95834C32.4798 8.38057 32.2632 7.87501 31.8298 7.44168C31.3965 7.00834 30.8909 6.79168 30.3131 6.79168C29.7354 6.79168 29.2298 7.00834 28.7965 7.44168C28.3631 7.87501 28.1465 8.38057 28.1465 8.95834C28.1465 9.53612 28.3631 10.0417 28.7965 10.475C29.2298 10.9083 29.7354 11.125 30.3131 11.125ZM13.2507 17.8958H15.959V13.8333H20.0215V11.125H15.959V7.06251H13.2507V11.125H9.18815V13.8333H13.2507V17.8958Z" fill="black"/>
</svg>
