<svg width="48" height="48" viewBox="0 0 48 48" fill="none" xmlns="http://www.w3.org/2000/svg">
<path d="M9.91602 0.166504C15.3327 0.166504 19.666 4.49984 19.666 9.9165C19.666 11.8232 19.1244 13.5998 18.171 15.1165L18.3877 15.3332H29.611L29.8277 15.1165C28.8743 13.5998 28.3327 11.8232 28.3327 9.9165C28.3327 4.49984 32.666 0.166504 38.0827 0.166504C43.4994 0.166504 47.8327 4.49984 47.8327 9.9165C47.8327 15.3332 43.4994 19.6665 38.0827 19.6665C36.176 19.6665 34.3993 19.1248 32.8827 18.1715L30.4993 20.5548V27.4448L32.8827 29.8282C34.3993 28.8748 36.176 28.3332 38.0827 28.3332C43.4994 28.3332 47.8327 32.6665 47.8327 38.0832C47.8327 43.4998 43.4994 47.8332 38.0827 47.8332C32.666 47.8332 28.3327 43.4998 28.3327 38.0832C28.3327 36.1765 28.8743 34.3998 29.8277 32.8832L29.611 32.6665H18.3877L18.171 32.8832C19.1244 34.3998 19.666 36.1765 19.666 38.0832C19.666 43.4998 15.3327 47.8332 9.91602 47.8332C4.49935 47.8332 0.166016 43.4998 0.166016 38.0832C0.166016 32.6665 4.49935 28.3332 9.91602 28.3332C11.8227 28.3332 13.5993 28.8748 15.116 29.8282L17.4993 27.4448V20.5548L15.116 18.1715C13.5993 19.1248 11.8227 19.6665 9.91602 19.6665C4.49935 19.6665 0.166016 15.3332 0.166016 9.9165C0.166016 4.49984 4.49935 0.166504 9.91602 0.166504ZM9.91602 4.49984C8.47943 4.49984 7.10168 5.07052 6.08585 6.08634C5.07003 7.10216 4.49935 8.47991 4.49935 9.9165C4.49935 11.3531 5.07003 12.7308 6.08585 13.7467C7.10168 14.7625 8.47943 15.3332 9.91602 15.3332C11.3526 15.3332 12.7304 14.7625 13.7462 13.7467C14.762 12.7308 15.3327 11.3531 15.3327 9.9165C15.3327 8.47991 14.762 7.10216 13.7462 6.08634C12.7304 5.07052 11.3526 4.49984 9.91602 4.49984ZM9.91602 32.6665C8.47943 32.6665 7.10168 33.2372 6.08585 34.253C5.07003 35.2688 4.49935 36.6466 4.49935 38.0832C4.49935 39.5198 5.07003 40.8975 6.08585 41.9133C7.10168 42.9292 8.47943 43.4998 9.91602 43.4998C11.3526 43.4998 12.7304 42.9292 13.7462 41.9133C14.762 40.8975 15.3327 39.5198 15.3327 38.0832C15.3327 36.6466 14.762 35.2688 13.7462 34.253C12.7304 33.2372 11.3526 32.6665 9.91602 32.6665ZM38.0827 4.49984C36.6461 4.49984 35.2683 5.07052 34.2525 6.08634C33.2367 7.10216 32.666 8.47991 32.666 9.9165C32.666 11.3531 33.2367 12.7308 34.2525 13.7467C35.2683 14.7625 36.6461 15.3332 38.0827 15.3332C39.5193 15.3332 40.897 14.7625 41.9128 13.7467C42.9287 12.7308 43.4994 11.3531 43.4994 9.9165C43.4994 8.47991 42.9287 7.10216 41.9128 6.08634C40.897 5.07052 39.5193 4.49984 38.0827 4.49984ZM38.0827 32.6665C36.6461 32.6665 35.2683 33.2372 34.2525 34.253C33.2367 35.2688 32.666 36.6466 32.666 38.0832C32.666 39.5198 33.2367 40.8975 34.2525 41.9133C35.2683 42.9292 36.6461 43.4998 38.0827 43.4998C39.5193 43.4998 40.897 42.9292 41.9128 41.9133C42.9287 40.8975 43.4994 39.5198 43.4994 38.0832C43.4994 36.6466 42.9287 35.2688 41.9128 34.253C40.897 33.2372 39.5193 32.6665 38.0827 32.6665ZM6.47102 35.3748L8.91935 36.8048C9.20102 36.5882 9.54768 36.4582 9.91602 36.4582C10.347 36.4582 10.7603 36.6294 11.0651 36.9341C11.3698 37.2389 11.541 37.6522 11.541 38.0832L11.5193 38.2998L13.9677 39.7082L13.361 40.7915L10.9127 39.3615C10.631 39.5782 10.2843 39.7082 9.91602 39.7082C9.48504 39.7082 9.07171 39.537 8.76697 39.2322C8.46222 38.9275 8.29102 38.5141 8.29102 38.0832L8.31268 37.8665L5.86435 36.4582L6.47102 35.3748ZM5.86435 11.5415L8.31268 10.1332L8.29102 9.9165C8.29102 9.48553 8.46222 9.0722 8.76697 8.76746C9.07171 8.46271 9.48504 8.2915 9.91602 8.2915C10.2843 8.2915 10.631 8.4215 10.9127 8.63817L13.361 7.20817L13.9677 8.2915L11.5193 9.69984L11.541 9.9165C11.541 10.3475 11.3698 10.7608 11.0651 11.0656C10.7603 11.3703 10.347 11.5415 9.91602 11.5415C9.54768 11.5415 9.20102 11.4115 8.91935 11.1948L6.47102 12.6248L5.86435 11.5415ZM34.6377 7.20817L37.086 8.63817C37.3677 8.4215 37.7144 8.2915 38.0827 8.2915C38.5137 8.2915 38.927 8.46271 39.2317 8.76746C39.5365 9.0722 39.7077 9.48553 39.7077 9.9165L39.686 10.1332L42.1344 11.5415L41.5277 12.6248L39.0793 11.1948C38.7977 11.4115 38.451 11.5415 38.0827 11.5415C37.6517 11.5415 37.2384 11.3703 36.9336 11.0656C36.6289 10.7608 36.4577 10.3475 36.4577 9.9165L36.4794 9.69984L34.031 8.2915L34.6377 7.20817ZM34.031 39.7082L36.4577 38.0832C36.4577 37.6522 36.6289 37.2389 36.9336 36.9341C37.2384 36.6294 37.6517 36.4582 38.0827 36.4582C38.451 36.4582 38.7977 36.5882 39.0793 36.8048L41.5277 35.3748L42.1344 36.4582L39.7077 38.0832C39.7077 38.5141 39.5365 38.9275 39.2317 39.2322C38.927 39.537 38.5137 39.7082 38.0827 39.7082C37.7144 39.7082 37.3677 39.5782 37.086 39.3615L34.6377 40.7915L34.031 39.7082Z" fill="#313B3F"/>
</svg>
