<svg width="46" height="40" viewBox="0 0 46 40" fill="none" xmlns="http://www.w3.org/2000/svg">
<path d="M9 36.25H23.0833V32.4583H9V36.25ZM10.0833 15.125H20.9167C21.2056 15.125 21.4583 15.0167 21.675 14.8C21.8917 14.5833 22 14.3306 22 14.0417C22 13.7528 21.8917 13.5 21.675 13.2833C21.4583 13.0667 21.2056 12.9583 20.9167 12.9583H10.0833C9.79444 12.9583 9.54166 13.0667 9.325 13.2833C9.10833 13.5 9 13.7528 9 14.0417C9 14.3306 9.10833 14.5833 9.325 14.8C9.54166 15.0167 9.79444 15.125 10.0833 15.125ZM10.0833 9.70833H20.9167C21.2056 9.70833 21.4583 9.6 21.675 9.38333C21.8917 9.16667 22 8.91389 22 8.625C22 8.33611 21.8917 8.08333 21.675 7.86667C21.4583 7.65 21.2056 7.54167 20.9167 7.54167H10.0833C9.79444 7.54167 9.54166 7.65 9.325 7.86667C9.10833 8.08333 9 8.33611 9 8.625C9 8.91389 9.10833 9.16667 9.325 9.38333C9.54166 9.6 9.79444 9.70833 10.0833 9.70833ZM30.6667 17.8333V14.5833H36.0833V8.08333H30.6667V4.83333H36.0833C36.9861 4.83333 37.7535 5.14931 38.3854 5.78125C39.0174 6.41319 39.3333 7.18056 39.3333 8.08333V9.70833H44.2083C44.6778 9.70833 45.066 9.86181 45.3729 10.1688C45.6799 10.4757 45.8333 10.8639 45.8333 11.3333C45.8333 11.7667 45.6799 12.1458 45.3729 12.4708C45.066 12.7958 44.6778 12.9583 44.2083 12.9583H39.3333V14.5833C39.3333 15.4861 39.0174 16.2535 38.3854 16.8854C37.7535 17.5174 36.9861 17.8333 36.0833 17.8333H30.6667ZM22 29.2083H18.75V18.9167H27.4167V3.75H9C7.48333 3.75 6.20138 4.27361 5.15416 5.32083C4.10694 6.36806 3.58333 7.65 3.58333 9.16667V13.5C3.58333 15.0167 4.10694 16.2986 5.15416 17.3458C6.20138 18.3931 7.48333 18.9167 9 18.9167H13.3333V29.2083H10.0833V22.1667H9C6.61666 22.1667 4.57638 21.3181 2.87916 19.6208C1.18194 17.9236 0.333328 15.8833 0.333328 13.5V9.16667C0.333328 6.78333 1.18194 4.74306 2.87916 3.04583C4.57638 1.34861 6.61666 0.5 9 0.5H27.4167C28.3194 0.5 29.0868 0.815972 29.7187 1.44792C30.3507 2.07986 30.6667 2.84722 30.6667 3.75V18.9167C30.6667 19.8194 30.3507 20.5868 29.7187 21.2188C29.0868 21.8507 28.3194 22.1667 27.4167 22.1667H22V29.2083ZM8.1875 39.5C7.50138 39.5 6.92361 39.2653 6.45416 38.7958C5.98472 38.3264 5.75 37.7486 5.75 37.0625V31.6458C5.75 30.9597 5.98472 30.3819 6.45416 29.9125C6.92361 29.4431 7.50138 29.2083 8.1875 29.2083H23.8958C24.5819 29.2083 25.1597 29.4431 25.6292 29.9125C26.0986 30.3819 26.3333 30.9597 26.3333 31.6458V37.0625C26.3333 37.7486 26.0986 38.3264 25.6292 38.7958C25.1597 39.2653 24.5819 39.5 23.8958 39.5H8.1875Z" fill="black"/>
</svg>
