<svg version="1.2" xmlns="http://www.w3.org/2000/svg" viewBox="0 0 1440 148" width="1440" height="148">
	<title>cloud-svg</title>
	<style>
		.s0 { fill: #dfedf2;stroke: #dfedf2;stroke-width: 23 } 
	</style>
	<path id="Layer" class="s0" d="m984 356.5h0.1 12c88 0 174.2-9.3 248-26.9 73.5-17.4 132.7-42.6 169.1-73.2 18.3-15.4 31.1-32.3 36.8-50.5 5.9-18.5 4.3-37.3-4.6-55.3-17.4-35.1-61.1-65.1-121.7-88.2-61.6-23.4-140.3-39.6-226.4-46.7-85.4-7.2-174.7-5.1-257 5.9-27.6-6-58.8-9.1-90.6-9.2h-0.1-1.8c-41.8 0-82.6 5.2-115.5 14.9-16.5 4.9-30.8 10.9-42.2 17.7-8.2 5-15.3 10.6-20.6 17.1-53.2-13.9-115.6-22.3-180.7-24.3-68.2-2.2-136.9 2.8-197.9 14.3-60.8 11.5-112.2 29.1-147.7 51.4-35 22-56.2 49.9-52.2 81.2 3.8 30.3 30.8 56.4 70.7 76.8 40.5 20.8 95.9 36.6 159.4 46 63.5 9.5 133.1 12.1 200.6 7.7 67.4-4.4 130.3-15.6 181.3-32.6q1.3-0.5 2.6-0.9l57 21.6 0.1 0.1 5.6 2.2h0.2l0.1 0.1 8.1 2.9 1.4 0.5q0 0 0 0c2.4 0.9 4.8 1.7 7.1 2.5 1.5 0.6 3 1 4.3 1.4 80.7 27.1 185.4 42.5 294.5 43.5z"/>
</svg>