<svg version="1.2" xmlns="http://www.w3.org/2000/svg" viewBox="0 0 128 114" width="128" height="114">
	<title>compost-svg</title>
	<style>
		.s0 { opacity: .5;fill: #dfedf2 } 
		.s1 { fill: #ffffff } 
		.s2 { fill: #b0c2e4 } 
		.s3 { fill: #e0e8f5 } 
		.s4 { fill: #8fd8ea } 
		.s5 { fill: #d6f1f9 } 
	</style>
	<path id="Layer" class="s0" d="m-10 108.5c0 1.9 32.9 3.5 73.5 3.5 40.6 0 73.5-1.6 73.5-3.5 0-1.9-32.9-3.5-73.5-3.5-40.6 0-73.5 1.6-73.5 3.5z"/>
	<path id="Layer" fill-rule="evenodd" class="s1" d="m14 82.8c-3.2 0.3-3.7 0.7-4 4.2-0.2-3.5-0.7-3.9-4-4.2 3.3-0.3 3.8-0.7 4-4.1 0.3 3.4 0.8 3.8 4 4.1zm11.4 7.1c-1.7 0.1-2 0.4-2.1 2.2-0.1-1.8-0.4-2.1-2.2-2.2 1.8-0.1 2.1-0.4 2.2-2.2 0.1 1.8 0.4 2.1 2.1 2.2zm-5.7-14c-1.8 0.1-2.1 0.4-2.2 2.2-0.2-1.8-0.4-2.1-2.2-2.2 1.8-0.2 2-0.4 2.2-2.3 0.1 1.9 0.4 2.1 2.2 2.3z"/>
	<path id="Layer" fill-rule="evenodd" class="s1" d="m116 65.6c-3.3 0.3-3.8 0.7-4 4.2-0.3-3.5-0.8-3.9-4-4.2 3.2-0.3 3.7-0.7 4-4.2 0.2 3.5 0.7 3.9 4 4.2zm-15.1 7.1c-1.8 0.1-2.1 0.4-2.2 2.2-0.1-1.8-0.4-2.1-2.1-2.2 1.7-0.1 2-0.4 2.1-2.2 0.1 1.8 0.4 2.1 2.2 2.2zm3.6-16.3c0.2 1.8 0.4 2.1 2.2 2.2-1.8 0.2-2 0.4-2.2 2.3-0.1-1.9-0.4-2.1-2.2-2.3 1.8-0.1 2.1-0.4 2.2-2.2z"/>
	<path id="Layer" fill-rule="evenodd" class="s2" d="m59.7 40.5c18.9 0 34.2 15.3 34.2 34.2 0 19-15.3 34.3-34.2 34.3-18.9 0-34.3-15.3-34.3-34.3 0-18.9 15.4-34.2 34.3-34.2z"/>
	<path id="Layer" class="s3" d="m91.9 81.6c3.8-17.8-7.6-35.3-25.4-39.1-17.8-3.8-35.3 7.6-39.1 25.4-3.8 17.8 7.6 35.3 25.4 39.1 17.8 3.8 35.4-7.6 39.1-25.4z"/>
	<path id="Layer" fill-rule="evenodd" class="s2" d="m75.4 53.4c-0.2 0.2-0.3 0.1-0.6 0.3-0.1 0.8 0.2 1.1 0.3 1.7 0.2 0.9-0.3 1.1-0.6 1.5l1.1-0.1c0.3-0.9 2.1-1.8 3-2.1 0.4-0.1 1.1-0.2 1.5 0 0.1 0.4 0.1 0.7 0 1.1 1.2 0 0.8-1.1 2.4-0.1 1.2 0.8 1.6 0 2.2-0.5-0.3-0.2-0.5-0.3-0.6-0.6l2.8-0.6c4.4 5.8 7 12.9 7 20.8 0 4.1-0.7 8.1-2.1 11.8-0.1 0.1-0.2 0.2-0.4 0.3-0.6-0.3-1.2-1.5-1.1-2.6 0-2.9-1.1-2-2.6-4.8-0.6-1.1 0-1.9 0.4-2.8 0.7-1.3-0.2-1.9-0.8-2.4-0.4-0.4-1.1-1.7-1.4-2.3-0.6-1.1 0.1-2.4-0.9-2.7-0.5-0.2-1 0-1.6-0.2-0.6-0.2-1 0-1.2 0.6-0.1 0.7 0 0.9-1 0.9-2.1-0.2-1.2 0.9-2.3 1.3-1.2 0.5-1.7-1.4-3.2-2.2-1.2-0.5-1.5-0.8-1.8-1.9-0.2-0.6-0.4-0.7-0.7-1.1-0.3-0.4-0.5-0.8-0.6-1.2-0.7-2.1 0.1-3.2 0.5-4.5 0.2-0.5 0.2-1 0.4-1.5 0.2-0.4 0.5-0.9 0.5-1.3 0.1-0.7-0.2-1-0.4-1.5-0.6 0.2-0.4 0.4-0.7 0.7-0.8 0.1-1.3-0.9-1.6-1.4-0.5-0.8-0.8-1.3 0.3-1.8 0.7-0.2 1.8-0.4 1.5-1.3-0.3-1-1.6-0.6-2-1 2.1-1.2 1.7-1.2 2.2-2.8 0.1-0.5 0.4-0.6 0.6-1-0.3-0.5-0.6-0.5-1.1-0.7-0.4-0.1-0.4-0.5-0.6-1-0.8 0-1.3 0.2-1.7-0.4-0.6-0.8 0-0.9 0.4-1.2 0.5-0.5 0.4-1 0.2-1.7q-0.1-0.4 0-0.7 1.9 0.7 3.6 1.6c-0.4 1.6 2 0.6 1.2 2-0.1 0.1-0.7 0.7-0.9 0.8 0.5 0.1 1.2-0.2 1.6-0.4 0.9-0.2 1.1 0.2 1.8 0.2q0.3-0.1 0.5-0.2 3.4 2.3 6.1 5.3-0.1 0-0.2 0c-0.2 0.3-0.3 1.4-0.4 1.9-0.3-0.1-0.9-0.6-1.4-0.9q-0.7-0.4-1.5-0.8c-0.7-0.3-2.5-1.4-3.1-0.6 0.4 1.1 2.9 0.6 2.9 1.7 0.1 0.6-0.3 0.8-0.8 0.8l-0.1-1.1c-1.2 0.1-3.4-1.2-4.6 0.1-0.2 0.2-0.2 0.3-0.4 0.6zm-49.2 14.2c0.6-3.1 1.7-6 3.1-8.7 0.7 0 1.5 0.1 2.2-0.2 1.1-0.3 3-1.2 3.4-1.8-1.1 0.5-1.5 0.9-3.1 0.7-0.1-0.2-0.3-0.4-0.4-0.6-0.3 0.3-0.4 0.9-0.8 0.9-0.3 0.1-0.5 0-0.7-0.1q0.4-0.6 0.7-1.2c0.7-0.1 1.6-0.1 2.1-0.3 2.5-0.8 1.5-1.5 1.9-1.8 0.8-0.2 0.8 0.6 0.9 1.3 0.9 0 2.3-0.6 3 0 0-1.2-0.7-3 0.9-2.9 0-0.4 0.1-0.5 0.3-0.7 0.2-0.2 0-0.1 0.1-0.2h-0.7c0-0.4-0.1-0.5 0.2-0.6 0.7-0.2 1.3 0.4 2 0.5 0.9 0 1.6-0.7 2.5-0.8 1.2-0.3 1.5 0.5 2.4 0.8 0.9 0.2 2.4-0.4 2.8 0.2-0.6 0.7-2-0.1-1.6 0.9l0.7 0.2c-0.1 0.6-0.2 0.7-0.2 1.5-1.2 0.1-2.1-0.3-3.3-0.3 0.2-0.5 0.5-0.5 0.5-1.2l-1.1 0.3c0 0 0 0 0 0-0.5-0.5-1.1-0.5-1.7-0.2 0.3 0.7 0.4 0.7 0.4 1.6 0.2 0.2 0.7 0.3 0.4 0.7-0.1 0.3-0.4 0.5-0.7 0.7-0.3 0.2-0.2 0.5-0.8 0.4-0.3 0-0.7-0.2-0.8-0.4-0.2 0.3-0.2 0.5-0.4 0.8-0.4 0.8-1 1.5-0.6 2.4 0.7 0.1 3-0.3 3.8-0.4 2.8-0.3 0.9-1.6 0.8-1.9-0.3-0.8 0.5-2.3 1.9-2.1 0.7 0.1 0.9 0.6 1.3 0.7 1 0.2 0.9-0.4 1.1-0.9 0.7-0.1 0.7 0.5 1.1 0.8 0.6 0.6 2.1 0.6 2.9 1.3 0.5 0.5 0.4 0.5 0.7 1.2 0.4 0.1 0.6 0 1 0.2 0.2 0.2 0.4 0.4 0.3 0.9-0.4 0.2-1.3 0.3-1.8 0.2-0.7-0.1-0.8-0.6-0.9-1.2-0.5 0.1-0.8 0.3-1.2 0.4-0.7 0.1-1-0.3-1.2 0.2-0.4 0.6-0.6 1.4-1 2 0.6 0 0.9-0.7 1.8-0.6l0.1 0.7 1.3-0.1c-0.1 0.4-0.4 0.8-0.7 1-0.5 0.4-0.6 0.2-1-0.1-1.7-0.1-1.1 1.2-1.5 2.5-0.2 0.6-0.7 0.5-0.8 1.2-0.1 1.1-0.3 0.4-0.8 1 0.2 0.6 0.7 0.5 0.3 1.6-0.2 0.5-0.5 0.9-0.5 1.5 0 1 0.7 2 0.8 3.2-0.5-0.1-0.7-0.4-0.9-0.6-1-1.2-1.4-1.1-2.7-0.4l-0.1 0.4c-2.1 0.3-3.1 1.4-3 3.7 0 1 0.6 1.6 1.4 1.9 1 0.2 2.1 0 1.9-1.3 1.4-0.2 0.8 0.5 1.4 1.3 0.4 0.8 1 0.8 2 0.5 0.1 0.7 0 0.7 0.5 1 0.3 0.2 0.4 0.3 0.8 0.5 1.5 0.8 0.9-0.3 2-0.1 0.4 0.3 0.2 0.5 0.9 0.5 0-2.1-0.3-2.1 3.3-2.2 3.2-0.2 2.3-0.1 3.5 0.6 0.4 0.2 0.7 0.3 1.1 0.3 1.9 0.1 2.7 1 4.4 1.2 1.2 0.1 4-0.6 4.8 0.3 0.3 0.4-0.1 1.7 0 2.4 0.1 0.7 0.5 1.4 0.7 2 1.5 3.4-1.3 2.5-1.9 5.6-0.2 0.9-0.5 1.2-0.8 2-0.5 1.3 0.9 4-0.7 4.3-0.2-0.2-0.5-1.1-1.1-0.7-0.7 0.4-0.1 1.6 0.3 2 0.6 0.7 0.7 1-0.1 1.7l0.2 0.1c0.1 0.1 0.1 0.3 0.1 0.4-0.1 0.4-1 0.2-1.8 0.8 0 1.3 0.3 2.3 0.6 3.5 0.1 0.4 0.2 1.2 0.6 1.4 0.5 0.4 1.4-0.3 1.4 0.6-0.5 0.3-2 0.5-2.8 0.2-0.5-0.2-1-1.1-1.4-1.8l-1.9-4.4c-0.3-1 0.1-2 0.1-3-0.1-1-0.4-1.7-0.7-2.5-0.7-1.3-1.4-3.1-2-4.3-0.9 0-1.6 0-2.1-0.5-0.1-0.2-0.4-0.5-0.5-0.7-0.4-0.5-0.8-0.9-1.3-1.3-0.2-0.2-0.5-0.3-0.7-0.5-1.8-1.2-0.5-4.3-1.5-5.9-0.6-1.1-1-0.5-1.5-0.7-0.3-0.1-0.6-0.3-0.8-0.4-1-0.4-1.9-0.4-2.7-1-0.8-0.6-0.9-0.4-2-0.5-1.5-0.1-3.2 0.4-4.6 0.2-1.6-0.3-2.2-1.3-3-2-0.4-0.3-2.6-1.8-3.1-1.8-0.4 1.4 1.6 2.1 1.9 3.1-1.8 0-1.6-1.4-2.4-2.7-0.7-1.3-2-1.1-3.1-1.9-0.9-0.7-1.2-2.4-1.5-3.5-0.4-1.5-1.1-2.3-1.5-3.5l-0.1 0.2c-0.1 0.3-0.1 0.8-0.2 1.1-0.5-0.1-0.8-0.4-0.8-0.8zm4.9-11.8q0 0 0 0 0 0 0 0zm0 0q0.4-0.6 0.8-1.1c0.1-0.1 0.2-0.1 0.4-0.1 0.5 0.1 0.4-0.1 0.6-0.3 0.5-0.4 0.6 0.6 1.3-0.1 0.2-0.2 0.4-0.9 1.1-0.4-0.1 0.5-0.7 0.4-1 0.7-0.4 0.5 0.1 0.7-0.8 0.9-0.6 0.1-1.3-0.1-1.6 0-0.3 0.1-0.4 0.4-0.8 0.4zm2.4-2.1c1.1-1.5 0.8 0.6 0 0.3 0 0-0.2 0 0-0.3zm3.8-1.9v0.4c-0.4-0.2-0.3-0.2-0.8 0-0.3 0.1-0.5 0-0.6-0.3 0.1-0.5 0.7-0.2 1.4-0.1zm13.9 23.3c-0.2-0.7 0-0.9 0.7-1.1 0.6-0.2 1.1 0 1.7-0.1l-0.1 0.1q0 0 0 0c-1 0.7-0.3 0.6-0.8 0.9-0.4 0.3-1.1 0.4-1.5 0.2zm-4.9-0.2q0 0 0 0 0 0 0 0zm0 0c0.1-0.7 1.3-1 2-1.1 0.8-0.1 0.8 0.2 1.4 0.2 0.5-0.1 1-0.2 1 0.3 0.1 0.4-0.6 0.4-1 0.5-0.6 0-1.5-1-2.4-0.4-0.4 0.3-0.2 0.4-1 0.5zm14.4-27c-0.5-0.3 0.1-0.7 0.5-0.8 0.4-0.1 0.5 0 0.8-0.2 0.4-0.3 0.5-0.6 1.2-0.4 0.4 0.1 0.5 0 0.8 0.1 0 1.1-1.2 0.9-1.6 1.3-0.2 0.2-0.2 0.4-0.4 0.6-0.3-0.1-1.1-0.4-1.3-0.6zm7.2 2.7c0.1-0.4 0.8-1 0.7-1.3 0-0.4-0.3 0 0-0.8 0.1-0.3 0.1-0.5 0.2-0.8 0.9 0.2 1.7 1.9 3.6 2.1-0.1 0.6 0.1 0.7-0.4 1.1-0.2 0.1-0.6 0.3-1 0.3-0.9 0.2-0.8-0.9-1.3-1.3-0.9 0-0.2 0.8-0.7 1.1-0.4 0.2-0.9-0.2-1.1-0.4zm-27.8-1.2c-0.2-1.6 1-1.6 2.3-2.1 1.3-0.5 1.5-1.3 2.9-1.4-0.2 0.7-0.7 0.5-1 1-0.3 0.4-0.3 1-0.6 1.4-0.6 1.1-1.4 0.9-1.9 2 0.2 0.2 0 0 0.2 0.2h0.8c0 1.1-1.2 0.9-2.4 0.8-0.1-0.8-0.2-0.9-1.1-0.8-0.6 0.2-1.3 0.2-1.3-0.5 0.5-0.3 1.3-0.5 2.1-0.6zm5.3-0.9l-0.1-0.4c0-0.6 0.5-1.5 0.9-1.9l2.6-2.2q0.5-0.3 1.2-0.4c1.2-0.2 1.6-0.1 2.1-1 0.8-1.4 1.5-0.1 2.3-0.3 0.5-0.1 0.2-0.6 0.7-0.9 0.4-0.2 0.9 0 1.4 0 0.7 0 2-1.1 2.1-0.2 0.1 0.3-0.2 0.6-0.4 1.1-0.1 0.5-0.3 0.8-0.2 1.2 0 0.1 0.1 0.1 0.3 0.1 0.1-0.1 0.3-0.1 0.3-0.2 1.4-0.6 1.4-0.2 2.1-0.6 0.4-0.3 1.4-1.4 2.1-1.2 0.5 1-0.7 0.8-1 1.6-0.2 0.4-0.1 0.7-0.6 0.8-0.5 0.1-1-0.1-1.3 0.1-0.3 0.8 0.6 1.6 0.4 2.1-0.1 0.4-1.2 0.8-1.6 1.1-0.6 0.4-1 0.8-1.5 1.2-0.7 0.5-1.5 0.7-1.7 1-0.4 0.7 0.1 1.7-0.1 2.5-0.2 0.7-0.9 1-1.8 0.6-0.4-0.2-1.3-0.9-1.6-1.1-0.4-0.5-0.6-1-0.8-1.9-0.3 0.1-1 1-2.8-0.5-1.5-1.3-2.4-0.3-3-0.6zm-5.3 5l-0.6-0.5 0.1 1c1.2 0.1 1.3 0.5 1.7 1 1.1-0.5-0.9-1.3-1.2-1.5z"/>
	<path id="Layer" fill-rule="evenodd" class="s4" d="m61.5 27.5l-1.3 1.4 0.3-1.3 1-0.8z"/>
	<path id="Layer" fill-rule="evenodd" class="s4" d="m61.8 37.5l-1.3 1.4 0.2-1.3 1.1-0.8z"/>
	<path id="Layer" fill-rule="evenodd" class="s2" d="m73.1 30.7c0 3.9-3.1 7.1-7 7.1h-4.6l11.6-7.1z"/>
	<path id="Layer" fill-rule="evenodd" class="s5" d="m68.5 30.7h4.6l-11.6 7.1v-0.1c0-3.9 3.2-7 7-7z"/>
	<path id="Layer" fill-rule="evenodd" class="s2" d="m71.9 21.2c0 3.4-2.8 6.3-6.3 6.3h-4.1l10.4-6.4z"/>
	<path id="Layer" fill-rule="evenodd" class="s5" d="m67.8 21.1h4.1l-10.4 6.4v-0.1c0-3.5 2.8-6.3 6.3-6.3z"/>
	<path id="Layer" class="s5" d="m60.3 19.8h-0.6v21.6h0.6z"/>
	<path id="Layer" class="s4" d="m60.9 19.8h-0.6v21.6h0.6z"/>
	<path id="Layer" fill-rule="evenodd" class="s4" d="m58.9 27.5l1.3 1.4-0.2-1.3-1.1-0.8z"/>
	<path id="Layer" fill-rule="evenodd" class="s4" d="m58.7 37.5l1.3 1.4-0.3-1.3-1-0.8z"/>
	<path id="Layer" fill-rule="evenodd" class="s2" d="m47.3 30.7c0 3.9 3.2 7.1 7 7.1h4.6l-11.6-7.1z"/>
	<path id="Layer" fill-rule="evenodd" class="s5" d="m51.9 30.7h-4.6l11.6 7.1v-0.1c0-3.9-3.1-7-7-7z"/>
	<path id="Layer" fill-rule="evenodd" class="s2" d="m48.5 21.2c0 3.4 2.8 6.3 6.3 6.3h4.1l-10.4-6.4z"/>
	<path id="Layer" fill-rule="evenodd" class="s5" d="m52.6 21.1h-4.1l10.4 6.4v-0.1c0-3.5-2.8-6.3-6.3-6.3z"/>
	<path id="Layer" fill-rule="evenodd" class="s5" d="m55.7 10c-2.1 2.8-1.5 6.8 1.2 8.9l3.3 2.5-4.4-11.4h-0.1z"/>
	<path id="Layer" fill-rule="evenodd" class="s2" d="m59.1 12.5l-3.3-2.5 4.4 11.4 0.1-0.1c2.1-2.7 1.5-6.7-1.2-8.8z"/>
</svg>