<svg width="244" height="229" viewBox="0 0 244 229" fill="none" xmlns="http://www.w3.org/2000/svg">
<mask id="mask0_7464_6358" style="mask-type:alpha" maskUnits="userSpaceOnUse" x="138" y="0" width="106" height="106">
<rect x="138" width="106" height="106" fill="#D9D9D9"/>
</mask>
<g mask="url(#mask0_7464_6358)">
<path d="M190.999 52.9997C193.429 52.9997 195.508 52.1348 197.238 50.4049C198.968 48.675 199.833 46.5955 199.833 44.1663C199.833 41.7372 198.968 39.6577 197.238 37.9278C195.508 36.1979 193.429 35.333 190.999 35.333C188.57 35.333 186.491 36.1979 184.761 37.9278C183.031 39.6577 182.166 41.7372 182.166 44.1663C182.166 46.5955 183.031 48.675 184.761 50.4049C186.491 52.1348 188.57 52.9997 190.999 52.9997ZM190.999 97.1664C179.148 87.0816 170.296 77.7146 164.444 69.0653C158.592 60.416 155.666 52.4108 155.666 45.0497C155.666 34.008 159.218 25.2115 166.321 18.6601C173.425 12.1087 181.651 8.83301 190.999 8.83301C200.348 8.83301 208.574 12.1087 215.677 18.6601C222.781 25.2115 226.333 34.008 226.333 45.0497C226.333 52.4108 223.407 60.416 217.555 69.0653C211.702 77.7146 202.851 87.0816 190.999 97.1664Z" fill="#E53E65"/>
</g>
<mask id="mask1_7464_6358" style="mask-type:alpha" maskUnits="userSpaceOnUse" x="0" y="101" width="88" height="88">
<rect y="101" width="88" height="88" fill="#D9D9D9"/>
</mask>
<g mask="url(#mask1_7464_6358)">
<path d="M43.9993 145.001C46.016 145.001 47.7424 144.283 49.1785 142.846C50.6146 141.41 51.3327 139.684 51.3327 137.667C51.3327 135.651 50.6146 133.924 49.1785 132.488C47.7424 131.052 46.016 130.334 43.9993 130.334C41.9827 130.334 40.2563 131.052 38.8202 132.488C37.3841 133.924 36.666 135.651 36.666 137.667C36.666 139.684 37.3841 141.41 38.8202 142.846C40.2563 144.283 41.9827 145.001 43.9993 145.001ZM43.9993 181.667C34.1605 173.295 26.8118 165.519 21.9535 158.338C17.0952 151.158 14.666 144.512 14.666 138.401C14.666 129.234 17.6146 121.931 23.5118 116.492C29.4091 111.053 36.2382 108.334 43.9993 108.334C51.7605 108.334 58.5896 111.053 64.4869 116.492C70.3841 121.931 73.3327 129.234 73.3327 138.401C73.3327 144.512 70.9035 151.158 66.0452 158.338C61.1868 165.519 53.8382 173.295 43.9993 181.667Z" fill="#E53E65"/>
</g>
<mask id="mask2_7464_6358" style="mask-type:alpha" maskUnits="userSpaceOnUse" x="118" y="173" width="56" height="56">
<rect x="118" y="173" width="56" height="56" fill="#D9D9D9"/>
</mask>
<g mask="url(#mask2_7464_6358)">
<path d="M145.999 201C147.282 201 148.381 200.543 149.295 199.629C150.208 198.716 150.665 197.617 150.665 196.334C150.665 195.05 150.208 193.952 149.295 193.038C148.381 192.124 147.282 191.667 145.999 191.667C144.715 191.667 143.617 192.124 142.703 193.038C141.789 193.952 141.332 195.05 141.332 196.334C141.332 197.617 141.789 198.716 142.703 199.629C143.617 200.543 144.715 201 145.999 201ZM145.999 224.334C139.738 219.006 135.061 214.057 131.97 209.488C128.878 204.918 127.332 200.689 127.332 196.8C127.332 190.967 129.208 186.32 132.961 182.859C136.714 179.398 141.06 177.667 145.999 177.667C150.938 177.667 155.283 179.398 159.036 182.859C162.789 186.32 164.665 190.967 164.665 196.8C164.665 200.689 163.12 204.918 160.028 209.488C156.936 214.057 152.26 219.006 145.999 224.334Z" fill="#E53E65"/>
</g>
</svg>
