<svg version="1.2" xmlns="http://www.w3.org/2000/svg" viewBox="0 0 121 100" width="121" height="100">
	<title>insights2-svg</title>
	<defs>
		<clipPath clipPathUnits="userSpaceOnUse" id="cp1">
			<path d="m18 5h96v91h-96z"/>
		</clipPath>
	</defs>
	<style>
		.s0 { opacity: .5;fill: #dfedf2 } 
		.s1 { fill: #c4d1eb } 
		.s2 { fill: #8fa3cf } 
		.s3 { fill: #e0e8f5 } 
		.s4 { fill: #859ac6 } 
		.s5 { fill: #ffffff } 
	</style>
	<path id="Layer" class="s0" d="m-8 96.5c0 1.9 32.9 3.5 73.5 3.5 40.6 0 73.5-1.6 73.5-3.5 0-1.9-32.9-3.5-73.5-3.5-40.6 0-73.5 1.6-73.5 3.5z"/>
	<g id="Clip-Path" clip-path="url(#cp1)">
		<g id="Layer">
			<path id="Layer" fill-rule="evenodd" class="s1" d="m60.7 40.5c3 2.6 7.1 4.4 11.7 4.7q0.9-2.1 1.4-4.2c-4 0-7.5-1.4-10.1-3.4q-1.3 1.6-3 2.9z"/>
			<path id="Layer" fill-rule="evenodd" class="s2" d="m61.1 40.5c2.9 2.4 6.7 4.1 11.1 4.5q0.8-1.9 1.3-3.7c-3.9-0.1-7.3-1.5-9.8-3.4q-1.1 1.4-2.6 2.6z"/>
			<path id="Layer" fill-rule="evenodd" class="s1" d="m64.5 39.5c0.3 0.2 0.7 0.3 1 0.2 1.5 0.8 3.2 1.5 5.1 1.8 0.2 0.3 0.5 0.5 0.9 0.6q0.7 0.1 1.3 0.1-0.2 0.9-0.6 1.8-0.7-0.1-1.4-0.2c-0.4 0-0.9 0-1.3 0.2-2.1-0.5-4-1.2-5.7-2.2 0-0.3-0.2-0.6-0.5-0.8q-0.7-0.4-1.2-0.9 0.7-0.6 1.3-1.3 0.5 0.4 1.1 0.7z"/>
			<path id="Layer" fill-rule="evenodd" class="s2" d="m65.8 41.3c-0.5 0.7-0.3 1.6 0.5 1.9 0.8 0.4 1.9 0 2.3-0.8 0.4-0.8 0.1-1.6-0.7-1.9-0.7-0.2-1.6 0.1-2.1 0.8z"/>
			<path id="Layer" fill-rule="evenodd" class="s2" d="m69.6 42.8c-0.2 0.3 0 0.6 0.5 0.7 0.4 0.1 0.8-0.1 1-0.5 0.1-0.3-0.1-0.6-0.5-0.7-0.4 0-0.9 0.2-1 0.5z"/>
			<path id="Layer" fill-rule="evenodd" class="s2" d="m63.8 40.3c-0.2 0.3-0.2 0.6 0.2 0.8 0.3 0.2 0.7 0.2 0.9-0.1 0.2-0.3 0.1-0.6-0.2-0.8-0.3-0.2-0.7-0.1-0.9 0.1z"/>
			<path id="Layer" fill-rule="evenodd" class="s1" d="m67.7 35.8c3.9 0.1 8.2-1.1 12-3.8q-0.6-2.2-1.6-4.1c-3.2 2.5-6.7 3.7-10 3.7q0 2.1-0.4 4.2z"/>
			<path id="Layer" fill-rule="evenodd" class="s2" d="m68 35.6c3.7 0 7.7-1.2 11.4-3.7q-0.6-1.9-1.4-3.6c-3.1 2.4-6.5 3.5-9.7 3.6q0 1.8-0.3 3.7z"/>
			<path id="Layer" fill-rule="evenodd" class="s1" d="m70 32.7c0.3-0.1 0.6-0.3 0.8-0.5 1.7-0.4 3.5-1 5.2-1.9 0.3 0.1 0.7 0.1 1-0.2q0.6-0.3 1.1-0.7 0.4 0.9 0.6 1.8-0.5 0.4-1.1 0.8c-0.4 0.2-0.7 0.5-0.9 0.9-1.9 1-3.9 1.6-5.8 1.9-0.3-0.2-0.6-0.3-1-0.2q-0.7 0-1.4 0.1 0.1-1 0.1-1.9 0.7-0.1 1.4-0.1z"/>
			<path id="Layer" fill-rule="evenodd" class="s2" d="m72.1 33.2c0.1 0.9 0.7 1.4 1.6 1.2 0.8-0.3 1.4-1.3 1.3-2.2-0.2-0.8-1-1.2-1.7-0.9-0.8 0.2-1.2 1-1.2 1.9z"/>
			<path id="Layer" fill-rule="evenodd" class="s2" d="m75.9 31.9c0.1 0.3 0.5 0.5 0.9 0.3 0.3-0.2 0.6-0.7 0.5-1-0.1-0.3-0.5-0.4-0.9-0.2-0.3 0.2-0.5 0.6-0.5 0.9z"/>
			<path id="Layer" fill-rule="evenodd" class="s2" d="m69.9 33.7c0 0.4 0.3 0.6 0.7 0.5 0.4 0 0.7-0.4 0.6-0.7 0-0.3-0.3-0.5-0.6-0.5-0.4 0.1-0.7 0.4-0.7 0.7z"/>
			<path id="Layer" fill-rule="evenodd" class="s1" d="m74.1 5.1c-3.9-0.4-8.3 0.4-12.3 2.8q0.4 2.2 1.2 4.2c3.4-2.2 7-3.1 10.3-2.9q0.1-2 0.8-4.1z"/>
			<path id="Layer" fill-rule="evenodd" class="s2" d="m73.7 5.3c-3.7-0.3-7.8 0.5-11.6 2.7q0.4 1.9 1 3.7c3.3-2.1 6.8-2.9 10-2.7q0.1-1.8 0.6-3.7z"/>
			<path id="Layer" fill-rule="evenodd" class="s1" d="m71.5 8.1c-0.3 0-0.7 0.1-0.9 0.4-1.7 0.2-3.5 0.6-5.3 1.4-0.3-0.1-0.6-0.1-1 0.1q-0.6 0.3-1.2 0.6-0.2-0.9-0.4-1.8 0.6-0.4 1.2-0.7c0.4-0.2 0.7-0.5 0.9-0.9 2-0.8 4-1.2 6-1.4 0.2 0.2 0.5 0.4 0.9 0.4q0.7-0.1 1.5 0-0.2 0.9-0.3 1.8-0.7 0-1.4 0z"/>
			<path id="Layer" fill-rule="evenodd" class="s2" d="m69.4 7.3c0.1-0.8-0.6-1.5-1.5-1.3-0.8 0.2-1.5 1.2-1.4 2 0.1 0.9 0.9 1.4 1.6 1.2 0.8-0.2 1.3-1 1.3-1.9z"/>
			<path id="Layer" fill-rule="evenodd" class="s2" d="m65.5 8.3c-0.1-0.3-0.4-0.5-0.8-0.3-0.4 0.1-0.6 0.6-0.6 0.9 0.1 0.3 0.5 0.5 0.8 0.3 0.4-0.2 0.6-0.6 0.6-0.9z"/>
			<path id="Layer" fill-rule="evenodd" class="s2" d="m71.7 7c0-0.3-0.3-0.6-0.7-0.6-0.3 0.1-0.7 0.4-0.7 0.7 0 0.3 0.3 0.6 0.6 0.5 0.4 0 0.7-0.3 0.8-0.6z"/>
			<path id="Layer" fill-rule="evenodd" class="s1" d="m54.3 36.1q-1.4 3.7-2.7 7.5c-1.1-0.4-2.3-0.4-3.4 0q-1.3-3.8-2.6-7.6c2.8-1 5.9-1 8.7 0.1z"/>
			<path id="Layer" fill-rule="evenodd" class="s2" d="m53.7 36q-1.1 3.7-2.3 7.3c-1-0.3-2-0.3-3 0q-1.1-3.6-2.2-7.3c2.4-0.7 5.1-0.7 7.5 0z"/>
			<path id="Layer" fill-rule="evenodd" class="s1" d="m48.2 36.9c0 0.2-0.2 0.5-0.6 0.7q0.4 2 0.8 3.9c0.4 0.1 0.6 0.3 0.6 0.6q0.1 0.4 0.1 0.8 0.8-0.1 1.6 0 0.1-0.4 0.1-0.8c0.1-0.3 0.3-0.5 0.6-0.6q0.4-1.9 0.8-3.9c-0.3-0.2-0.5-0.5-0.5-0.7q0.1-0.5 0.2-1-1.9-0.4-3.9-0.1 0.1 0.5 0.2 1z"/>
			<path id="Layer" fill-rule="evenodd" class="s2" d="m49.9 38.3c1.4 0 2.4 0.7 2.2 1.3-0.1 0.5-1.1 0.7-2.2 0.7-1.1 0-2-0.2-2.2-0.7-0.2-0.6 0.8-1.3 2.2-1.3z"/>
			<path id="Layer" fill-rule="evenodd" class="s2" d="m50.1 41c0.3 0 0.6 0.3 0.6 0.5 0 0.3-0.3 0.5-0.7 0.5-0.3 0-0.6-0.2-0.6-0.5 0-0.3 0.3-0.5 0.7-0.5z"/>
			<path id="Layer" fill-rule="evenodd" class="s2" d="m50.2 36.7c0.6 0 1.1 0.3 1 0.5 0 0.3-0.5 0.5-1.1 0.4-0.5 0-1-0.1-1-0.4 0-0.3 0.4-0.5 1.1-0.5z"/>
			<path id="Layer" fill-rule="evenodd" class="s1" d="m84.2 36.7c-0.3 3.3 1.8 7.3 6 9.5 2.6-0.8 4.8-2.2 6.5-4.2-4.7 0.3-8.1-2.3-9-5.2-1 0.3-2.2 0.3-3.5-0.1z"/>
			<path id="Layer" fill-rule="evenodd" class="s2" d="m84.5 37c-0.1 3.1 1.9 6.9 5.9 8.9 2.2-0.7 4.1-1.9 5.7-3.5-4.4 0-7.6-2.6-8.6-5.3-0.9 0.2-1.9 0.2-3-0.1z"/>
			<path id="Layer" fill-rule="evenodd" class="s1" d="m87.4 38.6c0.1 0.3 0.4 0.5 0.8 0.6 0.9 1.4 2.4 2.6 4.3 3.3 0 0.3 0.1 0.5 0.5 0.7q0.7 0.2 1.4 0.3-1.3 1-2.8 1.6-0.6-0.3-1.2-0.6c-0.4-0.2-1-0.4-1.6-0.4-1.7-1.3-2.8-2.9-3.4-4.6q0.2-0.3 0.1-0.8-0.2-0.6-0.2-1.2 0.8 0.1 1.6 0 0.2 0.5 0.5 1.1z"/>
			<path id="Layer" fill-rule="evenodd" class="s2" d="m87.4 40.5c-0.9 0.1-1.5 0.6-1.1 1.3 0.5 0.8 2 1.2 3.2 0.8 1.1-0.4 1.3-1.2 0.7-1.7-0.7-0.4-1.8-0.6-2.8-0.4z"/>
			<path id="Layer" fill-rule="evenodd" class="s2" d="m90.2 43.2c-0.5 0.2-0.6 0.5-0.3 0.7 0.4 0.3 1.1 0.3 1.6 0 0.5-0.2 0.5-0.5 0.2-0.7-0.4-0.2-1.1-0.1-1.5 0z"/>
			<path id="Layer" fill-rule="evenodd" class="s2" d="m86.3 38.7c-0.3 0-0.5 0.2-0.4 0.6 0.2 0.3 0.6 0.5 1 0.5 0.3 0 0.4-0.3 0.3-0.6-0.2-0.3-0.5-0.5-0.9-0.5z"/>
			<path id="Layer" fill-rule="evenodd" class="s1" d="m30.4 57.9c0.3-3.3-1.7-7.3-6-9.5-2.5 0.8-4.7 2.2-6.4 4.1 4.6-0.2 8 2.4 9 5.2 1-0.3 2.2-0.3 3.4 0.2z"/>
			<path id="Layer" fill-rule="evenodd" class="s2" d="m30.2 57.6c0.1-3.2-1.9-6.9-5.9-8.9-2.2 0.7-4.2 1.9-5.7 3.5 4.4 0 7.6 2.5 8.6 5.3 0.9-0.2 1.9-0.3 3 0.1z"/>
			<path id="Layer" fill-rule="evenodd" class="s1" d="m27.3 56c-0.1-0.3-0.4-0.6-0.8-0.7-0.9-1.3-2.4-2.5-4.4-3.2 0.1-0.3 0-0.6-0.5-0.7q-0.6-0.2-1.3-0.3 1.2-1 2.7-1.6 0.7 0.2 1.3 0.6c0.4 0.2 1 0.3 1.6 0.4 1.7 1.3 2.8 2.9 3.4 4.6q-0.3 0.3-0.1 0.8 0.1 0.6 0.2 1.2-0.8-0.1-1.6 0-0.2-0.6-0.5-1.1z"/>
			<path id="Layer" fill-rule="evenodd" class="s2" d="m27.3 54.1c0.9-0.2 1.5-0.7 1.1-1.4-0.5-0.7-2-1.1-3.2-0.7-1.1 0.4-1.3 1.2-0.7 1.6 0.7 0.5 1.8 0.6 2.8 0.5z"/>
			<path id="Layer" fill-rule="evenodd" class="s2" d="m24.5 51.3c0.5-0.1 0.6-0.4 0.3-0.7-0.4-0.2-1.1-0.2-1.6 0-0.5 0.3-0.6 0.6-0.2 0.8 0.4 0.1 1.1 0.1 1.5-0.1z"/>
			<path id="Layer" fill-rule="evenodd" class="s2" d="m28.3 55.9c0.4 0 0.6-0.3 0.4-0.6-0.1-0.3-0.5-0.6-0.9-0.5-0.3 0-0.5 0.3-0.3 0.6 0.2 0.3 0.5 0.5 0.8 0.5z"/>
			<path id="Layer" fill-rule="evenodd" class="s1" d="m63.7 35.5c-0.8-3.5-5-6.2-10.1-5.1-1 1.4-1.7 2.8-2 4 4-1.8 7.6 0 8.1 2.8 1-0.7 2.3-1.3 4-1.7z"/>
			<path id="Layer" fill-rule="evenodd" class="s2" d="m63.3 35.3c-0.9-3.2-4.8-5.7-9.5-4.7-1 1.2-1.6 2.4-1.9 3.4 3.9-1.5 7.3 0.3 8 2.9 0.8-0.6 2-1.2 3.4-1.6z"/>
			<path id="Layer" fill-rule="evenodd" class="s1" d="m60 35.2c-0.2-0.3-0.5-0.4-0.8-0.4-1-1.1-2.6-1.8-4.4-1.8-0.2-0.2-0.5-0.3-0.9-0.2q-0.6 0.1-1.3 0.3 0.4-0.8 0.9-1.7 0.8-0.2 1.5-0.2c0.5 0 1-0.1 1.4-0.3 2.2 0.2 4 1.1 5.1 2.4q-0.1 0.5 0.2 0.9 0.3 0.5 0.5 1.1-1 0.4-1.7 0.9-0.2-0.5-0.5-1z"/>
			<path id="Layer" fill-rule="evenodd" class="s2" d="m59.5 33.3c0.7-0.5 0.9-1.3 0.2-1.7-0.8-0.4-2.1-0.1-2.7 0.6-0.6 0.6-0.4 1.2 0.3 1.5 0.6 0.3 1.5 0.1 2.2-0.4z"/>
			<path id="Layer" fill-rule="evenodd" class="s2" d="m56.1 31.9c0.2-0.2 0.1-0.5-0.4-0.5-0.4 0-0.9 0.2-1.1 0.5-0.2 0.3 0 0.5 0.4 0.5 0.4 0 0.8-0.2 1.1-0.5z"/>
			<path id="Layer" fill-rule="evenodd" class="s2" d="m60.9 34.7c0.3-0.2 0.4-0.6 0.2-0.8-0.2-0.3-0.7-0.3-0.9-0.1-0.3 0.1-0.3 0.5-0.2 0.7 0.2 0.3 0.6 0.3 0.9 0.2z"/>
			<path id="Layer" fill-rule="evenodd" class="s1" d="m38.3 49.5c2.8 2.4 6.5 4.1 10.9 4.4q0.8-2 1.3-4c-3.8 0-7.1-1.3-9.4-3.2q-1.2 1.5-2.8 2.8z"/>
			<path id="Layer" fill-rule="evenodd" class="s2" d="m38.7 49.5c2.6 2.2 6.2 3.8 10.3 4.1q0.8-1.7 1.2-3.4c-3.6-0.1-6.8-1.3-9.1-3.2q-1.1 1.3-2.4 2.5z"/>
			<path id="Layer" fill-rule="evenodd" class="s1" d="m41.8 48.6c0.3 0.1 0.6 0.2 0.9 0.1 1.5 0.8 3.1 1.4 4.9 1.7 0.1 0.3 0.4 0.5 0.8 0.5q0.6 0.1 1.2 0.2-0.3 0.8-0.6 1.6-0.7 0-1.3-0.1c-0.4-0.1-0.8 0-1.2 0.1-1.9-0.4-3.7-1.1-5.3-2.1-0.1-0.2-0.3-0.5-0.6-0.7q-0.5-0.4-1.1-0.8 0.7-0.6 1.3-1.2 0.5 0.3 1 0.7z"/>
			<path id="Layer" fill-rule="evenodd" class="s2" d="m43 50.2c-0.5 0.7-0.3 1.5 0.5 1.8 0.8 0.3 1.8 0 2.2-0.8 0.3-0.7 0-1.4-0.7-1.7-0.7-0.2-1.5 0.1-2 0.7z"/>
			<path id="Layer" fill-rule="evenodd" class="s2" d="m46.6 51.6c-0.2 0.3 0 0.6 0.4 0.7 0.4 0 0.8-0.1 0.9-0.4 0.2-0.3-0.1-0.6-0.4-0.7-0.4-0.1-0.8 0.1-0.9 0.4z"/>
			<path id="Layer" fill-rule="evenodd" class="s2" d="m41.1 49.3c-0.2 0.2-0.1 0.6 0.2 0.8 0.3 0.2 0.7 0.1 0.9-0.2 0.2-0.2 0.1-0.5-0.2-0.7-0.3-0.2-0.7-0.1-0.9 0.1z"/>
			<path id="Layer" fill-rule="evenodd" class="s1" d="m33.9 24.4c3.6 0.1 7.6-1 11.2-3.5q-0.6-2.1-1.5-3.9c-2.9 2.4-6.3 3.5-9.3 3.5q0 1.9-0.4 3.9z"/>
			<path id="Layer" fill-rule="evenodd" class="s2" d="m34.2 24.2c3.4 0 7.2-1.1 10.6-3.4q-0.5-1.8-1.3-3.4c-2.8 2.2-6.1 3.3-9 3.3q0 1.7-0.3 3.5z"/>
			<path id="Layer" fill-rule="evenodd" class="s1" d="m36 21.5c0.3-0.1 0.6-0.3 0.8-0.5 1.6-0.3 3.3-0.9 4.8-1.8 0.3 0.1 0.7 0.1 1-0.1q0.5-0.3 1-0.7 0.4 0.8 0.6 1.7-0.5 0.4-1.1 0.7c-0.3 0.2-0.6 0.5-0.8 0.9-1.8 0.9-3.6 1.5-5.5 1.8q-0.3-0.3-0.8-0.3-0.7 0.1-1.4 0.1 0.1-0.9 0.2-1.7 0.6-0.1 1.2-0.1z"/>
			<path id="Layer" fill-rule="evenodd" class="s2" d="m38 22c0.1 0.8 0.7 1.3 1.5 1.1 0.8-0.3 1.4-1.2 1.2-2-0.2-0.8-0.9-1.2-1.6-1-0.7 0.3-1.1 1.1-1.1 1.9z"/>
			<path id="Layer" fill-rule="evenodd" class="s2" d="m41.6 20.8c0.1 0.3 0.4 0.4 0.8 0.2 0.3-0.2 0.5-0.6 0.4-0.9-0.1-0.3-0.4-0.4-0.7-0.2-0.4 0.2-0.6 0.5-0.5 0.9z"/>
			<path id="Layer" fill-rule="evenodd" class="s2" d="m36 22.4c0 0.4 0.2 0.6 0.6 0.5 0.3 0 0.6-0.3 0.6-0.6 0-0.4-0.3-0.6-0.6-0.5-0.4 0.1-0.6 0.3-0.6 0.6z"/>
			<path id="Layer" fill-rule="evenodd" class="s1" d="m33 32.7q2.9 2.4 5.8 4.7c-0.6 0.9-1 1.9-1 3q-3.7 0.1-7.4 0.1c-0.1-2.8 0.9-5.6 2.6-7.8z"/>
			<path id="Layer" fill-rule="evenodd" class="s2" d="m32.8 33.2q2.9 2.2 5.8 4.3c-0.6 0.8-0.9 1.7-0.9 2.7q-3.6-0.1-7.2-0.2c0.1-2.5 0.9-4.8 2.3-6.8z"/>
			<path id="Layer" fill-rule="evenodd" class="s1" d="m31.9 38.4c0.2 0.1 0.4 0.3 0.5 0.7q1.8 0.3 3.6 0.5c0.2-0.3 0.5-0.4 0.7-0.3q0.4 0 0.8 0.1 0.2-0.7 0.5-1.4-0.4-0.2-0.7-0.4c-0.2-0.1-0.4-0.3-0.4-0.6q-1.5-1-3.1-2c-0.3 0.3-0.6 0.4-0.9 0.3q-0.4-0.3-0.8-0.5-0.8 1.6-1.2 3.4 0.5 0.1 1 0.2z"/>
			<path id="Layer" fill-rule="evenodd" class="s2" d="m33.6 37.3c0.5-1.3 1.4-1.9 1.9-1.6 0.4 0.3 0.3 1.3-0.1 2.2-0.3 1-0.7 1.8-1.3 1.8-0.5 0-0.9-1.2-0.5-2.4z"/>
			<path id="Layer" fill-rule="evenodd" class="s2" d="m36.1 38c0.1-0.3 0.4-0.5 0.7-0.4 0.2 0.1 0.2 0.4 0.1 0.7-0.1 0.3-0.3 0.5-0.6 0.4-0.2 0-0.3-0.3-0.2-0.7z"/>
			<path id="Layer" fill-rule="evenodd" class="s2" d="m32.3 36.6c0.2-0.5 0.6-0.9 0.8-0.8 0.3 0.1 0.2 0.6 0.1 1.1-0.2 0.5-0.5 0.9-0.8 0.8-0.2 0-0.3-0.5-0.1-1.1z"/>
			<path id="Layer" fill-rule="evenodd" class="s1" d="m56.6 24.2c-0.8 3.3-4.7 5.8-9.4 4.8-1-1.3-1.6-2.6-2-3.7 3.8 1.6 7.2-0.1 7.7-2.7 0.9 0.6 2.1 1.2 3.7 1.6z"/>
			<path id="Layer" fill-rule="evenodd" class="s2" d="m56.3 24.4c-0.9 3-4.5 5.3-9 4.4-0.8-1.1-1.4-2.2-1.7-3.2 3.6 1.4 6.8-0.3 7.4-2.7 0.8 0.5 1.9 1.1 3.3 1.5z"/>
			<path id="Layer" fill-rule="evenodd" class="s1" d="m53.1 24.5c-0.1 0.2-0.4 0.3-0.7 0.3-0.9 1.1-2.4 1.7-4.2 1.7-0.1 0.2-0.3 0.3-0.7 0.2q-0.6-0.1-1.3-0.2 0.4 0.7 0.9 1.5 0.7 0.2 1.4 0.2c0.4 0 0.9 0.1 1.3 0.3 2-0.2 3.7-1 4.8-2.3q-0.1-0.4 0.1-0.8 0.4-0.5 0.6-1.1-1-0.3-1.7-0.8-0.2 0.5-0.5 1z"/>
			<path id="Layer" fill-rule="evenodd" class="s2" d="m52.7 26.2c0.6 0.5 0.9 1.3 0.2 1.7-0.7 0.3-2 0-2.6-0.6-0.5-0.6-0.3-1.2 0.3-1.4 0.6-0.3 1.4-0.2 2.1 0.3z"/>
			<path id="Layer" fill-rule="evenodd" class="s2" d="m49.5 27.5c0.2 0.3 0.1 0.5-0.3 0.5-0.4 0.1-0.9-0.2-1.1-0.4-0.2-0.3 0-0.5 0.3-0.5 0.4 0 0.9 0.2 1.1 0.4z"/>
			<path id="Layer" fill-rule="evenodd" class="s2" d="m54 25c0.3 0.1 0.4 0.5 0.2 0.7-0.2 0.3-0.6 0.3-0.9 0.1-0.3-0.2-0.3-0.5-0.1-0.7 0.2-0.2 0.5-0.3 0.8-0.1z"/>
			<path id="Layer" fill-rule="evenodd" class="s1" d="m77.6 22.5c-2.3 1.9-5.3 3.3-8.8 3.5q-0.7-1.5-1-3.1c3-0.1 5.6-1.1 7.6-2.6q0.9 1.2 2.2 2.2z"/>
			<path id="Layer" fill-rule="evenodd" class="s2" d="m77.3 22.5c-2.2 1.8-5 3-8.3 3.3q-0.6-1.4-1-2.8c2.9 0 5.5-1 7.3-2.5q0.9 1.1 2 2z"/>
			<path id="Layer" fill-rule="evenodd" class="s1" d="m74.8 21.7c-0.3 0.2-0.5 0.2-0.8 0.2-1.1 0.6-2.4 1.1-3.9 1.3-0.1 0.2-0.3 0.4-0.6 0.5q-0.5 0-1 0 0.2 0.7 0.5 1.4 0.5 0 1-0.1c0.3-0.1 0.7 0 1 0.1 1.5-0.3 3-0.9 4.3-1.7q0-0.3 0.4-0.6 0.5-0.3 0.9-0.6-0.5-0.5-1-1-0.4 0.3-0.8 0.5z"/>
			<path id="Layer" fill-rule="evenodd" class="s2" d="m73.8 23.1c0.4 0.5 0.2 1.2-0.4 1.4-0.6 0.3-1.4 0-1.7-0.6-0.4-0.6-0.1-1.2 0.5-1.4 0.5-0.2 1.2 0.1 1.6 0.6z"/>
			<path id="Layer" fill-rule="evenodd" class="s2" d="m70.9 24.2c0.1 0.2 0 0.5-0.3 0.5-0.3 0.1-0.7-0.1-0.8-0.3-0.1-0.3 0.1-0.5 0.4-0.5 0.3-0.1 0.6 0 0.7 0.3z"/>
			<path id="Layer" fill-rule="evenodd" class="s2" d="m75.3 22.3c0.2 0.2 0.1 0.5-0.1 0.7-0.3 0.1-0.6 0.1-0.8-0.1-0.1-0.2 0-0.5 0.2-0.6 0.2-0.2 0.5-0.1 0.7 0z"/>
			<path id="Layer" fill-rule="evenodd" class="s1" d="m66.1 20.8c-2.9 0.1-6.1-0.8-9-2.8q0.5-1.7 1.2-3.1c2.4 1.9 5 2.8 7.5 2.8q0 1.6 0.3 3.1z"/>
			<path id="Layer" fill-rule="evenodd" class="s2" d="m65.9 20.7c-2.8 0-5.8-0.9-8.6-2.8q0.4-1.4 1.1-2.7c2.3 1.8 4.9 2.6 7.2 2.7q0 1.4 0.3 2.8z"/>
			<path id="Layer" fill-rule="evenodd" class="s1" d="m64.4 18.5c-0.3-0.1-0.5-0.2-0.6-0.4-1.3-0.2-2.7-0.7-3.9-1.4-0.2 0.1-0.5 0.1-0.8-0.1q-0.4-0.3-0.8-0.6-0.3 0.7-0.5 1.4 0.4 0.3 0.9 0.5c0.3 0.2 0.5 0.5 0.6 0.8 1.5 0.7 3 1.2 4.4 1.4q0.3-0.2 0.7-0.2 0.6 0.1 1.1 0.1-0.1-0.7-0.1-1.4-0.5-0.1-1-0.1z"/>
			<path id="Layer" fill-rule="evenodd" class="s2" d="m62.8 18.9c0 0.6-0.6 1.1-1.2 0.9-0.6-0.2-1.1-1-1-1.6 0.2-0.7 0.8-1 1.3-0.8 0.6 0.2 0.9 0.8 0.9 1.5z"/>
			<path id="Layer" fill-rule="evenodd" class="s2" d="m59.9 17.9c-0.1 0.3-0.3 0.4-0.6 0.2-0.3-0.1-0.5-0.5-0.4-0.7 0.1-0.3 0.4-0.3 0.6-0.2 0.3 0.2 0.5 0.5 0.4 0.7z"/>
			<path id="Layer" fill-rule="evenodd" class="s2" d="m64.4 19.3c0 0.2-0.2 0.4-0.5 0.4-0.2-0.1-0.5-0.3-0.5-0.6 0-0.2 0.3-0.4 0.5-0.3 0.3 0 0.5 0.2 0.5 0.5z"/>
			<path id="Layer" fill-rule="evenodd" class="s1" d="m82.4 19.1q1.1 2.9 2.1 5.7c0.8-0.3 1.7-0.3 2.5 0q1-2.8 2-5.7c-2.1-0.7-4.5-0.7-6.6 0z"/>
			<path id="Layer" fill-rule="evenodd" class="s2" d="m82.9 19.1q0.8 2.8 1.7 5.5c0.7-0.2 1.5-0.2 2.3 0q0.8-2.7 1.7-5.5c-1.9-0.6-3.9-0.6-5.7 0z"/>
			<path id="Layer" fill-rule="evenodd" class="s1" d="m87 19.7c0 0.2 0.2 0.4 0.4 0.6q-0.3 1.5-0.6 2.9c-0.2 0.1-0.4 0.3-0.4 0.5q0 0.3-0.1 0.6-0.6-0.1-1.2 0 0-0.3-0.1-0.6c0-0.2-0.1-0.4-0.4-0.5q-0.3-1.4-0.6-2.9c0.2-0.2 0.4-0.4 0.4-0.6q-0.1-0.3-0.2-0.7 1.5-0.3 2.9 0 0 0.3-0.1 0.7z"/>
			<path id="Layer" fill-rule="evenodd" class="s2" d="m85.7 20.8c-1 0-1.8 0.6-1.6 1 0.1 0.4 0.8 0.5 1.6 0.5 0.8 0 1.6-0.1 1.7-0.5 0.1-0.4-0.6-1-1.7-1z"/>
			<path id="Layer" fill-rule="evenodd" class="s2" d="m85.6 22.9c-0.3 0-0.5 0.2-0.5 0.4 0.1 0.2 0.3 0.3 0.5 0.3 0.3 0 0.5-0.2 0.5-0.4 0-0.2-0.2-0.3-0.5-0.3z"/>
			<path id="Layer" fill-rule="evenodd" class="s2" d="m85.5 19.6c-0.4 0-0.8 0.2-0.8 0.4 0.1 0.2 0.4 0.3 0.9 0.3 0.4 0 0.7-0.1 0.8-0.3 0-0.2-0.4-0.4-0.9-0.4z"/>
			<path id="Layer" fill-rule="evenodd" class="s1" d="m93.2 29.5c0.6-2.6 3.8-4.6 7.6-3.8 0.8 1 1.3 2.1 1.5 3-3-1.4-5.7 0-6.1 2.1-0.7-0.5-1.7-1-3-1.3z"/>
			<path id="Layer" fill-rule="evenodd" class="s2" d="m93.5 29.4c0.6-2.5 3.6-4.3 7.2-3.6 0.7 0.9 1.1 1.8 1.4 2.6-3-1.1-5.5 0.2-6 2.2-0.7-0.5-1.5-0.9-2.6-1.2z"/>
			<path id="Layer" fill-rule="evenodd" class="s1" d="m96 29.3c0.1-0.2 0.3-0.3 0.5-0.3 0.8-0.8 2-1.4 3.4-1.3 0.1-0.2 0.3-0.3 0.7-0.2q0.4 0 1 0.2-0.3-0.6-0.8-1.3-0.5-0.1-1.1-0.1c-0.3 0-0.7-0.1-1-0.3-1.7 0.2-3 0.9-3.9 1.9q0.1 0.3-0.1 0.6-0.3 0.5-0.4 0.9 0.7 0.3 1.3 0.7 0.2-0.5 0.4-0.8z"/>
			<path id="Layer" fill-rule="evenodd" class="s2" d="m96.4 27.9c-0.6-0.4-0.8-1-0.2-1.3 0.6-0.3 1.6-0.1 2 0.4 0.5 0.5 0.3 1-0.2 1.2-0.5 0.2-1.1 0.1-1.6-0.3z"/>
			<path id="Layer" fill-rule="evenodd" class="s2" d="m98.9 26.8c-0.1-0.2 0-0.4 0.3-0.4 0.3 0 0.7 0.2 0.9 0.4 0.1 0.2 0 0.4-0.3 0.4-0.3 0-0.7-0.2-0.9-0.4z"/>
			<path id="Layer" fill-rule="evenodd" class="s2" d="m95.3 28.9c-0.2-0.1-0.3-0.4-0.2-0.6 0.2-0.2 0.5-0.2 0.7-0.1 0.3 0.1 0.3 0.4 0.1 0.6-0.1 0.2-0.4 0.2-0.6 0.1z"/>
			<path id="Layer" fill-rule="evenodd" class="s1" d="m24.2 60.6c-3.4 0.9-5.9 5.2-4.7 10.2 1.4 1 2.8 1.7 4 2-1.9-4-0.1-7.7 2.6-8.3-0.7-0.9-1.4-2.3-1.9-3.9z"/>
			<path id="Layer" fill-rule="evenodd" class="s2" d="m24.1 60.9c-3.2 1-5.5 5-4.4 9.8 1.2 0.9 2.4 1.4 3.5 1.8-1.7-3.9 0-7.4 2.6-8.1-0.6-0.9-1.2-2-1.7-3.5z"/>
			<path id="Layer" fill-rule="evenodd" class="s1" d="m24.1 64.3c-0.3 0.2-0.4 0.5-0.4 0.7-1 1.1-1.7 2.7-1.6 4.6-0.2 0.1-0.3 0.4-0.2 0.9q0.1 0.6 0.3 1.3-0.8-0.4-1.7-0.9-0.2-0.8-0.2-1.5c-0.1-0.4-0.2-1-0.4-1.4 0.1-2.2 1-4 2.3-5.2q0.4 0.1 0.9-0.2 0.5-0.4 1.1-0.6 0.4 1 0.9 1.8-0.5 0.2-1 0.5z"/>
			<path id="Layer" fill-rule="evenodd" class="s2" d="m22.2 64.8c-0.5-0.6-1.3-0.9-1.7-0.1-0.4 0.8 0 2.1 0.7 2.7 0.6 0.6 1.2 0.3 1.5-0.3 0.2-0.7 0.1-1.5-0.5-2.3z"/>
			<path id="Layer" fill-rule="evenodd" class="s2" d="m21 68.3c-0.3-0.2-0.6-0.1-0.6 0.4 0 0.4 0.3 0.9 0.6 1.1 0.3 0.2 0.5 0 0.4-0.4 0-0.4-0.2-0.9-0.5-1.1z"/>
			<path id="Layer" fill-rule="evenodd" class="s2" d="m23.5 63.4c-0.1-0.3-0.5-0.4-0.8-0.2-0.2 0.2-0.2 0.7 0 1 0.2 0.2 0.5 0.2 0.7 0 0.3-0.2 0.3-0.5 0.1-0.8z"/>
			<path id="Layer" fill-rule="evenodd" class="s3" d="m26.1 96l28.8-24.2 17.8 19.4 25.3-23.1 6.5 6.8 9.5-27.3-30.1 6.1 6.8 7.1-17.4 15.9-17.2-18.5-35.8 30z"/>
			<path id="Layer" fill-rule="evenodd" class="s4" d="m26.1 96l-5.8-7.8 1.7-1.4 4.7 6.3 28.7-24.2 17.9 19.4 25.3-23.1 6.5 6.8 8.4-24.3 0.5-0.1-9.5 27.3-6.5-6.8-25.3 23.1-17.8-19.4-28.8 24.2zm61.9-41.3l5.5 5.6-2.8 0.5-6.8-7.1 4.1 1z"/>
			<path id="Layer" fill-rule="evenodd" class="s5" d="m113.3 49.5l0.7-1.9-30.1 6.1 4.1 1 25.3-5.2zm-22.6 11.3l-17.4 15.9-17.2-18.5-35.8 30 2.6-0.2 33.6-28.1 17.2 18.5 19.8-18.1z"/>
		</g>
	</g>
</svg>