<svg version="1.2" xmlns="http://www.w3.org/2000/svg" viewBox="0 0 155 105" width="155" height="114">
	<title>savings-svg</title>
	<defs>
		<clipPath clipPathUnits="userSpaceOnUse" id="cp1">
			<path d="m48 20h14v14h-14z"/>
		</clipPath>
		<clipPath clipPathUnits="userSpaceOnUse" id="cp2">
			<path d="m62 31h8v8h-8z"/>
		</clipPath>
		<clipPath clipPathUnits="userSpaceOnUse" id="cp3">
			<path d="m73 19h16v16h-16z"/>
		</clipPath>
		<clipPath clipPathUnits="userSpaceOnUse" id="cp4">
			<path d="m39 44h81v58h-81z"/>
		</clipPath>
	</defs>
	<style>
		.s0 { opacity: .5;fill: #dfedf2 } 
		.s1 { fill: #8fe0ed } 
		.s2 { fill: #ffffff } 
		.s3 { fill: #b0c2e4 } 
		.s4 { fill: #e0e8f5 } 
		.s5 { fill: #8fe1ee } 
	</style>
	<path id="Layer" class="s0" d="m5 101.5c0 1.9 32.9 3.5 73.5 3.5 40.6 0 73.5-1.6 73.5-3.5 0-1.9-32.9-3.5-73.5-3.5-40.6 0-73.5 1.6-73.5 3.5z"/>
	<g id="Clip-Path" clip-path="url(#cp1)">
		<g id="Layer">
			<path id="Layer" fill-rule="evenodd" class="s1" d="m55 20c3.9 0 7 3.1 7 7 0 3.9-3.1 7-7 7-3.9 0-7-3.1-7-7 0-3.9 3.1-7 7-7z"/>
			<path id="Layer" fill-rule="evenodd" class="s2" d="m55 21c3.3 0 6 2.7 6 6 0 3.3-2.7 6-6 6-3.3 0-6-2.7-6-6 0-3.3 2.7-6 6-6z"/>
			<path id="Layer" fill-rule="evenodd" class="s3" d="m55 21.4c3.1 0 5.6 2.5 5.6 5.6 0 3.1-2.5 5.6-5.6 5.6-3.1 0-5.6-2.5-5.6-5.6 0-3.1 2.5-5.6 5.6-5.6z"/>
			<path id="Layer" fill-rule="evenodd" class="s2" d="m56.9 24.1c-0.2-0.1-0.5-0.2-0.9-0.2-1.2 0-2 1-2.2 2.3h-0.7v0.6h0.7q0 0.1 0 0.3 0 0 0 0.1h-0.7v0.6h0.7c0.2 1.4 0.9 2.3 2 2.3 0.5 0 0.9-0.1 1-0.2l-0.1-1q-0.2 0.2-0.7 0.2c-0.5 0-0.9-0.6-1-1.3h1.7v-0.6h-1.8q0-0.1 0-0.2 0-0.1 0-0.2h1.8v-0.6h-1.7c0.1-0.7 0.5-1.3 1-1.3 0.3 0 0.5 0.1 0.7 0.2l0.2-1z"/>
		</g>
	</g>
	<g id="Clip-Path" clip-path="url(#cp2)">
		<g id="Layer">
			<path id="Layer" fill-rule="evenodd" class="s1" d="m66 31c2.2 0 4 1.8 4 4 0 2.2-1.8 4-4 4-2.2 0-4-1.8-4-4 0-2.2 1.8-4 4-4z"/>
			<path id="Layer" fill-rule="evenodd" class="s2" d="m66 31.6c1.9 0 3.4 1.5 3.4 3.4 0 1.9-1.5 3.4-3.4 3.4-1.9 0-3.4-1.5-3.4-3.4 0-1.9 1.5-3.4 3.4-3.4z"/>
			<path id="Layer" fill-rule="evenodd" class="s3" d="m66 31.8c1.8 0 3.2 1.4 3.2 3.2 0 1.8-1.4 3.2-3.2 3.2-1.8 0-3.2-1.4-3.2-3.2 0-1.8 1.4-3.2 3.2-3.2z"/>
			<path id="Layer" fill-rule="evenodd" class="s2" d="m67.1 33.3c-0.1 0-0.3-0.1-0.5-0.1-0.7 0-1.1 0.6-1.3 1.4h-0.4v0.3h0.4q0 0.1 0 0.1 0 0.1 0 0.1h-0.4v0.3h0.4c0.1 0.9 0.5 1.4 1.2 1.4 0.2 0 0.4-0.1 0.6-0.2l-0.1-0.5q-0.2 0.1-0.4 0.1c-0.3 0-0.5-0.3-0.6-0.8h1v-0.3h-1q-0.1 0-0.1-0.1 0-0.1 0.1-0.1h1v-0.3h-1c0.1-0.5 0.3-0.8 0.6-0.8q0.2 0 0.4 0.1l0.1-0.6z"/>
		</g>
	</g>
	<g id="Clip-Path" clip-path="url(#cp3)">
		<g id="Layer">
			<path id="Layer" fill-rule="evenodd" class="s1" d="m81 19c4.4 0 8 3.6 8 8 0 4.4-3.6 8-8 8-4.4 0-8-3.6-8-8 0-4.4 3.6-8 8-8z"/>
			<path id="Layer" fill-rule="evenodd" class="s2" d="m81 20.2c3.8 0 6.8 3 6.8 6.8 0 3.8-3 6.8-6.8 6.8-3.8 0-6.8-3-6.8-6.8 0-3.8 3-6.8 6.8-6.8z"/>
			<path id="Layer" fill-rule="evenodd" class="s3" d="m81 20.6c3.5 0 6.4 2.9 6.4 6.4 0 3.5-2.9 6.4-6.4 6.4-3.5 0-6.4-2.9-6.4-6.4 0-3.5 2.9-6.4 6.4-6.4z"/>
			<path id="Layer" fill-rule="evenodd" class="s2" d="m83.1 23.7c-0.2-0.1-0.6-0.3-1-0.3-1.3 0-2.2 1.2-2.4 2.7h-0.8v0.7h0.7q0 0.1 0 0.3 0 0.1 0 0.1h-0.7v0.7h0.7c0.2 1.7 1.1 2.7 2.3 2.7 0.5 0 1-0.2 1.2-0.3l-0.1-1.2q-0.3 0.3-0.8 0.3c-0.6 0-1-0.6-1.2-1.5h2v-0.7h-2.1q0-0.1 0-0.2 0-0.1 0-0.2h2.1v-0.7h-2c0.1-0.8 0.6-1.5 1.2-1.5 0.3 0 0.6 0.1 0.7 0.2l0.2-1.1z"/>
		</g>
	</g>
	<g id="Clip-Path" clip-path="url(#cp4)">
		<g id="Layer">
			<path id="Layer" fill-rule="evenodd" class="s3" d="m104.2 53.5c4.3 3.2 7.8 7.5 9.3 12.6h3.2c1.8 0 3.3 1.5 3.3 3.3v10.2c0 1.8-1.5 3.2-3.3 3.2h-5.8c-2.1 3.2-4.9 5.9-8.1 8l-0.5 8.9c-0.1 1.2-1.2 2.2-2.5 2.2h-6.7c-1.2 0-2.3-0.9-2.4-2.2l-0.3-3.7c-3.3 0.8-6.7 1.2-10.1 1.2-5.8 0-11.7-1.1-17-3.4l-0.6 6c-0.1 1.2-1.1 2.2-2.4 2.2h-6.7c-1.3 0-2.3-1-2.4-2.3l-1-16.1c-2.5-3.5-3.9-7.6-3.9-11.9q0-2.6 0.7-5.1 0.7-2.7 2.1-5c-2.7 0.4-4.5-0.1-5.7-1-0.8-0.6-1.3-1.4-1.5-2.3q-0.2-0.6-0.2-1.2-0.2-0.1-0.3-0.1-1-0.8-1.6-1.8-0.6-1-0.8-2.2c-0.2-1.6 0.3-3.3 1.5-4.9 0.4-0.6 1.2-0.7 1.7-0.3 0.5 0.4 0.6 1.1 0.2 1.7-0.8 1.1-1.1 2.2-1 3.2q0.1 0.7 0.4 1.3 0.2 0.3 0.4 0.5c0.7-1.6 2-3 3.7-3.4 1.9-0.5 3.4 0.2 4.3 1.2q0.5 0.8 0.7 1.6 0.2 0.9-0.1 1.8c-0.4 1.3-1.5 2.4-3.4 2.6q-1.6 0.2-3-0.1 0.2 0.3 0.5 0.6c1 0.8 2.9 0.9 6.2-0.2 2.1-2.7 4.8-4.9 7.7-6.7 6.4-3.9 14-5.7 21.5-5.7 4.9 0 9.7 0.8 14.3 2.4 2.1-1.7 4.5-2.9 7.1-3.7l2.6-0.9v2.7c0.1 2.2 0.1 4.6-0.1 6.8zm-57.7-0.1c-1.1 0.2-2 1.3-2.3 2.4 0.8 0.3 1.8 0.4 2.9 0.2 0.8-0.1 1.3-0.5 1.4-1q0.1-0.3 0.1-0.6-0.1-0.3-0.3-0.6c-0.3-0.4-0.9-0.6-1.8-0.4z"/>
			<path id="Layer" fill-rule="evenodd" class="s4" d="m80.3 48.2c5.3 0 10.4 1 14.8 2.7q2.8-2.7 7.2-4.2 0.1 4.8-0.3 7.8c5.2 3.5 8.8 8.2 9.9 13.6h4.8c0.7 0 1.3 0.6 1.3 1.3v10.2c0 0.7-0.6 1.3-1.3 1.3h-6.9c-2 3.4-5.1 6.4-8.9 8.8l-0.6 9.8c-0.1 0.3-0.2 0.5-0.5 0.5h-6.7c-0.2 0-0.4-0.2-0.4-0.5l-0.5-6c-3.7 1.1-7.7 1.7-11.9 1.7-7 0-13.5-1.7-18.8-4.5l-0.8 8.9c0 0.2-0.2 0.4-0.4 0.4h-6.7c-0.2 0-0.4-0.2-0.4-0.4l-1.1-16.7c-2.4-3.3-3.8-7.2-3.8-11.2 0-13 14.3-23.5 32-23.5z"/>
			<path id="Layer" fill-rule="evenodd" class="s3" d="m70.3 56.9c-0.6 0.3-1.3 0-1.6-0.6-0.3-0.6 0-1.3 0.6-1.5q9.7-4.4 20.8-0.3c0.6 0.3 1 0.9 0.7 1.6-0.2 0.6-0.9 0.9-1.5 0.6q-10.2-3.7-19 0.2z"/>
			<path id="Layer" fill-rule="evenodd" class="s5" d="m104.8 62.5c1 0 1.7 0.8 1.7 1.7 0 0.9-0.7 1.7-1.7 1.7-0.9 0-1.7-0.8-1.7-1.7 0-0.9 0.8-1.7 1.7-1.7z"/>
			<path id="Layer" fill-rule="evenodd" class="s3" d="m98.3 52.5q0.9 1.5 2.6 2.8 0.7-5.1 0.6-7.3-2.2 2.2-3.2 4.5z"/>
			<path id="Layer" fill-rule="evenodd" class="s3" d="m64.8 55.4c-22.2 18.1 4.4 46.9 37.3 29.8q-13.7 10.6-33.2 5.3c-20.3-5.9-24-29.1-4.1-35.1z"/>
			<path id="Layer" fill-rule="evenodd" class="s3" d="m54.5 98.1q-0.7-8.5-0.6-13.1 1.3 1.8 3.9 4.1-0.2 4.8-0.4 9.1-2.2 0-2.9-0.1z"/>
			<path id="Layer" fill-rule="evenodd" class="s3" d="m94 98.6q-0.4-3.2-0.5-5.5 3.2-1 4.2-1.8-0.3 6-0.4 7.3-2 0.2-3.3 0z"/>
		</g>
	</g>
</svg>